G04 EAGLE Gerber RS-274X export*
G75*
%MOMM*%
%FSLAX34Y34*%
%LPD*%
%INBottom Copper*%
%IPPOS*%
%AMOC8*
5,1,8,0,0,1.08239X$1,22.5*%
G01*
%ADD10C,0.656400*%
%ADD11C,0.152400*%
%ADD12C,0.756400*%
%ADD13C,0.254000*%

G36*
X229788Y10176D02*
X229788Y10176D01*
X229907Y10183D01*
X229945Y10196D01*
X229986Y10201D01*
X230096Y10244D01*
X230209Y10281D01*
X230244Y10303D01*
X230281Y10318D01*
X230377Y10387D01*
X230478Y10451D01*
X230506Y10481D01*
X230539Y10504D01*
X230615Y10596D01*
X230696Y10683D01*
X230716Y10718D01*
X230741Y10749D01*
X230792Y10857D01*
X230850Y10961D01*
X230860Y11001D01*
X230877Y11037D01*
X230899Y11154D01*
X230929Y11269D01*
X230933Y11329D01*
X230937Y11349D01*
X230935Y11370D01*
X230939Y11430D01*
X230939Y175770D01*
X230924Y175888D01*
X230917Y176007D01*
X230904Y176045D01*
X230899Y176086D01*
X230856Y176196D01*
X230819Y176309D01*
X230797Y176344D01*
X230782Y176381D01*
X230713Y176477D01*
X230649Y176578D01*
X230619Y176606D01*
X230596Y176639D01*
X230504Y176715D01*
X230417Y176796D01*
X230382Y176816D01*
X230351Y176841D01*
X230243Y176892D01*
X230139Y176950D01*
X230099Y176960D01*
X230063Y176977D01*
X229946Y176999D01*
X229831Y177029D01*
X229771Y177033D01*
X229751Y177037D01*
X229730Y177035D01*
X229670Y177039D01*
X11430Y177039D01*
X11312Y177024D01*
X11193Y177017D01*
X11155Y177004D01*
X11114Y176999D01*
X11004Y176956D01*
X10891Y176919D01*
X10856Y176897D01*
X10819Y176882D01*
X10723Y176813D01*
X10622Y176749D01*
X10594Y176719D01*
X10561Y176696D01*
X10485Y176604D01*
X10404Y176517D01*
X10384Y176482D01*
X10359Y176451D01*
X10308Y176343D01*
X10250Y176239D01*
X10240Y176199D01*
X10223Y176163D01*
X10201Y176046D01*
X10171Y175931D01*
X10167Y175871D01*
X10163Y175851D01*
X10165Y175830D01*
X10161Y175770D01*
X10161Y11430D01*
X10176Y11312D01*
X10183Y11193D01*
X10196Y11155D01*
X10201Y11114D01*
X10244Y11004D01*
X10281Y10891D01*
X10303Y10856D01*
X10318Y10819D01*
X10387Y10723D01*
X10451Y10622D01*
X10481Y10594D01*
X10504Y10561D01*
X10596Y10485D01*
X10683Y10404D01*
X10718Y10384D01*
X10749Y10359D01*
X10857Y10308D01*
X10961Y10250D01*
X11001Y10240D01*
X11037Y10223D01*
X11154Y10201D01*
X11269Y10171D01*
X11329Y10167D01*
X11349Y10163D01*
X11370Y10165D01*
X11430Y10161D01*
X229670Y10161D01*
X229788Y10176D01*
G37*
%LPC*%
G36*
X49844Y58693D02*
X49844Y58693D01*
X48077Y59425D01*
X46725Y60777D01*
X45993Y62544D01*
X45993Y64456D01*
X46725Y66223D01*
X48077Y67575D01*
X49844Y68307D01*
X51847Y68307D01*
X51945Y68319D01*
X52044Y68322D01*
X52102Y68339D01*
X52163Y68347D01*
X52255Y68383D01*
X52350Y68411D01*
X52402Y68441D01*
X52458Y68464D01*
X52538Y68522D01*
X52624Y68572D01*
X52699Y68638D01*
X52716Y68650D01*
X52723Y68660D01*
X52745Y68678D01*
X87953Y103887D01*
X96563Y103887D01*
X96661Y103899D01*
X96761Y103902D01*
X96819Y103919D01*
X96879Y103927D01*
X96971Y103963D01*
X97066Y103991D01*
X97118Y104021D01*
X97174Y104044D01*
X97255Y104102D01*
X97340Y104152D01*
X97415Y104218D01*
X97432Y104230D01*
X97440Y104240D01*
X97461Y104258D01*
X98877Y105675D01*
X99447Y105911D01*
X99491Y105936D01*
X99537Y105953D01*
X99628Y106014D01*
X99724Y106069D01*
X99759Y106103D01*
X99800Y106131D01*
X99873Y106214D01*
X99952Y106290D01*
X99978Y106332D01*
X100011Y106370D01*
X100061Y106467D01*
X100118Y106561D01*
X100133Y106609D01*
X100156Y106653D01*
X100180Y106760D01*
X100212Y106865D01*
X100214Y106915D01*
X100225Y106963D01*
X100222Y107073D01*
X100227Y107183D01*
X100217Y107231D01*
X100216Y107281D01*
X100185Y107386D01*
X100163Y107494D01*
X100141Y107539D01*
X100127Y107586D01*
X100071Y107681D01*
X100023Y107780D01*
X99991Y107818D01*
X99966Y107860D01*
X99859Y107981D01*
X86105Y121735D01*
X86105Y121764D01*
X86093Y121862D01*
X86090Y121961D01*
X86073Y122020D01*
X86065Y122080D01*
X86029Y122172D01*
X86001Y122267D01*
X85971Y122319D01*
X85948Y122375D01*
X85890Y122455D01*
X85840Y122541D01*
X85774Y122616D01*
X85762Y122633D01*
X85752Y122640D01*
X85734Y122662D01*
X84401Y123994D01*
X83593Y125944D01*
X83593Y128056D01*
X84401Y130006D01*
X85894Y131499D01*
X87844Y132307D01*
X89956Y132307D01*
X91906Y131499D01*
X93399Y130006D01*
X94207Y128056D01*
X94207Y125944D01*
X93382Y123954D01*
X93321Y123884D01*
X93302Y123848D01*
X93278Y123817D01*
X93230Y123707D01*
X93176Y123601D01*
X93167Y123562D01*
X93151Y123525D01*
X93133Y123407D01*
X93106Y123291D01*
X93108Y123250D01*
X93101Y123211D01*
X93113Y123092D01*
X93116Y122973D01*
X93127Y122934D01*
X93131Y122894D01*
X93171Y122782D01*
X93205Y122667D01*
X93225Y122633D01*
X93239Y122595D01*
X93306Y122496D01*
X93366Y122393D01*
X93406Y122348D01*
X93417Y122332D01*
X93433Y122318D01*
X93472Y122273D01*
X110471Y105274D01*
X110471Y97926D01*
X93472Y80927D01*
X93399Y80833D01*
X93321Y80744D01*
X93302Y80708D01*
X93278Y80676D01*
X93230Y80567D01*
X93176Y80461D01*
X93167Y80421D01*
X93151Y80384D01*
X93133Y80267D01*
X93106Y80150D01*
X93108Y80110D01*
X93101Y80070D01*
X93113Y79951D01*
X93116Y79832D01*
X93127Y79794D01*
X93131Y79754D01*
X93171Y79641D01*
X93205Y79527D01*
X93225Y79492D01*
X93239Y79454D01*
X93306Y79356D01*
X93366Y79253D01*
X93391Y79225D01*
X94207Y77256D01*
X94207Y75144D01*
X93399Y73194D01*
X91906Y71701D01*
X89956Y70893D01*
X87844Y70893D01*
X85894Y71701D01*
X84401Y73194D01*
X83593Y75144D01*
X83593Y77256D01*
X84401Y79206D01*
X85734Y80538D01*
X85794Y80617D01*
X85862Y80689D01*
X85891Y80742D01*
X85928Y80790D01*
X85968Y80881D01*
X86016Y80967D01*
X86031Y81026D01*
X86055Y81082D01*
X86070Y81179D01*
X86095Y81275D01*
X86101Y81375D01*
X86105Y81396D01*
X86103Y81408D01*
X86105Y81436D01*
X86105Y81465D01*
X99859Y95219D01*
X99890Y95258D01*
X99926Y95291D01*
X99987Y95383D01*
X100054Y95470D01*
X100074Y95516D01*
X100101Y95557D01*
X100137Y95661D01*
X100180Y95762D01*
X100188Y95811D01*
X100204Y95858D01*
X100213Y95967D01*
X100230Y96076D01*
X100226Y96126D01*
X100230Y96175D01*
X100211Y96283D01*
X100201Y96393D01*
X100184Y96439D01*
X100175Y96488D01*
X100130Y96589D01*
X100093Y96692D01*
X100065Y96733D01*
X100045Y96778D01*
X99976Y96864D01*
X99914Y96955D01*
X99877Y96988D01*
X99846Y97027D01*
X99758Y97093D01*
X99676Y97165D01*
X99632Y97188D01*
X99592Y97218D01*
X99447Y97289D01*
X98877Y97525D01*
X97461Y98942D01*
X97382Y99002D01*
X97310Y99070D01*
X97257Y99099D01*
X97209Y99136D01*
X97119Y99176D01*
X97032Y99224D01*
X96973Y99239D01*
X96918Y99263D01*
X96820Y99278D01*
X96724Y99303D01*
X96624Y99309D01*
X96604Y99313D01*
X96591Y99311D01*
X96563Y99313D01*
X90373Y99313D01*
X90275Y99301D01*
X90176Y99298D01*
X90118Y99281D01*
X90057Y99273D01*
X89965Y99237D01*
X89870Y99209D01*
X89818Y99179D01*
X89762Y99156D01*
X89682Y99098D01*
X89596Y99048D01*
X89521Y98982D01*
X89504Y98970D01*
X89497Y98960D01*
X89475Y98942D01*
X55978Y65445D01*
X55918Y65366D01*
X55850Y65294D01*
X55821Y65241D01*
X55784Y65193D01*
X55744Y65102D01*
X55696Y65016D01*
X55681Y64957D01*
X55657Y64901D01*
X55642Y64803D01*
X55617Y64708D01*
X55611Y64608D01*
X55607Y64587D01*
X55609Y64575D01*
X55607Y64547D01*
X55607Y62544D01*
X54875Y60777D01*
X53523Y59425D01*
X51756Y58693D01*
X49844Y58693D01*
G37*
%LPD*%
%LPC*%
G36*
X164144Y58693D02*
X164144Y58693D01*
X162377Y59425D01*
X161025Y60777D01*
X160293Y62544D01*
X160293Y64456D01*
X161025Y66223D01*
X162377Y67575D01*
X164144Y68307D01*
X166147Y68307D01*
X166245Y68319D01*
X166344Y68322D01*
X166402Y68339D01*
X166463Y68347D01*
X166555Y68383D01*
X166650Y68411D01*
X166702Y68441D01*
X166758Y68464D01*
X166838Y68522D01*
X166924Y68572D01*
X166999Y68638D01*
X167016Y68650D01*
X167023Y68660D01*
X167045Y68678D01*
X176853Y78487D01*
X185463Y78487D01*
X185561Y78499D01*
X185660Y78502D01*
X185719Y78519D01*
X185779Y78527D01*
X185871Y78563D01*
X185966Y78591D01*
X186018Y78621D01*
X186074Y78644D01*
X186154Y78702D01*
X186240Y78752D01*
X186315Y78818D01*
X186332Y78830D01*
X186340Y78840D01*
X186361Y78858D01*
X187777Y80275D01*
X189544Y81007D01*
X191456Y81007D01*
X193223Y80275D01*
X194575Y78923D01*
X195307Y77156D01*
X195307Y75244D01*
X194575Y73477D01*
X193223Y72125D01*
X191456Y71393D01*
X189544Y71393D01*
X187777Y72125D01*
X186361Y73542D01*
X186282Y73602D01*
X186210Y73670D01*
X186157Y73699D01*
X186109Y73736D01*
X186018Y73776D01*
X185932Y73824D01*
X185873Y73839D01*
X185818Y73863D01*
X185720Y73878D01*
X185624Y73903D01*
X185524Y73909D01*
X185504Y73913D01*
X185491Y73911D01*
X185463Y73913D01*
X179273Y73913D01*
X179175Y73901D01*
X179076Y73898D01*
X179018Y73881D01*
X178957Y73873D01*
X178865Y73837D01*
X178770Y73809D01*
X178718Y73779D01*
X178662Y73756D01*
X178582Y73698D01*
X178496Y73648D01*
X178421Y73582D01*
X178404Y73570D01*
X178397Y73560D01*
X178375Y73542D01*
X170278Y65445D01*
X170218Y65366D01*
X170150Y65294D01*
X170121Y65241D01*
X170084Y65193D01*
X170044Y65102D01*
X169996Y65016D01*
X169981Y64957D01*
X169957Y64901D01*
X169942Y64803D01*
X169917Y64708D01*
X169911Y64608D01*
X169907Y64587D01*
X169909Y64575D01*
X169907Y64547D01*
X169907Y62544D01*
X169175Y60777D01*
X167823Y59425D01*
X166056Y58693D01*
X164144Y58693D01*
G37*
%LPD*%
D10*
X101600Y101600D03*
X50800Y63500D03*
D11*
X88900Y101600D01*
X101600Y101600D01*
D10*
X165100Y63500D03*
X190500Y76200D03*
D11*
X177800Y76200D02*
X165100Y63500D01*
X177800Y76200D02*
X190500Y76200D01*
D12*
X88900Y76200D03*
X88900Y127000D03*
D13*
X107676Y104117D02*
X107676Y99083D01*
X88900Y122893D02*
X88900Y127000D01*
X88900Y122893D02*
X107676Y104117D01*
X88900Y80307D02*
X88900Y76200D01*
X88900Y80307D02*
X107676Y99083D01*
D12*
X139700Y165100D03*
X139700Y114300D03*
X203200Y127000D03*
X228600Y63500D03*
X101600Y76200D03*
X63500Y38100D03*
X76200Y12700D03*
X25400Y177800D03*
X12700Y76200D03*
M02*
