G04 EAGLE Gerber RS-274X export*
G75*
%MOMM*%
%FSLAX34Y34*%
%LPD*%
%INTop Copper*%
%IPPOS*%
%AMOC8*
5,1,8,0,0,1.08239X$1,22.5*%
G01*
%ADD10R,1.500000X2.000000*%
%ADD11R,1.600000X1.800000*%
%ADD12R,1.270000X2.540000*%
%ADD13R,2.540000X1.270000*%
%ADD14R,2.032000X0.660400*%
%ADD15R,1.600000X1.803000*%
%ADD16C,0.120000*%
%ADD17C,0.152400*%
%ADD18C,0.656400*%
%ADD19C,0.254000*%
%ADD20C,0.756400*%

G36*
X229788Y10176D02*
X229788Y10176D01*
X229907Y10183D01*
X229945Y10196D01*
X229986Y10201D01*
X230096Y10244D01*
X230209Y10281D01*
X230244Y10303D01*
X230281Y10318D01*
X230377Y10387D01*
X230478Y10451D01*
X230506Y10481D01*
X230539Y10504D01*
X230615Y10596D01*
X230696Y10683D01*
X230716Y10718D01*
X230741Y10749D01*
X230792Y10857D01*
X230850Y10961D01*
X230860Y11001D01*
X230877Y11037D01*
X230899Y11154D01*
X230929Y11269D01*
X230933Y11329D01*
X230937Y11349D01*
X230935Y11370D01*
X230939Y11430D01*
X230939Y175770D01*
X230924Y175888D01*
X230917Y176007D01*
X230904Y176045D01*
X230899Y176086D01*
X230856Y176196D01*
X230819Y176309D01*
X230797Y176344D01*
X230782Y176381D01*
X230713Y176477D01*
X230649Y176578D01*
X230619Y176606D01*
X230596Y176639D01*
X230504Y176715D01*
X230417Y176796D01*
X230382Y176816D01*
X230351Y176841D01*
X230243Y176892D01*
X230139Y176950D01*
X230099Y176960D01*
X230063Y176977D01*
X229946Y176999D01*
X229831Y177029D01*
X229771Y177033D01*
X229751Y177037D01*
X229730Y177035D01*
X229670Y177039D01*
X11430Y177039D01*
X11312Y177024D01*
X11193Y177017D01*
X11155Y177004D01*
X11114Y176999D01*
X11004Y176956D01*
X10891Y176919D01*
X10856Y176897D01*
X10819Y176882D01*
X10723Y176813D01*
X10622Y176749D01*
X10594Y176719D01*
X10561Y176696D01*
X10485Y176604D01*
X10404Y176517D01*
X10384Y176482D01*
X10359Y176451D01*
X10308Y176343D01*
X10250Y176239D01*
X10240Y176199D01*
X10223Y176163D01*
X10201Y176046D01*
X10171Y175931D01*
X10167Y175871D01*
X10163Y175851D01*
X10165Y175830D01*
X10161Y175770D01*
X10161Y175054D01*
X10177Y174929D01*
X10186Y174804D01*
X10196Y174772D01*
X10201Y174739D01*
X10247Y174621D01*
X10287Y174502D01*
X10305Y174474D01*
X10318Y174443D01*
X10392Y174341D01*
X10460Y174236D01*
X10485Y174213D01*
X10504Y174185D01*
X10601Y174105D01*
X10694Y174020D01*
X10723Y174004D01*
X10749Y173983D01*
X10863Y173929D01*
X10974Y173870D01*
X11007Y173861D01*
X11037Y173847D01*
X11160Y173824D01*
X11283Y173793D01*
X11316Y173794D01*
X11349Y173787D01*
X11475Y173795D01*
X11601Y173796D01*
X11649Y173806D01*
X11667Y173807D01*
X11687Y173814D01*
X11759Y173828D01*
X12365Y173991D01*
X22861Y173991D01*
X22861Y166370D01*
X22876Y166252D01*
X22883Y166133D01*
X22896Y166095D01*
X22901Y166055D01*
X22944Y165944D01*
X22981Y165831D01*
X23003Y165796D01*
X23018Y165759D01*
X23088Y165663D01*
X23151Y165562D01*
X23181Y165534D01*
X23205Y165502D01*
X23296Y165426D01*
X23383Y165344D01*
X23418Y165325D01*
X23449Y165299D01*
X23557Y165248D01*
X23661Y165191D01*
X23701Y165180D01*
X23737Y165163D01*
X23854Y165141D01*
X23969Y165111D01*
X24030Y165107D01*
X24050Y165103D01*
X24070Y165105D01*
X24130Y165101D01*
X25401Y165101D01*
X25401Y165099D01*
X24130Y165099D01*
X24012Y165084D01*
X23893Y165077D01*
X23855Y165064D01*
X23815Y165059D01*
X23704Y165015D01*
X23591Y164979D01*
X23556Y164957D01*
X23519Y164942D01*
X23423Y164872D01*
X23322Y164809D01*
X23294Y164779D01*
X23261Y164755D01*
X23186Y164664D01*
X23104Y164577D01*
X23084Y164542D01*
X23059Y164510D01*
X23008Y164403D01*
X22950Y164299D01*
X22940Y164259D01*
X22923Y164223D01*
X22901Y164106D01*
X22871Y163991D01*
X22867Y163930D01*
X22863Y163910D01*
X22865Y163890D01*
X22861Y163830D01*
X22861Y156209D01*
X12366Y156209D01*
X11759Y156372D01*
X11634Y156389D01*
X11510Y156413D01*
X11477Y156411D01*
X11443Y156415D01*
X11318Y156401D01*
X11193Y156393D01*
X11161Y156382D01*
X11128Y156379D01*
X11010Y156334D01*
X10891Y156295D01*
X10862Y156277D01*
X10831Y156265D01*
X10728Y156192D01*
X10622Y156125D01*
X10599Y156100D01*
X10571Y156081D01*
X10490Y155985D01*
X10404Y155893D01*
X10388Y155864D01*
X10366Y155838D01*
X10311Y155725D01*
X10250Y155615D01*
X10242Y155582D01*
X10227Y155552D01*
X10202Y155428D01*
X10171Y155307D01*
X10168Y155258D01*
X10164Y155240D01*
X10165Y155218D01*
X10161Y155146D01*
X10161Y72531D01*
X10178Y72393D01*
X10191Y72255D01*
X10198Y72236D01*
X10201Y72216D01*
X10252Y72086D01*
X10299Y71955D01*
X10310Y71939D01*
X10318Y71920D01*
X10399Y71808D01*
X10477Y71692D01*
X10493Y71679D01*
X10504Y71663D01*
X10612Y71574D01*
X10716Y71482D01*
X10734Y71473D01*
X10749Y71460D01*
X10875Y71401D01*
X10999Y71337D01*
X11019Y71333D01*
X11037Y71324D01*
X11173Y71298D01*
X11310Y71268D01*
X11330Y71268D01*
X11349Y71265D01*
X11488Y71273D01*
X11627Y71277D01*
X11647Y71283D01*
X11667Y71284D01*
X11799Y71327D01*
X11933Y71366D01*
X11948Y71375D01*
X38732Y71375D01*
X39625Y70482D01*
X39625Y67056D01*
X39640Y66938D01*
X39647Y66819D01*
X39660Y66781D01*
X39665Y66740D01*
X39708Y66630D01*
X39745Y66517D01*
X39767Y66482D01*
X39782Y66445D01*
X39851Y66349D01*
X39915Y66248D01*
X39945Y66220D01*
X39968Y66187D01*
X40060Y66111D01*
X40147Y66030D01*
X40182Y66010D01*
X40213Y65985D01*
X40321Y65934D01*
X40425Y65876D01*
X40465Y65866D01*
X40501Y65849D01*
X40618Y65827D01*
X40733Y65797D01*
X40793Y65793D01*
X40813Y65789D01*
X40834Y65791D01*
X40894Y65787D01*
X45763Y65787D01*
X45861Y65799D01*
X45960Y65802D01*
X46019Y65819D01*
X46079Y65827D01*
X46171Y65863D01*
X46266Y65891D01*
X46318Y65921D01*
X46374Y65944D01*
X46454Y66002D01*
X46540Y66052D01*
X46615Y66118D01*
X46632Y66130D01*
X46640Y66140D01*
X46661Y66158D01*
X48077Y67575D01*
X49844Y68307D01*
X51756Y68307D01*
X53523Y67575D01*
X54875Y66223D01*
X55607Y64456D01*
X55607Y62544D01*
X54875Y60777D01*
X53523Y59425D01*
X51756Y58693D01*
X49844Y58693D01*
X48077Y59425D01*
X46661Y60842D01*
X46582Y60902D01*
X46510Y60970D01*
X46457Y60999D01*
X46409Y61036D01*
X46318Y61076D01*
X46232Y61124D01*
X46173Y61139D01*
X46118Y61163D01*
X46020Y61178D01*
X45924Y61203D01*
X45824Y61209D01*
X45804Y61213D01*
X45791Y61211D01*
X45763Y61213D01*
X40894Y61213D01*
X40776Y61198D01*
X40657Y61191D01*
X40619Y61178D01*
X40578Y61173D01*
X40468Y61130D01*
X40355Y61093D01*
X40320Y61071D01*
X40283Y61056D01*
X40187Y60987D01*
X40086Y60923D01*
X40058Y60893D01*
X40025Y60870D01*
X39949Y60778D01*
X39868Y60691D01*
X39848Y60656D01*
X39823Y60625D01*
X39772Y60517D01*
X39714Y60413D01*
X39704Y60373D01*
X39687Y60337D01*
X39665Y60220D01*
X39635Y60105D01*
X39631Y60045D01*
X39627Y60025D01*
X39629Y60004D01*
X39625Y59944D01*
X39625Y56518D01*
X38732Y55625D01*
X11930Y55625D01*
X11823Y55676D01*
X11803Y55679D01*
X11785Y55687D01*
X11647Y55709D01*
X11510Y55735D01*
X11490Y55734D01*
X11470Y55737D01*
X11332Y55724D01*
X11193Y55716D01*
X11174Y55709D01*
X11154Y55708D01*
X11023Y55660D01*
X10891Y55618D01*
X10873Y55607D01*
X10855Y55600D01*
X10740Y55522D01*
X10622Y55447D01*
X10608Y55433D01*
X10591Y55421D01*
X10499Y55317D01*
X10404Y55216D01*
X10394Y55198D01*
X10381Y55183D01*
X10317Y55059D01*
X10250Y54937D01*
X10245Y54918D01*
X10236Y54900D01*
X10206Y54764D01*
X10171Y54629D01*
X10169Y54602D01*
X10166Y54590D01*
X10167Y54569D01*
X10161Y54469D01*
X10161Y34431D01*
X10178Y34293D01*
X10191Y34155D01*
X10198Y34136D01*
X10201Y34116D01*
X10252Y33986D01*
X10299Y33855D01*
X10310Y33839D01*
X10318Y33820D01*
X10399Y33708D01*
X10477Y33592D01*
X10493Y33579D01*
X10504Y33563D01*
X10612Y33474D01*
X10716Y33382D01*
X10734Y33373D01*
X10749Y33360D01*
X10875Y33301D01*
X10999Y33237D01*
X11019Y33233D01*
X11037Y33224D01*
X11173Y33198D01*
X11310Y33168D01*
X11330Y33168D01*
X11349Y33165D01*
X11488Y33173D01*
X11627Y33177D01*
X11647Y33183D01*
X11667Y33184D01*
X11799Y33227D01*
X11933Y33266D01*
X11948Y33275D01*
X38732Y33275D01*
X39625Y32382D01*
X39625Y28956D01*
X39640Y28838D01*
X39647Y28719D01*
X39660Y28681D01*
X39665Y28640D01*
X39708Y28530D01*
X39745Y28417D01*
X39767Y28382D01*
X39782Y28345D01*
X39851Y28249D01*
X39915Y28148D01*
X39945Y28120D01*
X39968Y28087D01*
X40060Y28011D01*
X40147Y27930D01*
X40182Y27910D01*
X40213Y27885D01*
X40321Y27834D01*
X40425Y27776D01*
X40465Y27766D01*
X40501Y27749D01*
X40618Y27727D01*
X40733Y27697D01*
X40793Y27693D01*
X40813Y27689D01*
X40834Y27691D01*
X40894Y27687D01*
X131318Y27687D01*
X132199Y26807D01*
X132308Y26722D01*
X132415Y26633D01*
X132434Y26624D01*
X132450Y26612D01*
X132577Y26556D01*
X132703Y26497D01*
X132723Y26493D01*
X132742Y26485D01*
X132880Y26463D01*
X133016Y26437D01*
X133036Y26439D01*
X133056Y26435D01*
X133195Y26448D01*
X133333Y26457D01*
X133352Y26463D01*
X133372Y26465D01*
X133504Y26512D01*
X133635Y26555D01*
X133653Y26566D01*
X133672Y26573D01*
X133787Y26651D01*
X133904Y26725D01*
X133918Y26740D01*
X133935Y26751D01*
X134027Y26855D01*
X134122Y26957D01*
X134132Y26975D01*
X134145Y26990D01*
X134208Y27114D01*
X134276Y27235D01*
X134281Y27255D01*
X134290Y27273D01*
X134320Y27409D01*
X134355Y27543D01*
X134357Y27571D01*
X134360Y27583D01*
X134359Y27604D01*
X134365Y27704D01*
X134365Y29036D01*
X134538Y29683D01*
X134873Y30262D01*
X135346Y30735D01*
X135999Y31112D01*
X136062Y31135D01*
X136085Y31150D01*
X136109Y31160D01*
X136216Y31239D01*
X136325Y31313D01*
X136343Y31334D01*
X136365Y31350D01*
X136448Y31453D01*
X136536Y31552D01*
X136548Y31576D01*
X136565Y31597D01*
X136620Y31717D01*
X136680Y31835D01*
X136686Y31861D01*
X136698Y31886D01*
X136721Y32016D01*
X136750Y32145D01*
X136749Y32172D01*
X136754Y32199D01*
X136745Y32331D01*
X136740Y32463D01*
X136733Y32489D01*
X136731Y32516D01*
X136689Y32642D01*
X136652Y32769D01*
X136638Y32792D01*
X136630Y32817D01*
X136558Y32929D01*
X136491Y33043D01*
X136465Y33071D01*
X136457Y33084D01*
X136441Y33099D01*
X136384Y33164D01*
X135381Y34166D01*
X135381Y42034D01*
X136274Y42927D01*
X146177Y42927D01*
X146295Y42942D01*
X146414Y42949D01*
X146452Y42962D01*
X146493Y42967D01*
X146603Y43010D01*
X146716Y43047D01*
X146751Y43069D01*
X146788Y43084D01*
X146884Y43153D01*
X146985Y43217D01*
X147013Y43247D01*
X147046Y43270D01*
X147122Y43362D01*
X147203Y43449D01*
X147223Y43484D01*
X147248Y43515D01*
X147299Y43623D01*
X147357Y43727D01*
X147367Y43767D01*
X147384Y43803D01*
X147406Y43920D01*
X147436Y44035D01*
X147440Y44095D01*
X147444Y44115D01*
X147442Y44136D01*
X147446Y44196D01*
X147446Y44704D01*
X147431Y44822D01*
X147424Y44941D01*
X147411Y44979D01*
X147406Y45020D01*
X147363Y45130D01*
X147326Y45243D01*
X147304Y45278D01*
X147289Y45315D01*
X147220Y45411D01*
X147156Y45512D01*
X147126Y45540D01*
X147103Y45573D01*
X147011Y45649D01*
X146924Y45730D01*
X146889Y45750D01*
X146858Y45775D01*
X146750Y45826D01*
X146646Y45884D01*
X146606Y45894D01*
X146570Y45911D01*
X146453Y45933D01*
X146338Y45963D01*
X146278Y45967D01*
X146258Y45971D01*
X146237Y45969D01*
X146177Y45973D01*
X136274Y45973D01*
X135381Y46866D01*
X135381Y54730D01*
X135369Y54828D01*
X135366Y54927D01*
X135349Y54986D01*
X135341Y55046D01*
X135305Y55138D01*
X135277Y55233D01*
X135247Y55285D01*
X135224Y55341D01*
X135166Y55421D01*
X135116Y55507D01*
X135050Y55582D01*
X135038Y55599D01*
X135028Y55607D01*
X135009Y55628D01*
X134045Y56592D01*
X134045Y56593D01*
X132333Y58304D01*
X132333Y85810D01*
X132317Y85935D01*
X132308Y86060D01*
X132298Y86092D01*
X132293Y86125D01*
X132247Y86242D01*
X132207Y86361D01*
X132189Y86390D01*
X132176Y86421D01*
X132103Y86523D01*
X132034Y86628D01*
X132009Y86651D01*
X131990Y86678D01*
X131893Y86759D01*
X131800Y86844D01*
X131771Y86860D01*
X131745Y86881D01*
X131631Y86935D01*
X131520Y86994D01*
X131487Y87002D01*
X131457Y87017D01*
X131334Y87040D01*
X131211Y87070D01*
X131178Y87070D01*
X131145Y87076D01*
X131019Y87069D01*
X130893Y87067D01*
X130845Y87058D01*
X130827Y87057D01*
X130807Y87050D01*
X130735Y87036D01*
X130263Y86909D01*
X124369Y86909D01*
X124369Y91850D01*
X124354Y91968D01*
X124347Y92087D01*
X124335Y92125D01*
X124330Y92165D01*
X124286Y92276D01*
X124249Y92389D01*
X124227Y92423D01*
X124213Y92461D01*
X124143Y92557D01*
X124079Y92658D01*
X124078Y92658D01*
X124049Y92686D01*
X124026Y92718D01*
X124025Y92719D01*
X123933Y92795D01*
X123847Y92876D01*
X123811Y92896D01*
X123780Y92922D01*
X123673Y92972D01*
X123568Y93030D01*
X123529Y93040D01*
X123493Y93057D01*
X123376Y93079D01*
X123260Y93109D01*
X123200Y93113D01*
X123180Y93117D01*
X123160Y93116D01*
X123100Y93119D01*
X113209Y93119D01*
X113209Y94064D01*
X113317Y94466D01*
X113334Y94590D01*
X113358Y94714D01*
X113356Y94747D01*
X113360Y94781D01*
X113346Y94906D01*
X113338Y95031D01*
X113328Y95063D01*
X113324Y95097D01*
X113279Y95214D01*
X113240Y95333D01*
X113222Y95362D01*
X113210Y95393D01*
X113137Y95496D01*
X113070Y95602D01*
X113045Y95625D01*
X113026Y95653D01*
X112930Y95734D01*
X112838Y95820D01*
X112809Y95836D01*
X112783Y95858D01*
X112670Y95913D01*
X112560Y95974D01*
X112527Y95982D01*
X112497Y95997D01*
X112373Y96022D01*
X112252Y96053D01*
X112203Y96056D01*
X112185Y96060D01*
X112163Y96059D01*
X112091Y96063D01*
X103903Y96063D01*
X103545Y96422D01*
X103466Y96482D01*
X103394Y96550D01*
X103341Y96579D01*
X103293Y96616D01*
X103202Y96656D01*
X103116Y96704D01*
X103057Y96719D01*
X103001Y96743D01*
X102903Y96758D01*
X102808Y96783D01*
X102708Y96789D01*
X102687Y96793D01*
X102675Y96791D01*
X102647Y96793D01*
X100644Y96793D01*
X100217Y96970D01*
X100150Y96988D01*
X100086Y97016D01*
X99997Y97030D01*
X99911Y97054D01*
X99841Y97055D01*
X99772Y97066D01*
X99682Y97058D01*
X99593Y97059D01*
X99525Y97043D01*
X99455Y97036D01*
X99371Y97006D01*
X99283Y96985D01*
X99222Y96952D01*
X99156Y96929D01*
X99082Y96878D01*
X99002Y96836D01*
X98951Y96789D01*
X98893Y96750D01*
X98833Y96683D01*
X98767Y96622D01*
X98729Y96564D01*
X98682Y96512D01*
X98642Y96432D01*
X98592Y96356D01*
X98569Y96290D01*
X98538Y96228D01*
X98518Y96141D01*
X98489Y96056D01*
X98483Y95986D01*
X98468Y95918D01*
X98471Y95828D01*
X98464Y95739D01*
X98476Y95670D01*
X98478Y95600D01*
X98503Y95514D01*
X98518Y95425D01*
X98547Y95362D01*
X98566Y95295D01*
X98612Y95217D01*
X98649Y95135D01*
X98692Y95081D01*
X98728Y95021D01*
X98834Y94900D01*
X118107Y75627D01*
X118107Y62609D01*
X118122Y62491D01*
X118129Y62372D01*
X118142Y62334D01*
X118147Y62293D01*
X118190Y62183D01*
X118227Y62070D01*
X118249Y62035D01*
X118264Y61998D01*
X118333Y61902D01*
X118397Y61801D01*
X118427Y61773D01*
X118450Y61740D01*
X118542Y61664D01*
X118629Y61583D01*
X118664Y61563D01*
X118695Y61538D01*
X118803Y61487D01*
X118907Y61429D01*
X118947Y61419D01*
X118983Y61402D01*
X119100Y61380D01*
X119215Y61350D01*
X119275Y61346D01*
X119295Y61342D01*
X119316Y61344D01*
X119376Y61340D01*
X124452Y61340D01*
X125345Y60447D01*
X125345Y41153D01*
X124452Y40260D01*
X107188Y40260D01*
X106295Y41153D01*
X106295Y60447D01*
X107188Y61340D01*
X112264Y61340D01*
X112382Y61355D01*
X112501Y61362D01*
X112539Y61375D01*
X112580Y61380D01*
X112690Y61423D01*
X112803Y61460D01*
X112838Y61482D01*
X112875Y61497D01*
X112971Y61566D01*
X113072Y61630D01*
X113100Y61660D01*
X113133Y61683D01*
X113209Y61775D01*
X113290Y61862D01*
X113310Y61897D01*
X113335Y61928D01*
X113386Y62036D01*
X113444Y62140D01*
X113454Y62180D01*
X113471Y62216D01*
X113493Y62333D01*
X113523Y62448D01*
X113527Y62508D01*
X113531Y62528D01*
X113529Y62549D01*
X113533Y62609D01*
X113533Y73207D01*
X113521Y73305D01*
X113518Y73404D01*
X113501Y73462D01*
X113493Y73523D01*
X113457Y73615D01*
X113429Y73710D01*
X113399Y73762D01*
X113376Y73818D01*
X113318Y73898D01*
X113268Y73984D01*
X113202Y74059D01*
X113190Y74076D01*
X113180Y74083D01*
X113162Y74105D01*
X91575Y95692D01*
X91496Y95752D01*
X91424Y95820D01*
X91371Y95849D01*
X91323Y95886D01*
X91232Y95926D01*
X91146Y95974D01*
X91087Y95989D01*
X91031Y96013D01*
X90933Y96028D01*
X90838Y96053D01*
X90738Y96059D01*
X90717Y96063D01*
X90705Y96061D01*
X90677Y96063D01*
X90244Y96063D01*
X90126Y96048D01*
X90007Y96041D01*
X89969Y96028D01*
X89928Y96023D01*
X89818Y95980D01*
X89705Y95943D01*
X89670Y95921D01*
X89633Y95906D01*
X89537Y95837D01*
X89436Y95773D01*
X89408Y95743D01*
X89375Y95720D01*
X89299Y95628D01*
X89218Y95541D01*
X89198Y95506D01*
X89173Y95475D01*
X89122Y95367D01*
X89064Y95263D01*
X89054Y95223D01*
X89037Y95187D01*
X89015Y95070D01*
X88985Y94955D01*
X88981Y94895D01*
X88977Y94875D01*
X88979Y94854D01*
X88975Y94794D01*
X88975Y89170D01*
X88751Y88946D01*
X88678Y88852D01*
X88599Y88763D01*
X88581Y88727D01*
X88556Y88695D01*
X88509Y88586D01*
X88455Y88480D01*
X88446Y88440D01*
X88430Y88403D01*
X88411Y88285D01*
X88385Y88169D01*
X88386Y88129D01*
X88380Y88089D01*
X88391Y87970D01*
X88395Y87852D01*
X88406Y87813D01*
X88410Y87772D01*
X88450Y87660D01*
X88483Y87546D01*
X88504Y87511D01*
X88517Y87473D01*
X88584Y87375D01*
X88645Y87272D01*
X88684Y87227D01*
X88696Y87210D01*
X88711Y87197D01*
X88751Y87151D01*
X90175Y85728D01*
X90175Y82264D01*
X90178Y82235D01*
X90176Y82205D01*
X90198Y82077D01*
X90215Y81949D01*
X90225Y81921D01*
X90230Y81892D01*
X90284Y81773D01*
X90332Y81653D01*
X90349Y81629D01*
X90361Y81602D01*
X90442Y81501D01*
X90518Y81395D01*
X90541Y81377D01*
X90560Y81354D01*
X90663Y81275D01*
X90763Y81193D01*
X90790Y81180D01*
X90814Y81162D01*
X90958Y81091D01*
X91906Y80699D01*
X93399Y79206D01*
X94207Y77256D01*
X94207Y75144D01*
X93399Y73194D01*
X91906Y71701D01*
X90958Y71309D01*
X90933Y71294D01*
X90905Y71285D01*
X90795Y71215D01*
X90682Y71151D01*
X90661Y71131D01*
X90636Y71115D01*
X90547Y71020D01*
X90454Y70930D01*
X90438Y70905D01*
X90418Y70883D01*
X90355Y70769D01*
X90287Y70659D01*
X90279Y70630D01*
X90264Y70605D01*
X90232Y70479D01*
X90194Y70355D01*
X90192Y70325D01*
X90185Y70297D01*
X90175Y70136D01*
X90175Y62609D01*
X90190Y62491D01*
X90197Y62372D01*
X90210Y62334D01*
X90215Y62293D01*
X90258Y62183D01*
X90295Y62070D01*
X90317Y62035D01*
X90332Y61998D01*
X90401Y61902D01*
X90465Y61801D01*
X90495Y61773D01*
X90518Y61740D01*
X90610Y61664D01*
X90697Y61583D01*
X90732Y61563D01*
X90763Y61538D01*
X90871Y61487D01*
X90975Y61429D01*
X91015Y61419D01*
X91051Y61402D01*
X91168Y61380D01*
X91283Y61350D01*
X91343Y61346D01*
X91363Y61342D01*
X91384Y61344D01*
X91444Y61340D01*
X96012Y61340D01*
X96905Y60447D01*
X96905Y41153D01*
X96012Y40260D01*
X78748Y40260D01*
X77855Y41153D01*
X77855Y60447D01*
X78748Y61340D01*
X83316Y61340D01*
X83434Y61355D01*
X83553Y61362D01*
X83591Y61375D01*
X83632Y61380D01*
X83742Y61423D01*
X83855Y61460D01*
X83890Y61482D01*
X83927Y61497D01*
X84023Y61566D01*
X84124Y61630D01*
X84152Y61660D01*
X84185Y61683D01*
X84261Y61775D01*
X84342Y61862D01*
X84362Y61897D01*
X84387Y61928D01*
X84438Y62036D01*
X84496Y62140D01*
X84506Y62180D01*
X84523Y62216D01*
X84545Y62333D01*
X84575Y62448D01*
X84579Y62508D01*
X84583Y62528D01*
X84581Y62549D01*
X84585Y62609D01*
X84585Y72497D01*
X84584Y72506D01*
X84585Y72515D01*
X84564Y72664D01*
X84545Y72813D01*
X84542Y72821D01*
X84541Y72830D01*
X84489Y72983D01*
X83593Y75144D01*
X83593Y77256D01*
X84489Y79417D01*
X84491Y79426D01*
X84496Y79434D01*
X84533Y79580D01*
X84573Y79724D01*
X84573Y79733D01*
X84575Y79742D01*
X84585Y79903D01*
X84585Y82887D01*
X84573Y82985D01*
X84570Y83084D01*
X84553Y83142D01*
X84545Y83202D01*
X84509Y83294D01*
X84481Y83389D01*
X84451Y83442D01*
X84428Y83498D01*
X84370Y83578D01*
X84320Y83663D01*
X84254Y83739D01*
X84242Y83755D01*
X84232Y83763D01*
X84214Y83784D01*
X80444Y87554D01*
X80366Y87614D01*
X80294Y87682D01*
X80241Y87711D01*
X80193Y87748D01*
X80102Y87788D01*
X80015Y87836D01*
X79957Y87851D01*
X79901Y87875D01*
X79803Y87890D01*
X79707Y87915D01*
X79607Y87921D01*
X79587Y87925D01*
X79575Y87923D01*
X79547Y87925D01*
X72470Y87925D01*
X71225Y89170D01*
X71225Y94785D01*
X71238Y94864D01*
X71264Y94980D01*
X71263Y95020D01*
X71269Y95060D01*
X71258Y95179D01*
X71254Y95298D01*
X71243Y95336D01*
X71239Y95376D01*
X71225Y95415D01*
X71225Y101294D01*
X71210Y101412D01*
X71203Y101531D01*
X71190Y101569D01*
X71185Y101610D01*
X71142Y101720D01*
X71105Y101833D01*
X71083Y101868D01*
X71068Y101905D01*
X70999Y102001D01*
X70935Y102102D01*
X70905Y102130D01*
X70882Y102163D01*
X70790Y102239D01*
X70703Y102320D01*
X70668Y102340D01*
X70637Y102365D01*
X70529Y102416D01*
X70425Y102474D01*
X70385Y102484D01*
X70349Y102501D01*
X70232Y102523D01*
X70117Y102553D01*
X70057Y102557D01*
X70037Y102561D01*
X70016Y102559D01*
X69956Y102563D01*
X62894Y102563D01*
X62776Y102548D01*
X62657Y102541D01*
X62619Y102528D01*
X62578Y102523D01*
X62468Y102480D01*
X62355Y102443D01*
X62320Y102421D01*
X62283Y102406D01*
X62187Y102337D01*
X62086Y102273D01*
X62058Y102243D01*
X62025Y102220D01*
X61949Y102128D01*
X61868Y102041D01*
X61848Y102006D01*
X61823Y101975D01*
X61772Y101867D01*
X61714Y101763D01*
X61704Y101723D01*
X61687Y101687D01*
X61665Y101570D01*
X61635Y101455D01*
X61631Y101395D01*
X61627Y101375D01*
X61629Y101354D01*
X61625Y101294D01*
X61625Y91968D01*
X60732Y91075D01*
X43468Y91075D01*
X42575Y91968D01*
X42575Y111232D01*
X43468Y112125D01*
X60732Y112125D01*
X61625Y111232D01*
X61625Y108406D01*
X61640Y108288D01*
X61647Y108169D01*
X61660Y108131D01*
X61665Y108090D01*
X61709Y107979D01*
X61745Y107867D01*
X61767Y107832D01*
X61782Y107795D01*
X61851Y107699D01*
X61915Y107598D01*
X61945Y107570D01*
X61968Y107537D01*
X62060Y107461D01*
X62147Y107380D01*
X62182Y107360D01*
X62213Y107335D01*
X62321Y107284D01*
X62425Y107226D01*
X62465Y107216D01*
X62501Y107199D01*
X62618Y107177D01*
X62733Y107147D01*
X62793Y107143D01*
X62813Y107139D01*
X62834Y107141D01*
X62894Y107137D01*
X69956Y107137D01*
X70074Y107152D01*
X70193Y107159D01*
X70231Y107172D01*
X70272Y107177D01*
X70382Y107220D01*
X70495Y107257D01*
X70530Y107279D01*
X70567Y107294D01*
X70663Y107363D01*
X70764Y107427D01*
X70792Y107457D01*
X70825Y107480D01*
X70901Y107572D01*
X70982Y107659D01*
X71002Y107694D01*
X71027Y107725D01*
X71078Y107833D01*
X71136Y107937D01*
X71146Y107977D01*
X71163Y108013D01*
X71185Y108130D01*
X71215Y108245D01*
X71219Y108305D01*
X71223Y108325D01*
X71221Y108346D01*
X71225Y108406D01*
X71225Y114030D01*
X72483Y115288D01*
X72556Y115382D01*
X72635Y115471D01*
X72653Y115507D01*
X72678Y115539D01*
X72725Y115649D01*
X72779Y115755D01*
X72788Y115794D01*
X72804Y115831D01*
X72823Y115949D01*
X72849Y116065D01*
X72848Y116105D01*
X72854Y116145D01*
X72843Y116264D01*
X72839Y116383D01*
X72828Y116422D01*
X72824Y116462D01*
X72784Y116574D01*
X72751Y116688D01*
X72731Y116723D01*
X72717Y116761D01*
X72650Y116860D01*
X72590Y116962D01*
X72550Y117007D01*
X72538Y117024D01*
X72523Y117038D01*
X72483Y117083D01*
X61763Y127804D01*
X61684Y127864D01*
X61612Y127932D01*
X61559Y127961D01*
X61511Y127998D01*
X61420Y128038D01*
X61334Y128086D01*
X61275Y128101D01*
X61219Y128125D01*
X61121Y128140D01*
X61026Y128165D01*
X60926Y128171D01*
X60905Y128175D01*
X60893Y128173D01*
X60865Y128175D01*
X44968Y128175D01*
X44075Y129068D01*
X44075Y150332D01*
X44968Y151225D01*
X61232Y151225D01*
X62125Y150332D01*
X62125Y134435D01*
X62137Y134337D01*
X62140Y134238D01*
X62157Y134180D01*
X62165Y134119D01*
X62201Y134027D01*
X62229Y133932D01*
X62259Y133880D01*
X62282Y133824D01*
X62340Y133744D01*
X62390Y133658D01*
X62456Y133583D01*
X62468Y133566D01*
X62478Y133559D01*
X62496Y133537D01*
X80387Y115646D01*
X80466Y115586D01*
X80538Y115518D01*
X80591Y115489D01*
X80639Y115452D01*
X80730Y115412D01*
X80816Y115364D01*
X80875Y115349D01*
X80931Y115325D01*
X81029Y115310D01*
X81124Y115285D01*
X81224Y115279D01*
X81245Y115275D01*
X81257Y115277D01*
X81285Y115275D01*
X87730Y115275D01*
X88975Y114030D01*
X88975Y108415D01*
X88962Y108337D01*
X88936Y108221D01*
X88938Y108180D01*
X88931Y108141D01*
X88942Y108022D01*
X88946Y107903D01*
X88957Y107864D01*
X88961Y107824D01*
X88975Y107786D01*
X88975Y101906D01*
X88990Y101788D01*
X88997Y101669D01*
X89010Y101631D01*
X89015Y101590D01*
X89058Y101480D01*
X89095Y101367D01*
X89117Y101332D01*
X89132Y101295D01*
X89201Y101199D01*
X89265Y101098D01*
X89295Y101070D01*
X89318Y101037D01*
X89410Y100961D01*
X89497Y100880D01*
X89532Y100860D01*
X89563Y100835D01*
X89671Y100784D01*
X89775Y100726D01*
X89815Y100716D01*
X89851Y100699D01*
X89968Y100677D01*
X90083Y100647D01*
X90143Y100643D01*
X90163Y100639D01*
X90184Y100641D01*
X90244Y100637D01*
X93097Y100637D01*
X94900Y98834D01*
X94955Y98791D01*
X95004Y98741D01*
X95080Y98694D01*
X95151Y98639D01*
X95215Y98611D01*
X95275Y98575D01*
X95360Y98549D01*
X95443Y98513D01*
X95512Y98502D01*
X95579Y98481D01*
X95668Y98477D01*
X95757Y98463D01*
X95827Y98470D01*
X95896Y98466D01*
X95984Y98484D01*
X96074Y98493D01*
X96140Y98516D01*
X96208Y98531D01*
X96288Y98570D01*
X96373Y98600D01*
X96431Y98640D01*
X96493Y98670D01*
X96562Y98728D01*
X96636Y98779D01*
X96682Y98831D01*
X96735Y98877D01*
X96787Y98950D01*
X96847Y99017D01*
X96878Y99080D01*
X96918Y99137D01*
X96950Y99221D01*
X96991Y99301D01*
X97006Y99369D01*
X97031Y99434D01*
X97041Y99523D01*
X97061Y99611D01*
X97059Y99681D01*
X97066Y99750D01*
X97054Y99839D01*
X97051Y99929D01*
X97032Y99996D01*
X97022Y100065D01*
X96970Y100217D01*
X96793Y100644D01*
X96793Y102556D01*
X97525Y104323D01*
X98877Y105675D01*
X100644Y106407D01*
X102556Y106407D01*
X104323Y105675D01*
X105675Y104323D01*
X106407Y102556D01*
X106407Y101906D01*
X106422Y101788D01*
X106429Y101669D01*
X106442Y101631D01*
X106447Y101590D01*
X106490Y101480D01*
X106527Y101367D01*
X106549Y101332D01*
X106564Y101295D01*
X106633Y101199D01*
X106697Y101098D01*
X106727Y101070D01*
X106750Y101037D01*
X106842Y100961D01*
X106929Y100880D01*
X106964Y100860D01*
X106995Y100835D01*
X107103Y100784D01*
X107207Y100726D01*
X107247Y100716D01*
X107283Y100699D01*
X107400Y100677D01*
X107515Y100647D01*
X107575Y100643D01*
X107595Y100639D01*
X107616Y100641D01*
X107676Y100637D01*
X112956Y100637D01*
X113074Y100652D01*
X113193Y100659D01*
X113231Y100672D01*
X113272Y100677D01*
X113382Y100720D01*
X113495Y100757D01*
X113530Y100779D01*
X113567Y100794D01*
X113663Y100863D01*
X113764Y100927D01*
X113792Y100957D01*
X113825Y100980D01*
X113901Y101072D01*
X113982Y101159D01*
X114002Y101194D01*
X114027Y101225D01*
X114078Y101333D01*
X114136Y101437D01*
X114146Y101477D01*
X114163Y101513D01*
X114185Y101630D01*
X114215Y101745D01*
X114219Y101805D01*
X114223Y101825D01*
X114221Y101846D01*
X114225Y101906D01*
X114225Y107785D01*
X114238Y107863D01*
X114264Y107979D01*
X114262Y108020D01*
X114269Y108059D01*
X114258Y108178D01*
X114254Y108297D01*
X114243Y108336D01*
X114239Y108376D01*
X114225Y108414D01*
X114225Y114030D01*
X115470Y115275D01*
X122197Y115275D01*
X122295Y115287D01*
X122394Y115290D01*
X122452Y115307D01*
X122512Y115315D01*
X122604Y115351D01*
X122699Y115379D01*
X122752Y115409D01*
X122808Y115432D01*
X122888Y115490D01*
X122973Y115540D01*
X123049Y115606D01*
X123065Y115618D01*
X123073Y115628D01*
X123094Y115646D01*
X141204Y133756D01*
X141264Y133834D01*
X141332Y133906D01*
X141361Y133959D01*
X141398Y134007D01*
X141438Y134098D01*
X141486Y134185D01*
X141501Y134243D01*
X141525Y134299D01*
X141540Y134397D01*
X141565Y134493D01*
X141571Y134593D01*
X141575Y134613D01*
X141573Y134625D01*
X141575Y134653D01*
X141575Y135636D01*
X141560Y135754D01*
X141553Y135873D01*
X141540Y135911D01*
X141535Y135952D01*
X141492Y136062D01*
X141455Y136175D01*
X141433Y136210D01*
X141418Y136247D01*
X141349Y136343D01*
X141285Y136444D01*
X141255Y136472D01*
X141232Y136505D01*
X141140Y136581D01*
X141053Y136662D01*
X141018Y136682D01*
X140987Y136707D01*
X140879Y136758D01*
X140775Y136816D01*
X140735Y136826D01*
X140699Y136843D01*
X140582Y136865D01*
X140467Y136895D01*
X140407Y136899D01*
X140387Y136903D01*
X140366Y136901D01*
X140306Y136905D01*
X135394Y136905D01*
X128307Y143992D01*
X128198Y144077D01*
X128091Y144165D01*
X128072Y144174D01*
X128056Y144186D01*
X127928Y144242D01*
X127803Y144301D01*
X127783Y144305D01*
X127764Y144313D01*
X127626Y144335D01*
X127490Y144361D01*
X127470Y144359D01*
X127450Y144363D01*
X127311Y144350D01*
X127173Y144341D01*
X127154Y144335D01*
X127134Y144333D01*
X127002Y144286D01*
X126871Y144243D01*
X126853Y144232D01*
X126834Y144225D01*
X126719Y144147D01*
X126602Y144073D01*
X126588Y144058D01*
X126571Y144047D01*
X126479Y143942D01*
X126384Y143841D01*
X126374Y143823D01*
X126361Y143808D01*
X126297Y143684D01*
X126230Y143563D01*
X126225Y143543D01*
X126216Y143525D01*
X126186Y143389D01*
X126151Y143255D01*
X126149Y143227D01*
X126146Y143215D01*
X126147Y143194D01*
X126141Y143094D01*
X126141Y142239D01*
X116870Y142239D01*
X116752Y142224D01*
X116633Y142217D01*
X116595Y142204D01*
X116555Y142199D01*
X116444Y142155D01*
X116331Y142119D01*
X116296Y142097D01*
X116259Y142082D01*
X116163Y142012D01*
X116062Y141949D01*
X116034Y141919D01*
X116002Y141895D01*
X115926Y141804D01*
X115844Y141717D01*
X115825Y141682D01*
X115799Y141650D01*
X115748Y141543D01*
X115691Y141439D01*
X115680Y141399D01*
X115663Y141363D01*
X115641Y141246D01*
X115611Y141131D01*
X115607Y141070D01*
X115603Y141050D01*
X115605Y141030D01*
X115601Y140970D01*
X115601Y139699D01*
X115599Y139699D01*
X115599Y140970D01*
X115584Y141088D01*
X115577Y141207D01*
X115564Y141245D01*
X115559Y141285D01*
X115515Y141396D01*
X115479Y141509D01*
X115457Y141544D01*
X115442Y141581D01*
X115372Y141677D01*
X115309Y141778D01*
X115279Y141806D01*
X115255Y141838D01*
X115164Y141914D01*
X115077Y141996D01*
X115042Y142015D01*
X115010Y142041D01*
X114903Y142092D01*
X114799Y142149D01*
X114759Y142160D01*
X114723Y142177D01*
X114606Y142199D01*
X114491Y142229D01*
X114430Y142233D01*
X114410Y142237D01*
X114390Y142235D01*
X114330Y142239D01*
X105059Y142239D01*
X105059Y143094D01*
X105042Y143232D01*
X105029Y143370D01*
X105022Y143389D01*
X105019Y143410D01*
X104968Y143539D01*
X104921Y143670D01*
X104910Y143686D01*
X104902Y143705D01*
X104821Y143818D01*
X104743Y143933D01*
X104727Y143946D01*
X104716Y143963D01*
X104608Y144051D01*
X104504Y144143D01*
X104486Y144152D01*
X104471Y144165D01*
X104345Y144225D01*
X104221Y144288D01*
X104201Y144292D01*
X104183Y144301D01*
X104047Y144327D01*
X103911Y144358D01*
X103890Y144357D01*
X103871Y144361D01*
X103732Y144352D01*
X103593Y144348D01*
X103573Y144342D01*
X103553Y144341D01*
X103421Y144298D01*
X103287Y144259D01*
X103270Y144249D01*
X103251Y144243D01*
X103133Y144168D01*
X103013Y144098D01*
X102992Y144079D01*
X102982Y144073D01*
X102968Y144058D01*
X102893Y143992D01*
X97496Y138595D01*
X97436Y138517D01*
X97368Y138445D01*
X97339Y138392D01*
X97302Y138344D01*
X97262Y138253D01*
X97214Y138167D01*
X97199Y138108D01*
X97175Y138052D01*
X97160Y137954D01*
X97135Y137859D01*
X97129Y137759D01*
X97125Y137738D01*
X97127Y137726D01*
X97125Y137698D01*
X97125Y130068D01*
X96232Y129175D01*
X95476Y129175D01*
X95358Y129160D01*
X95239Y129153D01*
X95201Y129140D01*
X95160Y129135D01*
X95050Y129092D01*
X94937Y129055D01*
X94902Y129033D01*
X94865Y129018D01*
X94769Y128949D01*
X94668Y128885D01*
X94640Y128855D01*
X94607Y128832D01*
X94531Y128740D01*
X94450Y128653D01*
X94430Y128618D01*
X94405Y128587D01*
X94354Y128479D01*
X94296Y128375D01*
X94286Y128335D01*
X94269Y128299D01*
X94247Y128182D01*
X94217Y128067D01*
X94213Y128007D01*
X94209Y127987D01*
X94211Y127966D01*
X94207Y127906D01*
X94207Y125944D01*
X93399Y123994D01*
X91906Y122501D01*
X89956Y121693D01*
X87844Y121693D01*
X85894Y122501D01*
X84401Y123994D01*
X83593Y125944D01*
X83593Y127906D01*
X83578Y128024D01*
X83571Y128143D01*
X83558Y128181D01*
X83553Y128222D01*
X83510Y128332D01*
X83473Y128445D01*
X83451Y128480D01*
X83436Y128517D01*
X83367Y128613D01*
X83303Y128714D01*
X83273Y128742D01*
X83250Y128775D01*
X83158Y128851D01*
X83071Y128932D01*
X83036Y128952D01*
X83005Y128977D01*
X82897Y129028D01*
X82793Y129086D01*
X82753Y129096D01*
X82717Y129113D01*
X82600Y129135D01*
X82485Y129165D01*
X82425Y129169D01*
X82405Y129173D01*
X82384Y129171D01*
X82324Y129175D01*
X78968Y129175D01*
X78075Y130068D01*
X78075Y146047D01*
X78063Y146145D01*
X78060Y146244D01*
X78043Y146302D01*
X78035Y146362D01*
X77999Y146454D01*
X77971Y146549D01*
X77941Y146602D01*
X77918Y146658D01*
X77860Y146738D01*
X77810Y146823D01*
X77744Y146899D01*
X77732Y146915D01*
X77722Y146923D01*
X77704Y146944D01*
X67794Y156854D01*
X67716Y156914D01*
X67644Y156982D01*
X67591Y157011D01*
X67543Y157048D01*
X67452Y157088D01*
X67365Y157136D01*
X67307Y157151D01*
X67251Y157175D01*
X67153Y157190D01*
X67057Y157215D01*
X66957Y157221D01*
X66937Y157225D01*
X66925Y157223D01*
X66897Y157225D01*
X50168Y157225D01*
X49275Y158118D01*
X49275Y172082D01*
X50168Y172975D01*
X76832Y172975D01*
X77725Y172082D01*
X77725Y158118D01*
X76977Y157371D01*
X76904Y157277D01*
X76825Y157187D01*
X76807Y157151D01*
X76782Y157119D01*
X76735Y157010D01*
X76680Y156904D01*
X76672Y156865D01*
X76656Y156827D01*
X76637Y156710D01*
X76611Y156594D01*
X76612Y156553D01*
X76606Y156513D01*
X76617Y156395D01*
X76620Y156276D01*
X76632Y156237D01*
X76635Y156197D01*
X76676Y156084D01*
X76709Y155970D01*
X76729Y155936D01*
X76743Y155897D01*
X76810Y155799D01*
X76870Y155696D01*
X76910Y155651D01*
X76922Y155634D01*
X76937Y155621D01*
X76977Y155576D01*
X81956Y150596D01*
X82034Y150536D01*
X82106Y150468D01*
X82159Y150439D01*
X82207Y150402D01*
X82298Y150362D01*
X82385Y150314D01*
X82443Y150299D01*
X82499Y150275D01*
X82597Y150260D01*
X82693Y150235D01*
X82793Y150229D01*
X82813Y150225D01*
X82825Y150227D01*
X82853Y150225D01*
X96232Y150225D01*
X97125Y149332D01*
X97125Y149193D01*
X97142Y149055D01*
X97155Y148916D01*
X97162Y148897D01*
X97165Y148877D01*
X97216Y148748D01*
X97263Y148617D01*
X97274Y148600D01*
X97282Y148581D01*
X97363Y148469D01*
X97441Y148354D01*
X97457Y148340D01*
X97468Y148324D01*
X97576Y148235D01*
X97680Y148143D01*
X97698Y148134D01*
X97713Y148121D01*
X97839Y148062D01*
X97963Y147999D01*
X97983Y147994D01*
X98001Y147986D01*
X98137Y147960D01*
X98273Y147929D01*
X98294Y147930D01*
X98313Y147926D01*
X98452Y147935D01*
X98591Y147939D01*
X98611Y147944D01*
X98631Y147946D01*
X98763Y147988D01*
X98897Y148027D01*
X98914Y148037D01*
X98933Y148044D01*
X99051Y148118D01*
X99171Y148189D01*
X99192Y148207D01*
X99202Y148214D01*
X99216Y148229D01*
X99291Y148295D01*
X105285Y154289D01*
X125915Y154289D01*
X137337Y142866D01*
X137415Y142806D01*
X137488Y142738D01*
X137541Y142709D01*
X137588Y142672D01*
X137679Y142632D01*
X137766Y142584D01*
X137825Y142569D01*
X137880Y142545D01*
X137978Y142530D01*
X138074Y142505D01*
X138174Y142499D01*
X138194Y142495D01*
X138207Y142497D01*
X138235Y142495D01*
X140306Y142495D01*
X140424Y142510D01*
X140543Y142517D01*
X140581Y142530D01*
X140622Y142535D01*
X140732Y142578D01*
X140845Y142615D01*
X140880Y142637D01*
X140917Y142652D01*
X141013Y142721D01*
X141114Y142785D01*
X141142Y142815D01*
X141175Y142838D01*
X141251Y142930D01*
X141332Y143017D01*
X141352Y143052D01*
X141377Y143083D01*
X141428Y143191D01*
X141486Y143295D01*
X141496Y143335D01*
X141513Y143371D01*
X141535Y143488D01*
X141565Y143603D01*
X141569Y143663D01*
X141573Y143683D01*
X141571Y143704D01*
X141575Y143764D01*
X141575Y149332D01*
X142468Y150225D01*
X159732Y150225D01*
X160625Y149332D01*
X160625Y141702D01*
X160637Y141604D01*
X160640Y141505D01*
X160657Y141447D01*
X160665Y141387D01*
X160701Y141294D01*
X160729Y141199D01*
X160759Y141147D01*
X160782Y141091D01*
X160840Y141011D01*
X160890Y140925D01*
X160956Y140850D01*
X160968Y140833D01*
X160978Y140826D01*
X160996Y140805D01*
X166393Y135408D01*
X166502Y135323D01*
X166609Y135235D01*
X166628Y135226D01*
X166644Y135214D01*
X166772Y135158D01*
X166897Y135099D01*
X166917Y135095D01*
X166936Y135087D01*
X167074Y135065D01*
X167210Y135039D01*
X167230Y135041D01*
X167250Y135037D01*
X167389Y135050D01*
X167527Y135059D01*
X167546Y135065D01*
X167566Y135067D01*
X167698Y135114D01*
X167829Y135157D01*
X167847Y135168D01*
X167866Y135175D01*
X167981Y135253D01*
X168098Y135327D01*
X168112Y135342D01*
X168129Y135353D01*
X168221Y135458D01*
X168316Y135559D01*
X168326Y135577D01*
X168339Y135592D01*
X168403Y135716D01*
X168470Y135837D01*
X168475Y135857D01*
X168484Y135875D01*
X168514Y136011D01*
X168549Y136145D01*
X168551Y136173D01*
X168554Y136185D01*
X168553Y136206D01*
X168559Y136306D01*
X168559Y137161D01*
X177830Y137161D01*
X177948Y137176D01*
X178067Y137183D01*
X178105Y137196D01*
X178145Y137201D01*
X178256Y137244D01*
X178369Y137281D01*
X178404Y137303D01*
X178441Y137318D01*
X178537Y137388D01*
X178638Y137451D01*
X178666Y137481D01*
X178698Y137505D01*
X178774Y137596D01*
X178856Y137683D01*
X178875Y137718D01*
X178901Y137749D01*
X178952Y137857D01*
X179009Y137961D01*
X179020Y138001D01*
X179037Y138037D01*
X179059Y138154D01*
X179089Y138269D01*
X179093Y138330D01*
X179097Y138350D01*
X179095Y138370D01*
X179099Y138430D01*
X179099Y139701D01*
X179101Y139701D01*
X179101Y138430D01*
X179116Y138312D01*
X179123Y138193D01*
X179136Y138155D01*
X179141Y138115D01*
X179185Y138004D01*
X179221Y137891D01*
X179243Y137856D01*
X179258Y137819D01*
X179328Y137723D01*
X179391Y137622D01*
X179421Y137594D01*
X179445Y137561D01*
X179536Y137486D01*
X179623Y137404D01*
X179658Y137384D01*
X179690Y137359D01*
X179797Y137308D01*
X179901Y137250D01*
X179941Y137240D01*
X179977Y137223D01*
X180094Y137201D01*
X180209Y137171D01*
X180270Y137167D01*
X180290Y137163D01*
X180310Y137165D01*
X180370Y137161D01*
X189641Y137161D01*
X189641Y130366D01*
X189468Y129719D01*
X189133Y129140D01*
X188660Y128667D01*
X188038Y128308D01*
X187938Y128232D01*
X187834Y128161D01*
X187812Y128136D01*
X187785Y128116D01*
X187707Y128017D01*
X187623Y127923D01*
X187608Y127893D01*
X187587Y127866D01*
X187536Y127751D01*
X187479Y127640D01*
X187471Y127607D01*
X187458Y127576D01*
X187437Y127452D01*
X187409Y127329D01*
X187410Y127296D01*
X187405Y127262D01*
X187415Y127137D01*
X187419Y127011D01*
X187428Y126979D01*
X187431Y126945D01*
X187472Y126827D01*
X187507Y126706D01*
X187524Y126677D01*
X187535Y126645D01*
X187605Y126540D01*
X187669Y126432D01*
X187701Y126395D01*
X187711Y126380D01*
X187727Y126366D01*
X187775Y126311D01*
X207288Y106798D01*
X207366Y106738D01*
X207438Y106670D01*
X207491Y106641D01*
X207539Y106604D01*
X207630Y106564D01*
X207717Y106516D01*
X207775Y106501D01*
X207831Y106477D01*
X207929Y106462D01*
X208025Y106437D01*
X208125Y106431D01*
X208145Y106427D01*
X208157Y106429D01*
X208185Y106427D01*
X217424Y106427D01*
X217542Y106442D01*
X217661Y106449D01*
X217699Y106462D01*
X217740Y106467D01*
X217850Y106510D01*
X217963Y106547D01*
X217998Y106569D01*
X218035Y106584D01*
X218131Y106653D01*
X218232Y106717D01*
X218260Y106747D01*
X218293Y106770D01*
X218368Y106862D01*
X218450Y106949D01*
X218470Y106984D01*
X218495Y107015D01*
X218546Y107123D01*
X218604Y107227D01*
X218614Y107267D01*
X218631Y107303D01*
X218653Y107420D01*
X218683Y107535D01*
X218687Y107595D01*
X218691Y107615D01*
X218689Y107636D01*
X218693Y107696D01*
X218693Y133147D01*
X218681Y133245D01*
X218678Y133344D01*
X218661Y133402D01*
X218653Y133463D01*
X218617Y133555D01*
X218589Y133650D01*
X218559Y133702D01*
X218536Y133758D01*
X218478Y133838D01*
X218428Y133924D01*
X218362Y133999D01*
X218350Y134016D01*
X218340Y134023D01*
X218322Y134045D01*
X213084Y139282D01*
X212995Y139352D01*
X212963Y139381D01*
X212956Y139385D01*
X212900Y139434D01*
X212864Y139453D01*
X212832Y139477D01*
X212723Y139525D01*
X212617Y139579D01*
X212578Y139588D01*
X212541Y139604D01*
X212423Y139622D01*
X212307Y139648D01*
X212267Y139647D01*
X212226Y139654D01*
X212108Y139642D01*
X211989Y139639D01*
X211950Y139627D01*
X211910Y139624D01*
X211798Y139583D01*
X211683Y139550D01*
X211649Y139530D01*
X211611Y139516D01*
X211512Y139449D01*
X211410Y139389D01*
X211364Y139349D01*
X211347Y139338D01*
X211334Y139322D01*
X211289Y139282D01*
X210182Y138175D01*
X196218Y138175D01*
X195325Y139068D01*
X195325Y165732D01*
X196218Y166625D01*
X210182Y166625D01*
X211075Y165732D01*
X211075Y148285D01*
X211087Y148187D01*
X211090Y148088D01*
X211107Y148030D01*
X211115Y147969D01*
X211151Y147877D01*
X211179Y147782D01*
X211209Y147730D01*
X211232Y147674D01*
X211290Y147594D01*
X211340Y147508D01*
X211406Y147433D01*
X211418Y147416D01*
X211428Y147409D01*
X211446Y147387D01*
X223267Y135567D01*
X223267Y96404D01*
X221555Y94693D01*
X220591Y93728D01*
X220530Y93650D01*
X220462Y93577D01*
X220433Y93524D01*
X220396Y93476D01*
X220356Y93386D01*
X220308Y93299D01*
X220293Y93240D01*
X220269Y93185D01*
X220254Y93087D01*
X220229Y92991D01*
X220223Y92891D01*
X220219Y92870D01*
X220221Y92858D01*
X220219Y92830D01*
X220219Y84966D01*
X219326Y84073D01*
X197742Y84073D01*
X196849Y84966D01*
X196849Y92834D01*
X197742Y93727D01*
X209601Y93727D01*
X209699Y93739D01*
X209798Y93742D01*
X209857Y93759D01*
X209917Y93767D01*
X210009Y93803D01*
X210104Y93831D01*
X210156Y93861D01*
X210212Y93884D01*
X210292Y93942D01*
X210378Y93992D01*
X210453Y94058D01*
X210470Y94070D01*
X210477Y94080D01*
X210499Y94098D01*
X211007Y94607D01*
X211092Y94716D01*
X211180Y94823D01*
X211189Y94842D01*
X211202Y94858D01*
X211257Y94986D01*
X211316Y95111D01*
X211320Y95131D01*
X211328Y95150D01*
X211350Y95287D01*
X211376Y95424D01*
X211375Y95444D01*
X211378Y95464D01*
X211365Y95603D01*
X211356Y95741D01*
X211350Y95760D01*
X211348Y95780D01*
X211301Y95912D01*
X211258Y96043D01*
X211247Y96061D01*
X211240Y96080D01*
X211162Y96195D01*
X211088Y96312D01*
X211073Y96326D01*
X211062Y96343D01*
X210958Y96435D01*
X210856Y96530D01*
X210838Y96540D01*
X210823Y96553D01*
X210700Y96616D01*
X210578Y96684D01*
X210558Y96689D01*
X210540Y96698D01*
X210404Y96728D01*
X210270Y96763D01*
X210242Y96765D01*
X210230Y96768D01*
X210209Y96767D01*
X210109Y96773D01*
X197742Y96773D01*
X196849Y97666D01*
X196849Y105534D01*
X197851Y106535D01*
X197924Y106629D01*
X198003Y106719D01*
X198021Y106755D01*
X198046Y106787D01*
X198093Y106896D01*
X198148Y107002D01*
X198156Y107041D01*
X198172Y107079D01*
X198191Y107196D01*
X198217Y107312D01*
X198216Y107353D01*
X198222Y107393D01*
X198211Y107511D01*
X198208Y107630D01*
X198196Y107669D01*
X198193Y107709D01*
X198152Y107822D01*
X198119Y107936D01*
X198099Y107970D01*
X198085Y108009D01*
X198018Y108107D01*
X197958Y108210D01*
X197918Y108255D01*
X197906Y108272D01*
X197891Y108285D01*
X197851Y108330D01*
X181442Y124740D01*
X181364Y124800D01*
X181292Y124868D01*
X181239Y124897D01*
X181191Y124934D01*
X181100Y124974D01*
X181013Y125022D01*
X180955Y125037D01*
X180899Y125061D01*
X180801Y125076D01*
X180705Y125101D01*
X180605Y125107D01*
X180585Y125111D01*
X180573Y125109D01*
X180545Y125111D01*
X168785Y125111D01*
X162791Y131105D01*
X162682Y131190D01*
X162575Y131279D01*
X162556Y131287D01*
X162540Y131300D01*
X162412Y131355D01*
X162287Y131414D01*
X162267Y131418D01*
X162248Y131426D01*
X162110Y131448D01*
X161974Y131474D01*
X161954Y131473D01*
X161934Y131476D01*
X161795Y131463D01*
X161657Y131454D01*
X161638Y131448D01*
X161618Y131446D01*
X161486Y131399D01*
X161355Y131356D01*
X161337Y131345D01*
X161318Y131339D01*
X161203Y131261D01*
X161086Y131186D01*
X161072Y131171D01*
X161055Y131160D01*
X160963Y131056D01*
X160868Y130955D01*
X160858Y130937D01*
X160845Y130922D01*
X160781Y130797D01*
X160714Y130676D01*
X160709Y130656D01*
X160700Y130638D01*
X160670Y130503D01*
X160635Y130368D01*
X160633Y130340D01*
X160630Y130328D01*
X160631Y130308D01*
X160625Y130207D01*
X160625Y130068D01*
X159732Y129175D01*
X145053Y129175D01*
X144955Y129163D01*
X144856Y129160D01*
X144798Y129143D01*
X144738Y129135D01*
X144646Y129099D01*
X144551Y129071D01*
X144498Y129041D01*
X144442Y129018D01*
X144362Y128960D01*
X144277Y128910D01*
X144201Y128844D01*
X144185Y128832D01*
X144177Y128822D01*
X144156Y128804D01*
X131576Y116224D01*
X131503Y116130D01*
X131424Y116040D01*
X131406Y116004D01*
X131381Y115972D01*
X131334Y115863D01*
X131280Y115757D01*
X131271Y115718D01*
X131255Y115681D01*
X131236Y115563D01*
X131210Y115447D01*
X131211Y115407D01*
X131205Y115367D01*
X131216Y115248D01*
X131220Y115129D01*
X131231Y115090D01*
X131235Y115050D01*
X131275Y114938D01*
X131308Y114823D01*
X131329Y114789D01*
X131342Y114751D01*
X131409Y114652D01*
X131470Y114550D01*
X131509Y114504D01*
X131521Y114487D01*
X131536Y114474D01*
X131576Y114429D01*
X131975Y114030D01*
X131975Y108415D01*
X131962Y108336D01*
X131936Y108220D01*
X131937Y108180D01*
X131931Y108140D01*
X131942Y108021D01*
X131946Y107902D01*
X131957Y107864D01*
X131961Y107824D01*
X131975Y107785D01*
X131975Y105866D01*
X131987Y105768D01*
X131990Y105669D01*
X132007Y105611D01*
X132015Y105551D01*
X132051Y105459D01*
X132079Y105364D01*
X132109Y105311D01*
X132132Y105255D01*
X132190Y105175D01*
X132240Y105090D01*
X132306Y105015D01*
X132318Y104998D01*
X132328Y104990D01*
X132346Y104969D01*
X133215Y104101D01*
X133324Y104016D01*
X133431Y103927D01*
X133450Y103918D01*
X133466Y103906D01*
X133594Y103851D01*
X133719Y103791D01*
X133739Y103788D01*
X133758Y103780D01*
X133896Y103758D01*
X134032Y103732D01*
X134052Y103733D01*
X134072Y103730D01*
X134211Y103743D01*
X134349Y103751D01*
X134368Y103758D01*
X134388Y103760D01*
X134519Y103807D01*
X134651Y103849D01*
X134669Y103860D01*
X134688Y103867D01*
X134802Y103945D01*
X134920Y104020D01*
X134934Y104034D01*
X134951Y104046D01*
X135043Y104150D01*
X135138Y104251D01*
X135148Y104269D01*
X135161Y104284D01*
X135224Y104408D01*
X135292Y104530D01*
X135297Y104549D01*
X135306Y104567D01*
X135336Y104703D01*
X135371Y104838D01*
X135373Y104866D01*
X135376Y104878D01*
X135375Y104898D01*
X135381Y104998D01*
X135381Y105534D01*
X136274Y106427D01*
X157858Y106427D01*
X158751Y105534D01*
X158751Y105156D01*
X158766Y105038D01*
X158773Y104919D01*
X158786Y104881D01*
X158791Y104840D01*
X158834Y104730D01*
X158871Y104617D01*
X158893Y104582D01*
X158908Y104545D01*
X158977Y104449D01*
X159041Y104348D01*
X159071Y104320D01*
X159094Y104287D01*
X159186Y104211D01*
X159273Y104130D01*
X159308Y104110D01*
X159339Y104085D01*
X159447Y104034D01*
X159551Y103976D01*
X159591Y103966D01*
X159627Y103949D01*
X159744Y103927D01*
X159859Y103897D01*
X159919Y103893D01*
X159939Y103889D01*
X159960Y103891D01*
X160020Y103887D01*
X166047Y103887D01*
X180087Y89847D01*
X180087Y66312D01*
X180099Y66214D01*
X180102Y66115D01*
X180119Y66057D01*
X180127Y65997D01*
X180163Y65904D01*
X180191Y65809D01*
X180221Y65757D01*
X180244Y65701D01*
X180302Y65621D01*
X180352Y65535D01*
X180418Y65460D01*
X180430Y65444D01*
X180440Y65436D01*
X180458Y65415D01*
X194683Y51191D01*
X194792Y51105D01*
X194899Y51017D01*
X194918Y51008D01*
X194934Y50996D01*
X195062Y50940D01*
X195187Y50881D01*
X195207Y50877D01*
X195226Y50869D01*
X195364Y50847D01*
X195500Y50821D01*
X195520Y50823D01*
X195540Y50819D01*
X195679Y50832D01*
X195817Y50841D01*
X195836Y50847D01*
X195856Y50849D01*
X195988Y50896D01*
X196119Y50939D01*
X196137Y50950D01*
X196156Y50957D01*
X196271Y51035D01*
X196388Y51109D01*
X196402Y51124D01*
X196419Y51135D01*
X196511Y51239D01*
X196606Y51341D01*
X196616Y51359D01*
X196629Y51374D01*
X196693Y51498D01*
X196760Y51619D01*
X196765Y51639D01*
X196774Y51657D01*
X196804Y51793D01*
X196839Y51927D01*
X196841Y51955D01*
X196844Y51967D01*
X196843Y51988D01*
X196849Y52088D01*
X196849Y54734D01*
X197742Y55627D01*
X204978Y55627D01*
X205096Y55642D01*
X205215Y55649D01*
X205253Y55662D01*
X205294Y55667D01*
X205404Y55710D01*
X205517Y55747D01*
X205552Y55769D01*
X205589Y55784D01*
X205685Y55853D01*
X205786Y55917D01*
X205814Y55947D01*
X205847Y55970D01*
X205923Y56062D01*
X206004Y56149D01*
X206024Y56184D01*
X206049Y56215D01*
X206100Y56323D01*
X206158Y56427D01*
X206168Y56467D01*
X206185Y56503D01*
X206207Y56620D01*
X206237Y56735D01*
X206241Y56795D01*
X206245Y56815D01*
X206243Y56836D01*
X206247Y56896D01*
X206247Y57404D01*
X206232Y57522D01*
X206225Y57641D01*
X206212Y57679D01*
X206207Y57720D01*
X206164Y57830D01*
X206127Y57943D01*
X206105Y57978D01*
X206090Y58015D01*
X206021Y58111D01*
X205957Y58212D01*
X205927Y58240D01*
X205904Y58273D01*
X205812Y58349D01*
X205725Y58430D01*
X205690Y58450D01*
X205659Y58475D01*
X205551Y58526D01*
X205447Y58584D01*
X205407Y58594D01*
X205371Y58611D01*
X205254Y58633D01*
X205139Y58663D01*
X205079Y58667D01*
X205059Y58671D01*
X205038Y58669D01*
X204978Y58673D01*
X197742Y58673D01*
X196849Y59566D01*
X196849Y67434D01*
X197742Y68327D01*
X219326Y68327D01*
X220219Y67434D01*
X220219Y59566D01*
X219326Y58673D01*
X212090Y58673D01*
X211972Y58658D01*
X211853Y58651D01*
X211815Y58638D01*
X211774Y58633D01*
X211664Y58590D01*
X211551Y58553D01*
X211516Y58531D01*
X211479Y58516D01*
X211383Y58447D01*
X211282Y58383D01*
X211254Y58353D01*
X211221Y58330D01*
X211145Y58238D01*
X211064Y58151D01*
X211044Y58116D01*
X211019Y58085D01*
X210968Y57977D01*
X210910Y57873D01*
X210900Y57833D01*
X210883Y57797D01*
X210861Y57680D01*
X210831Y57565D01*
X210827Y57505D01*
X210823Y57485D01*
X210825Y57464D01*
X210821Y57404D01*
X210821Y56896D01*
X210836Y56778D01*
X210843Y56659D01*
X210856Y56621D01*
X210861Y56580D01*
X210904Y56470D01*
X210941Y56357D01*
X210963Y56322D01*
X210978Y56285D01*
X211047Y56189D01*
X211111Y56088D01*
X211141Y56060D01*
X211164Y56027D01*
X211256Y55951D01*
X211343Y55870D01*
X211378Y55850D01*
X211409Y55825D01*
X211517Y55774D01*
X211621Y55716D01*
X211661Y55706D01*
X211697Y55689D01*
X211814Y55667D01*
X211929Y55637D01*
X211989Y55633D01*
X212009Y55629D01*
X212030Y55631D01*
X212090Y55627D01*
X219326Y55627D01*
X220219Y54734D01*
X220219Y46866D01*
X219326Y45973D01*
X206959Y45973D01*
X206821Y45956D01*
X206682Y45943D01*
X206663Y45936D01*
X206643Y45933D01*
X206514Y45882D01*
X206383Y45835D01*
X206366Y45824D01*
X206348Y45816D01*
X206235Y45735D01*
X206120Y45657D01*
X206107Y45641D01*
X206090Y45630D01*
X206001Y45522D01*
X205910Y45418D01*
X205900Y45400D01*
X205888Y45385D01*
X205828Y45259D01*
X205765Y45135D01*
X205761Y45115D01*
X205752Y45097D01*
X205726Y44961D01*
X205695Y44825D01*
X205696Y44804D01*
X205692Y44785D01*
X205701Y44646D01*
X205705Y44507D01*
X205711Y44487D01*
X205712Y44467D01*
X205755Y44335D01*
X205793Y44201D01*
X205804Y44184D01*
X205810Y44165D01*
X205884Y44047D01*
X205955Y43927D01*
X205974Y43906D01*
X205980Y43896D01*
X205995Y43882D01*
X206061Y43806D01*
X206569Y43298D01*
X206648Y43238D01*
X206720Y43170D01*
X206773Y43141D01*
X206821Y43104D01*
X206912Y43064D01*
X206998Y43016D01*
X207057Y43001D01*
X207113Y42977D01*
X207210Y42962D01*
X207306Y42937D01*
X207406Y42931D01*
X207427Y42927D01*
X207439Y42929D01*
X207467Y42927D01*
X219326Y42927D01*
X220219Y42034D01*
X220219Y34166D01*
X219326Y33273D01*
X197742Y33273D01*
X196849Y34166D01*
X196849Y42030D01*
X196837Y42128D01*
X196834Y42227D01*
X196817Y42286D01*
X196809Y42346D01*
X196773Y42438D01*
X196745Y42533D01*
X196715Y42585D01*
X196692Y42641D01*
X196634Y42721D01*
X196584Y42807D01*
X196518Y42882D01*
X196506Y42899D01*
X196496Y42907D01*
X196478Y42928D01*
X175513Y63892D01*
X175513Y87427D01*
X175501Y87525D01*
X175498Y87624D01*
X175481Y87682D01*
X175473Y87743D01*
X175437Y87835D01*
X175409Y87930D01*
X175379Y87982D01*
X175356Y88038D01*
X175298Y88118D01*
X175248Y88204D01*
X175182Y88279D01*
X175170Y88296D01*
X175160Y88303D01*
X175142Y88325D01*
X164525Y98942D01*
X164446Y99002D01*
X164374Y99070D01*
X164321Y99099D01*
X164273Y99136D01*
X164182Y99176D01*
X164096Y99224D01*
X164037Y99239D01*
X163981Y99263D01*
X163883Y99278D01*
X163788Y99303D01*
X163688Y99309D01*
X163667Y99313D01*
X163655Y99311D01*
X163627Y99313D01*
X160020Y99313D01*
X159902Y99298D01*
X159783Y99291D01*
X159745Y99278D01*
X159704Y99273D01*
X159594Y99230D01*
X159481Y99193D01*
X159446Y99171D01*
X159409Y99156D01*
X159313Y99087D01*
X159212Y99023D01*
X159184Y98993D01*
X159151Y98970D01*
X159075Y98878D01*
X158994Y98791D01*
X158974Y98756D01*
X158949Y98725D01*
X158898Y98617D01*
X158840Y98513D01*
X158830Y98473D01*
X158813Y98437D01*
X158791Y98320D01*
X158761Y98205D01*
X158757Y98145D01*
X158753Y98125D01*
X158755Y98104D01*
X158751Y98044D01*
X158751Y97666D01*
X157858Y96773D01*
X141496Y96773D01*
X141358Y96756D01*
X141220Y96743D01*
X141201Y96736D01*
X141180Y96733D01*
X141051Y96682D01*
X140920Y96635D01*
X140904Y96624D01*
X140885Y96616D01*
X140772Y96535D01*
X140657Y96457D01*
X140644Y96441D01*
X140627Y96430D01*
X140538Y96322D01*
X140447Y96218D01*
X140438Y96200D01*
X140425Y96185D01*
X140365Y96059D01*
X140302Y95935D01*
X140298Y95915D01*
X140289Y95897D01*
X140263Y95761D01*
X140233Y95625D01*
X140233Y95604D01*
X140229Y95585D01*
X140238Y95446D01*
X140242Y95307D01*
X140248Y95287D01*
X140249Y95267D01*
X140292Y95135D01*
X140331Y95001D01*
X140341Y94984D01*
X140347Y94965D01*
X140421Y94847D01*
X140492Y94727D01*
X140511Y94706D01*
X140517Y94696D01*
X140532Y94682D01*
X140599Y94606D01*
X141107Y94098D01*
X141185Y94038D01*
X141257Y93970D01*
X141310Y93941D01*
X141358Y93904D01*
X141449Y93864D01*
X141535Y93816D01*
X141594Y93801D01*
X141650Y93777D01*
X141748Y93762D01*
X141843Y93737D01*
X141944Y93731D01*
X141964Y93727D01*
X141976Y93729D01*
X142004Y93727D01*
X157858Y93727D01*
X158751Y92834D01*
X158751Y84966D01*
X157858Y84073D01*
X150622Y84073D01*
X150504Y84058D01*
X150385Y84051D01*
X150347Y84038D01*
X150306Y84033D01*
X150196Y83990D01*
X150083Y83953D01*
X150048Y83931D01*
X150011Y83916D01*
X149915Y83847D01*
X149814Y83783D01*
X149786Y83753D01*
X149753Y83730D01*
X149677Y83638D01*
X149596Y83551D01*
X149576Y83516D01*
X149551Y83485D01*
X149500Y83377D01*
X149442Y83273D01*
X149432Y83233D01*
X149415Y83197D01*
X149393Y83080D01*
X149363Y82965D01*
X149359Y82905D01*
X149355Y82885D01*
X149357Y82864D01*
X149353Y82804D01*
X149353Y82296D01*
X149368Y82178D01*
X149375Y82059D01*
X149388Y82021D01*
X149393Y81980D01*
X149436Y81870D01*
X149473Y81757D01*
X149495Y81722D01*
X149510Y81685D01*
X149579Y81589D01*
X149643Y81488D01*
X149673Y81460D01*
X149696Y81427D01*
X149788Y81351D01*
X149875Y81270D01*
X149910Y81250D01*
X149941Y81225D01*
X150049Y81174D01*
X150153Y81116D01*
X150193Y81106D01*
X150229Y81089D01*
X150346Y81067D01*
X150461Y81037D01*
X150521Y81033D01*
X150541Y81029D01*
X150562Y81031D01*
X150622Y81027D01*
X157858Y81027D01*
X158751Y80134D01*
X158751Y72266D01*
X157858Y71373D01*
X138176Y71373D01*
X138058Y71358D01*
X137939Y71351D01*
X137901Y71338D01*
X137860Y71333D01*
X137750Y71290D01*
X137637Y71253D01*
X137602Y71231D01*
X137565Y71216D01*
X137469Y71147D01*
X137368Y71083D01*
X137340Y71053D01*
X137307Y71030D01*
X137231Y70938D01*
X137150Y70851D01*
X137130Y70816D01*
X137105Y70785D01*
X137054Y70677D01*
X136996Y70573D01*
X136986Y70533D01*
X136969Y70497D01*
X136947Y70380D01*
X136917Y70265D01*
X136913Y70205D01*
X136909Y70185D01*
X136911Y70164D01*
X136907Y70104D01*
X136907Y69596D01*
X136922Y69478D01*
X136929Y69359D01*
X136942Y69321D01*
X136947Y69280D01*
X136990Y69170D01*
X137027Y69057D01*
X137049Y69022D01*
X137064Y68985D01*
X137133Y68889D01*
X137197Y68788D01*
X137227Y68760D01*
X137250Y68727D01*
X137342Y68651D01*
X137429Y68570D01*
X137464Y68550D01*
X137495Y68525D01*
X137603Y68474D01*
X137707Y68416D01*
X137747Y68406D01*
X137783Y68389D01*
X137900Y68367D01*
X138015Y68337D01*
X138075Y68333D01*
X138095Y68329D01*
X138116Y68331D01*
X138176Y68327D01*
X157858Y68327D01*
X158751Y67434D01*
X158751Y67056D01*
X158766Y66938D01*
X158773Y66819D01*
X158786Y66781D01*
X158791Y66740D01*
X158834Y66630D01*
X158871Y66517D01*
X158893Y66482D01*
X158908Y66445D01*
X158977Y66349D01*
X159041Y66248D01*
X159071Y66220D01*
X159094Y66187D01*
X159186Y66111D01*
X159273Y66030D01*
X159308Y66010D01*
X159339Y65985D01*
X159447Y65934D01*
X159551Y65876D01*
X159591Y65866D01*
X159627Y65849D01*
X159744Y65827D01*
X159859Y65797D01*
X159919Y65793D01*
X159939Y65789D01*
X159960Y65791D01*
X160020Y65787D01*
X160063Y65787D01*
X160161Y65799D01*
X160260Y65802D01*
X160319Y65819D01*
X160379Y65827D01*
X160471Y65863D01*
X160566Y65891D01*
X160618Y65921D01*
X160674Y65944D01*
X160754Y66002D01*
X160840Y66052D01*
X160915Y66118D01*
X160932Y66130D01*
X160940Y66140D01*
X160961Y66158D01*
X162377Y67575D01*
X164144Y68307D01*
X166056Y68307D01*
X167823Y67575D01*
X169175Y66223D01*
X169907Y64456D01*
X169907Y62544D01*
X169175Y60777D01*
X167823Y59425D01*
X166056Y58693D01*
X164144Y58693D01*
X162377Y59425D01*
X160961Y60842D01*
X160882Y60902D01*
X160810Y60970D01*
X160757Y60999D01*
X160709Y61036D01*
X160618Y61076D01*
X160532Y61124D01*
X160473Y61139D01*
X160418Y61163D01*
X160320Y61178D01*
X160224Y61203D01*
X160124Y61209D01*
X160104Y61213D01*
X160091Y61211D01*
X160063Y61213D01*
X160020Y61213D01*
X159902Y61198D01*
X159783Y61191D01*
X159745Y61178D01*
X159704Y61173D01*
X159594Y61130D01*
X159481Y61093D01*
X159446Y61071D01*
X159409Y61056D01*
X159313Y60987D01*
X159212Y60923D01*
X159184Y60893D01*
X159151Y60870D01*
X159075Y60778D01*
X158994Y60691D01*
X158974Y60656D01*
X158949Y60625D01*
X158898Y60517D01*
X158840Y60413D01*
X158830Y60373D01*
X158813Y60337D01*
X158791Y60220D01*
X158761Y60105D01*
X158757Y60045D01*
X158753Y60025D01*
X158755Y60004D01*
X158751Y59944D01*
X158751Y59566D01*
X157858Y58673D01*
X141496Y58673D01*
X141358Y58656D01*
X141220Y58643D01*
X141201Y58636D01*
X141180Y58633D01*
X141051Y58582D01*
X140920Y58535D01*
X140904Y58524D01*
X140885Y58516D01*
X140772Y58435D01*
X140657Y58357D01*
X140644Y58341D01*
X140627Y58330D01*
X140539Y58222D01*
X140447Y58118D01*
X140438Y58100D01*
X140425Y58085D01*
X140365Y57959D01*
X140302Y57835D01*
X140298Y57815D01*
X140289Y57797D01*
X140263Y57661D01*
X140233Y57525D01*
X140233Y57504D01*
X140229Y57485D01*
X140238Y57346D01*
X140242Y57207D01*
X140248Y57187D01*
X140249Y57167D01*
X140292Y57035D01*
X140331Y56901D01*
X140341Y56884D01*
X140347Y56865D01*
X140421Y56747D01*
X140492Y56627D01*
X140511Y56606D01*
X140517Y56596D01*
X140532Y56582D01*
X140599Y56507D01*
X141107Y55998D01*
X141185Y55938D01*
X141257Y55870D01*
X141310Y55841D01*
X141358Y55804D01*
X141449Y55764D01*
X141535Y55716D01*
X141594Y55701D01*
X141650Y55677D01*
X141748Y55662D01*
X141843Y55637D01*
X141943Y55631D01*
X141964Y55627D01*
X141976Y55629D01*
X142004Y55627D01*
X148133Y55627D01*
X148231Y55639D01*
X148330Y55642D01*
X148388Y55659D01*
X148449Y55667D01*
X148541Y55703D01*
X148636Y55731D01*
X148675Y55754D01*
X150797Y55754D01*
X150864Y55716D01*
X150923Y55701D01*
X150979Y55677D01*
X151077Y55662D01*
X151172Y55637D01*
X151272Y55631D01*
X151293Y55627D01*
X151305Y55629D01*
X151333Y55627D01*
X157858Y55627D01*
X158751Y54734D01*
X158751Y46866D01*
X157858Y45973D01*
X153289Y45973D01*
X153171Y45958D01*
X153052Y45951D01*
X153014Y45938D01*
X152973Y45933D01*
X152863Y45890D01*
X152750Y45853D01*
X152715Y45831D01*
X152678Y45816D01*
X152582Y45747D01*
X152481Y45683D01*
X152453Y45653D01*
X152420Y45630D01*
X152344Y45538D01*
X152263Y45451D01*
X152243Y45416D01*
X152218Y45385D01*
X152167Y45277D01*
X152109Y45173D01*
X152099Y45133D01*
X152082Y45097D01*
X152060Y44980D01*
X152030Y44865D01*
X152026Y44805D01*
X152022Y44785D01*
X152024Y44764D01*
X152020Y44704D01*
X152020Y44196D01*
X152035Y44078D01*
X152042Y43959D01*
X152055Y43921D01*
X152060Y43880D01*
X152103Y43770D01*
X152140Y43657D01*
X152162Y43622D01*
X152177Y43585D01*
X152246Y43489D01*
X152310Y43388D01*
X152340Y43360D01*
X152363Y43327D01*
X152455Y43251D01*
X152542Y43170D01*
X152577Y43150D01*
X152608Y43125D01*
X152716Y43074D01*
X152820Y43016D01*
X152860Y43006D01*
X152896Y42989D01*
X153013Y42967D01*
X153128Y42937D01*
X153188Y42933D01*
X153208Y42929D01*
X153229Y42931D01*
X153289Y42927D01*
X157858Y42927D01*
X158751Y42034D01*
X158751Y34166D01*
X157748Y33164D01*
X157667Y33059D01*
X157581Y32958D01*
X157569Y32934D01*
X157553Y32912D01*
X157500Y32791D01*
X157443Y32671D01*
X157437Y32645D01*
X157427Y32620D01*
X157406Y32489D01*
X157380Y32360D01*
X157381Y32333D01*
X157377Y32306D01*
X157389Y32174D01*
X157396Y32042D01*
X157404Y32017D01*
X157407Y31990D01*
X157452Y31865D01*
X157491Y31738D01*
X157505Y31716D01*
X157514Y31690D01*
X157589Y31581D01*
X157658Y31468D01*
X157678Y31450D01*
X157693Y31427D01*
X157792Y31340D01*
X157888Y31248D01*
X157911Y31235D01*
X157931Y31217D01*
X158049Y31156D01*
X158165Y31091D01*
X158175Y31088D01*
X158786Y30735D01*
X159259Y30262D01*
X159594Y29683D01*
X159767Y29036D01*
X159767Y27050D01*
X147447Y27050D01*
X147329Y27035D01*
X147210Y27028D01*
X147172Y27015D01*
X147132Y27010D01*
X147021Y26967D01*
X146908Y26930D01*
X146874Y26908D01*
X146836Y26893D01*
X146740Y26824D01*
X146639Y26760D01*
X146611Y26730D01*
X146579Y26707D01*
X146503Y26615D01*
X146421Y26528D01*
X146402Y26493D01*
X146376Y26462D01*
X146325Y26354D01*
X146268Y26250D01*
X146258Y26210D01*
X146240Y26174D01*
X146218Y26057D01*
X146188Y25942D01*
X146184Y25882D01*
X146181Y25862D01*
X146182Y25841D01*
X146178Y25781D01*
X146178Y25019D01*
X146193Y24901D01*
X146200Y24782D01*
X146213Y24744D01*
X146218Y24703D01*
X146262Y24593D01*
X146298Y24480D01*
X146320Y24445D01*
X146335Y24408D01*
X146405Y24311D01*
X146468Y24211D01*
X146498Y24183D01*
X146522Y24150D01*
X146613Y24074D01*
X146700Y23993D01*
X146735Y23973D01*
X146767Y23948D01*
X146874Y23897D01*
X146979Y23839D01*
X147018Y23829D01*
X147054Y23812D01*
X147171Y23790D01*
X147287Y23760D01*
X147347Y23756D01*
X147367Y23752D01*
X147387Y23754D01*
X147447Y23750D01*
X159767Y23750D01*
X159767Y21764D01*
X159594Y21117D01*
X159259Y20538D01*
X158786Y20065D01*
X158207Y19730D01*
X157560Y19557D01*
X151841Y19557D01*
X151703Y19540D01*
X151565Y19527D01*
X151545Y19520D01*
X151525Y19517D01*
X151396Y19466D01*
X151265Y19419D01*
X151248Y19408D01*
X151230Y19400D01*
X151117Y19319D01*
X151002Y19241D01*
X150989Y19225D01*
X150972Y19214D01*
X150884Y19106D01*
X150792Y19002D01*
X150782Y18984D01*
X150770Y18969D01*
X150710Y18843D01*
X150647Y18719D01*
X150643Y18699D01*
X150634Y18681D01*
X150608Y18545D01*
X150577Y18409D01*
X150578Y18388D01*
X150574Y18369D01*
X150583Y18230D01*
X150587Y18091D01*
X150593Y18071D01*
X150594Y18051D01*
X150637Y17919D01*
X150675Y17785D01*
X150686Y17768D01*
X150692Y17749D01*
X150767Y17631D01*
X150837Y17511D01*
X150856Y17490D01*
X150862Y17480D01*
X150877Y17466D01*
X150943Y17391D01*
X152975Y15358D01*
X153054Y15298D01*
X153126Y15230D01*
X153179Y15201D01*
X153227Y15164D01*
X153318Y15124D01*
X153404Y15076D01*
X153463Y15061D01*
X153519Y15037D01*
X153616Y15022D01*
X153712Y14997D01*
X153812Y14991D01*
X153833Y14987D01*
X153845Y14989D01*
X153873Y14987D01*
X194361Y14987D01*
X194459Y14999D01*
X194558Y15002D01*
X194616Y15019D01*
X194677Y15027D01*
X194769Y15063D01*
X194864Y15091D01*
X194916Y15121D01*
X194972Y15144D01*
X195052Y15202D01*
X195138Y15252D01*
X195213Y15318D01*
X195230Y15330D01*
X195237Y15340D01*
X195259Y15358D01*
X198307Y18407D01*
X198392Y18516D01*
X198480Y18623D01*
X198489Y18642D01*
X198502Y18658D01*
X198557Y18786D01*
X198616Y18911D01*
X198620Y18931D01*
X198628Y18950D01*
X198650Y19088D01*
X198676Y19224D01*
X198675Y19244D01*
X198678Y19264D01*
X198665Y19403D01*
X198656Y19541D01*
X198650Y19560D01*
X198648Y19580D01*
X198601Y19712D01*
X198558Y19843D01*
X198547Y19861D01*
X198540Y19880D01*
X198462Y19995D01*
X198388Y20112D01*
X198373Y20126D01*
X198362Y20143D01*
X198257Y20235D01*
X198156Y20330D01*
X198139Y20340D01*
X198123Y20353D01*
X197999Y20417D01*
X197878Y20484D01*
X197858Y20489D01*
X197840Y20498D01*
X197811Y20504D01*
X196849Y21466D01*
X196849Y29334D01*
X197742Y30227D01*
X219326Y30227D01*
X220219Y29334D01*
X220219Y21466D01*
X219326Y20573D01*
X207467Y20573D01*
X207369Y20561D01*
X207270Y20558D01*
X207212Y20541D01*
X207151Y20533D01*
X207059Y20497D01*
X206964Y20469D01*
X206912Y20439D01*
X206856Y20416D01*
X206776Y20358D01*
X206690Y20308D01*
X206615Y20242D01*
X206598Y20230D01*
X206591Y20220D01*
X206569Y20202D01*
X198695Y12327D01*
X198610Y12218D01*
X198522Y12111D01*
X198513Y12092D01*
X198500Y12076D01*
X198445Y11948D01*
X198386Y11823D01*
X198382Y11803D01*
X198374Y11784D01*
X198352Y11646D01*
X198326Y11510D01*
X198327Y11490D01*
X198324Y11470D01*
X198337Y11331D01*
X198346Y11193D01*
X198352Y11174D01*
X198354Y11154D01*
X198401Y11022D01*
X198444Y10891D01*
X198455Y10873D01*
X198462Y10854D01*
X198540Y10739D01*
X198614Y10622D01*
X198629Y10608D01*
X198640Y10591D01*
X198745Y10499D01*
X198846Y10404D01*
X198863Y10394D01*
X198879Y10381D01*
X199003Y10317D01*
X199124Y10250D01*
X199144Y10245D01*
X199162Y10236D01*
X199298Y10206D01*
X199432Y10171D01*
X199460Y10169D01*
X199472Y10166D01*
X199493Y10167D01*
X199593Y10161D01*
X229670Y10161D01*
X229788Y10176D01*
G37*
G36*
X148779Y10178D02*
X148779Y10178D01*
X148917Y10191D01*
X148937Y10198D01*
X148957Y10201D01*
X149086Y10252D01*
X149217Y10299D01*
X149234Y10310D01*
X149252Y10318D01*
X149365Y10399D01*
X149480Y10477D01*
X149493Y10493D01*
X149510Y10504D01*
X149598Y10612D01*
X149690Y10716D01*
X149700Y10734D01*
X149712Y10749D01*
X149772Y10875D01*
X149835Y10999D01*
X149839Y11019D01*
X149848Y11037D01*
X149874Y11173D01*
X149905Y11309D01*
X149904Y11330D01*
X149908Y11349D01*
X149899Y11488D01*
X149895Y11627D01*
X149889Y11647D01*
X149888Y11667D01*
X149845Y11799D01*
X149807Y11933D01*
X149796Y11950D01*
X149790Y11969D01*
X149715Y12087D01*
X149645Y12207D01*
X149626Y12228D01*
X149620Y12238D01*
X149605Y12252D01*
X149539Y12327D01*
X144713Y17154D01*
X144634Y17214D01*
X144562Y17282D01*
X144509Y17311D01*
X144461Y17348D01*
X144370Y17388D01*
X144284Y17436D01*
X144225Y17451D01*
X144169Y17475D01*
X144071Y17490D01*
X143976Y17515D01*
X143876Y17521D01*
X143855Y17525D01*
X143843Y17523D01*
X143815Y17525D01*
X135012Y17525D01*
X133301Y19236D01*
X133301Y19237D01*
X129796Y22742D01*
X129717Y22802D01*
X129645Y22870D01*
X129592Y22899D01*
X129544Y22936D01*
X129453Y22976D01*
X129367Y23024D01*
X129308Y23039D01*
X129253Y23063D01*
X129155Y23078D01*
X129059Y23103D01*
X128959Y23109D01*
X128938Y23113D01*
X128926Y23111D01*
X128898Y23113D01*
X40894Y23113D01*
X40776Y23098D01*
X40657Y23091D01*
X40619Y23078D01*
X40578Y23073D01*
X40468Y23030D01*
X40355Y22993D01*
X40320Y22971D01*
X40283Y22956D01*
X40187Y22887D01*
X40086Y22823D01*
X40058Y22793D01*
X40025Y22770D01*
X39949Y22678D01*
X39868Y22591D01*
X39848Y22556D01*
X39823Y22525D01*
X39772Y22417D01*
X39714Y22313D01*
X39704Y22273D01*
X39687Y22237D01*
X39665Y22120D01*
X39635Y22005D01*
X39631Y21945D01*
X39627Y21925D01*
X39629Y21904D01*
X39625Y21844D01*
X39625Y18418D01*
X38732Y17525D01*
X11930Y17525D01*
X11823Y17576D01*
X11803Y17579D01*
X11785Y17587D01*
X11647Y17609D01*
X11510Y17635D01*
X11490Y17634D01*
X11470Y17637D01*
X11332Y17624D01*
X11193Y17616D01*
X11174Y17609D01*
X11154Y17608D01*
X11023Y17560D01*
X10891Y17518D01*
X10873Y17507D01*
X10855Y17500D01*
X10740Y17422D01*
X10622Y17347D01*
X10608Y17333D01*
X10591Y17321D01*
X10499Y17217D01*
X10404Y17116D01*
X10394Y17098D01*
X10381Y17083D01*
X10317Y16959D01*
X10250Y16837D01*
X10245Y16818D01*
X10236Y16800D01*
X10206Y16664D01*
X10171Y16529D01*
X10169Y16502D01*
X10166Y16490D01*
X10167Y16469D01*
X10161Y16369D01*
X10161Y11430D01*
X10176Y11312D01*
X10183Y11193D01*
X10196Y11155D01*
X10201Y11114D01*
X10244Y11004D01*
X10281Y10891D01*
X10303Y10856D01*
X10318Y10819D01*
X10387Y10723D01*
X10451Y10622D01*
X10481Y10594D01*
X10504Y10561D01*
X10596Y10485D01*
X10683Y10404D01*
X10718Y10384D01*
X10749Y10359D01*
X10857Y10308D01*
X10961Y10250D01*
X11001Y10240D01*
X11037Y10223D01*
X11154Y10201D01*
X11269Y10171D01*
X11329Y10167D01*
X11349Y10163D01*
X11370Y10165D01*
X11430Y10161D01*
X148641Y10161D01*
X148779Y10178D01*
G37*
%LPC*%
G36*
X197742Y71373D02*
X197742Y71373D01*
X196849Y72266D01*
X196849Y72644D01*
X196834Y72762D01*
X196827Y72881D01*
X196814Y72919D01*
X196809Y72960D01*
X196766Y73070D01*
X196729Y73183D01*
X196707Y73218D01*
X196692Y73255D01*
X196623Y73351D01*
X196559Y73452D01*
X196529Y73480D01*
X196506Y73513D01*
X196414Y73589D01*
X196327Y73670D01*
X196292Y73690D01*
X196261Y73715D01*
X196153Y73766D01*
X196049Y73824D01*
X196009Y73834D01*
X195973Y73851D01*
X195856Y73873D01*
X195741Y73903D01*
X195681Y73907D01*
X195661Y73911D01*
X195640Y73909D01*
X195580Y73913D01*
X195537Y73913D01*
X195439Y73901D01*
X195340Y73898D01*
X195281Y73881D01*
X195221Y73873D01*
X195129Y73837D01*
X195034Y73809D01*
X194982Y73779D01*
X194926Y73756D01*
X194846Y73698D01*
X194760Y73648D01*
X194685Y73582D01*
X194668Y73570D01*
X194660Y73560D01*
X194639Y73542D01*
X193223Y72125D01*
X191456Y71393D01*
X189544Y71393D01*
X187777Y72125D01*
X186425Y73477D01*
X185693Y75244D01*
X185693Y77156D01*
X186425Y78923D01*
X187777Y80275D01*
X189544Y81007D01*
X191456Y81007D01*
X193223Y80275D01*
X194639Y78858D01*
X194718Y78798D01*
X194790Y78730D01*
X194843Y78701D01*
X194891Y78664D01*
X194982Y78624D01*
X195068Y78576D01*
X195127Y78561D01*
X195182Y78537D01*
X195280Y78522D01*
X195376Y78497D01*
X195476Y78491D01*
X195496Y78487D01*
X195509Y78489D01*
X195537Y78487D01*
X195580Y78487D01*
X195698Y78502D01*
X195817Y78509D01*
X195855Y78522D01*
X195896Y78527D01*
X196006Y78570D01*
X196119Y78607D01*
X196154Y78629D01*
X196191Y78644D01*
X196287Y78713D01*
X196388Y78777D01*
X196416Y78807D01*
X196449Y78830D01*
X196525Y78922D01*
X196606Y79009D01*
X196626Y79044D01*
X196651Y79075D01*
X196702Y79183D01*
X196760Y79287D01*
X196770Y79327D01*
X196787Y79363D01*
X196809Y79480D01*
X196839Y79595D01*
X196843Y79655D01*
X196847Y79675D01*
X196845Y79696D01*
X196849Y79756D01*
X196849Y80134D01*
X197742Y81027D01*
X219326Y81027D01*
X220219Y80134D01*
X220219Y72266D01*
X219326Y71373D01*
X197742Y71373D01*
G37*
%LPD*%
%LPC*%
G36*
X27939Y167639D02*
X27939Y167639D01*
X27939Y173991D01*
X38434Y173991D01*
X39081Y173818D01*
X39660Y173483D01*
X40133Y173010D01*
X40468Y172431D01*
X40641Y171784D01*
X40641Y167639D01*
X27939Y167639D01*
G37*
%LPD*%
%LPC*%
G36*
X27939Y156209D02*
X27939Y156209D01*
X27939Y162561D01*
X40641Y162561D01*
X40641Y158416D01*
X40468Y157769D01*
X40133Y157190D01*
X39660Y156717D01*
X39081Y156382D01*
X38434Y156209D01*
X27939Y156209D01*
G37*
%LPD*%
%LPC*%
G36*
X25639Y142239D02*
X25639Y142239D01*
X25639Y152241D01*
X30934Y152241D01*
X31581Y152068D01*
X32160Y151733D01*
X32633Y151260D01*
X32968Y150681D01*
X33141Y150034D01*
X33141Y142239D01*
X25639Y142239D01*
G37*
%LPD*%
%LPC*%
G36*
X25639Y127159D02*
X25639Y127159D01*
X25639Y137161D01*
X33141Y137161D01*
X33141Y129366D01*
X32968Y128719D01*
X32633Y128140D01*
X32160Y127667D01*
X31581Y127332D01*
X30934Y127159D01*
X25639Y127159D01*
G37*
%LPD*%
%LPC*%
G36*
X13059Y142239D02*
X13059Y142239D01*
X13059Y150034D01*
X13232Y150681D01*
X13567Y151260D01*
X14040Y151733D01*
X14619Y152068D01*
X15266Y152241D01*
X20561Y152241D01*
X20561Y142239D01*
X13059Y142239D01*
G37*
%LPD*%
%LPC*%
G36*
X15266Y127159D02*
X15266Y127159D01*
X14619Y127332D01*
X14040Y127667D01*
X13567Y128140D01*
X13232Y128719D01*
X13059Y129366D01*
X13059Y137161D01*
X20561Y137161D01*
X20561Y127159D01*
X15266Y127159D01*
G37*
%LPD*%
%LPC*%
G36*
X181639Y142239D02*
X181639Y142239D01*
X181639Y151241D01*
X187434Y151241D01*
X188081Y151068D01*
X188660Y150733D01*
X189133Y150260D01*
X189468Y149681D01*
X189641Y149034D01*
X189641Y142239D01*
X181639Y142239D01*
G37*
%LPD*%
%LPC*%
G36*
X26639Y104139D02*
X26639Y104139D01*
X26639Y113141D01*
X32434Y113141D01*
X33081Y112968D01*
X33660Y112633D01*
X34133Y112160D01*
X34468Y111581D01*
X34641Y110934D01*
X34641Y104139D01*
X26639Y104139D01*
G37*
%LPD*%
%LPC*%
G36*
X118139Y128159D02*
X118139Y128159D01*
X118139Y137161D01*
X126141Y137161D01*
X126141Y130366D01*
X125968Y129719D01*
X125633Y129140D01*
X125160Y128667D01*
X124581Y128332D01*
X123934Y128159D01*
X118139Y128159D01*
G37*
%LPD*%
%LPC*%
G36*
X26639Y90059D02*
X26639Y90059D01*
X26639Y99061D01*
X34641Y99061D01*
X34641Y92266D01*
X34468Y91619D01*
X34133Y91040D01*
X33660Y90567D01*
X33081Y90232D01*
X32434Y90059D01*
X26639Y90059D01*
G37*
%LPD*%
%LPC*%
G36*
X168559Y142239D02*
X168559Y142239D01*
X168559Y149034D01*
X168732Y149681D01*
X169067Y150260D01*
X169540Y150733D01*
X170119Y151068D01*
X170766Y151241D01*
X176561Y151241D01*
X176561Y142239D01*
X168559Y142239D01*
G37*
%LPD*%
%LPC*%
G36*
X13559Y104139D02*
X13559Y104139D01*
X13559Y110934D01*
X13732Y111581D01*
X14067Y112160D01*
X14540Y112633D01*
X15119Y112968D01*
X15766Y113141D01*
X21561Y113141D01*
X21561Y104139D01*
X13559Y104139D01*
G37*
%LPD*%
%LPC*%
G36*
X107266Y128159D02*
X107266Y128159D01*
X106619Y128332D01*
X106040Y128667D01*
X105567Y129140D01*
X105232Y129719D01*
X105059Y130366D01*
X105059Y137161D01*
X113061Y137161D01*
X113061Y128159D01*
X107266Y128159D01*
G37*
%LPD*%
%LPC*%
G36*
X15766Y90059D02*
X15766Y90059D01*
X15119Y90232D01*
X14540Y90567D01*
X14067Y91040D01*
X13732Y91619D01*
X13559Y92266D01*
X13559Y99061D01*
X21561Y99061D01*
X21561Y90059D01*
X15766Y90059D01*
G37*
%LPD*%
%LPC*%
G36*
X115936Y86909D02*
X115936Y86909D01*
X115138Y87123D01*
X114422Y87537D01*
X113837Y88122D01*
X113423Y88838D01*
X113209Y89636D01*
X113209Y90581D01*
X121831Y90581D01*
X121831Y86909D01*
X115936Y86909D01*
G37*
%LPD*%
%LPC*%
G36*
X23099Y139699D02*
X23099Y139699D01*
X23099Y139701D01*
X23101Y139701D01*
X23101Y139699D01*
X23099Y139699D01*
G37*
%LPD*%
%LPC*%
G36*
X24099Y101599D02*
X24099Y101599D01*
X24099Y101601D01*
X24101Y101601D01*
X24101Y101599D01*
X24099Y101599D01*
G37*
%LPD*%
D10*
X53100Y139700D03*
X23100Y139700D03*
D11*
X52100Y101600D03*
X24100Y101600D03*
D12*
X203200Y152400D03*
D13*
X25400Y165100D03*
X25400Y63500D03*
D14*
X147066Y101600D03*
X208534Y101600D03*
X147066Y88900D03*
X147066Y76200D03*
X208534Y88900D03*
X208534Y76200D03*
X147066Y63500D03*
X208534Y63500D03*
X147066Y50800D03*
X147066Y38100D03*
X208534Y50800D03*
X208534Y38100D03*
X147066Y25400D03*
X208534Y25400D03*
D11*
X87600Y139700D03*
X115600Y139700D03*
X151100Y139700D03*
X179100Y139700D03*
D15*
X87380Y50800D03*
X115820Y50800D03*
D16*
X116350Y93650D02*
X129850Y93650D01*
X129850Y90050D01*
X116350Y90050D01*
X116350Y93650D01*
X116350Y91190D02*
X129850Y91190D01*
X129850Y92330D02*
X116350Y92330D01*
X116350Y93470D02*
X129850Y93470D01*
X129850Y100150D02*
X116350Y100150D01*
X129850Y100150D02*
X129850Y96550D01*
X116350Y96550D01*
X116350Y100150D01*
X116350Y97690D02*
X129850Y97690D01*
X129850Y98830D02*
X116350Y98830D01*
X116350Y99970D02*
X129850Y99970D01*
X129850Y106650D02*
X116350Y106650D01*
X129850Y106650D02*
X129850Y103050D01*
X116350Y103050D01*
X116350Y106650D01*
X116350Y104190D02*
X129850Y104190D01*
X129850Y105330D02*
X116350Y105330D01*
X116350Y106470D02*
X129850Y106470D01*
X129850Y113150D02*
X116350Y113150D01*
X129850Y113150D02*
X129850Y109550D01*
X116350Y109550D01*
X116350Y113150D01*
X116350Y110690D02*
X129850Y110690D01*
X129850Y111830D02*
X116350Y111830D01*
X116350Y112970D02*
X129850Y112970D01*
X86850Y113150D02*
X73350Y113150D01*
X86850Y113150D02*
X86850Y109550D01*
X73350Y109550D01*
X73350Y113150D01*
X73350Y110690D02*
X86850Y110690D01*
X86850Y111830D02*
X73350Y111830D01*
X73350Y112970D02*
X86850Y112970D01*
X86850Y106650D02*
X73350Y106650D01*
X86850Y106650D02*
X86850Y103050D01*
X73350Y103050D01*
X73350Y106650D01*
X73350Y104190D02*
X86850Y104190D01*
X86850Y105330D02*
X73350Y105330D01*
X73350Y106470D02*
X86850Y106470D01*
X86850Y100150D02*
X73350Y100150D01*
X86850Y100150D02*
X86850Y96550D01*
X73350Y96550D01*
X73350Y100150D01*
X73350Y97690D02*
X86850Y97690D01*
X86850Y98830D02*
X73350Y98830D01*
X73350Y99970D02*
X86850Y99970D01*
X86850Y93650D02*
X73350Y93650D01*
X86850Y93650D02*
X86850Y90050D01*
X73350Y90050D01*
X73350Y93650D01*
X73350Y91190D02*
X86850Y91190D01*
X86850Y92330D02*
X73350Y92330D01*
X73350Y93470D02*
X86850Y93470D01*
D13*
X63500Y165100D03*
X25400Y25400D03*
D17*
X123100Y98350D02*
X124914Y96536D01*
X131045Y96536D01*
X149733Y53467D02*
X147066Y50800D01*
X134620Y92961D02*
X131045Y96536D01*
X149733Y40767D02*
X147066Y38100D01*
X149733Y40767D02*
X149733Y50800D01*
X149733Y53467D01*
X139700Y54171D02*
X139700Y50800D01*
X139700Y54171D02*
X134620Y59251D01*
X134620Y92961D01*
X139700Y50800D02*
X149733Y50800D01*
X123100Y98350D02*
X104850Y98350D01*
X101600Y101600D01*
X50800Y63500D02*
X25400Y63500D01*
D18*
X101600Y101600D03*
X50800Y63500D03*
D17*
X52100Y101600D02*
X55350Y104850D01*
X80100Y104850D01*
X80100Y98350D01*
X81914Y96536D01*
X80100Y98350D02*
X92150Y98350D01*
X115820Y74680D02*
X115820Y50800D01*
X115820Y74680D02*
X92150Y98350D01*
X80100Y112700D02*
X53100Y139700D01*
X80100Y112700D02*
X80100Y111350D01*
X123100Y104850D02*
X124914Y103036D01*
X131045Y103036D01*
X132736Y101345D01*
X132736Y99235D01*
X143071Y88900D01*
X147066Y88900D01*
X147066Y76200D01*
X201422Y45212D02*
X208534Y38100D01*
X201422Y45212D02*
X197427Y45212D01*
X177800Y64839D01*
X177800Y88900D01*
X165100Y101600D01*
X147066Y101600D01*
X145288Y19812D02*
X135959Y19812D01*
X145288Y19812D02*
X152400Y12700D01*
X135959Y19812D02*
X130371Y25400D01*
X152400Y12700D02*
X195834Y12700D01*
X208534Y25400D01*
X130371Y25400D02*
X25400Y25400D01*
X190500Y76200D02*
X208534Y76200D01*
X165100Y63500D02*
X147066Y63500D01*
D18*
X165100Y63500D03*
X190500Y76200D03*
D17*
X208534Y63500D02*
X208534Y50800D01*
X219641Y96012D02*
X220980Y97351D01*
X219641Y96012D02*
X215646Y96012D01*
X208534Y88900D01*
X220980Y134620D02*
X203200Y152400D01*
X220980Y134620D02*
X220980Y97351D01*
D19*
X87380Y84570D02*
X80100Y91850D01*
X87380Y76200D02*
X87380Y50800D01*
X87380Y76200D02*
X87380Y84570D01*
X87600Y141000D02*
X63500Y165100D01*
X87600Y141000D02*
X87600Y139700D01*
X106443Y151494D02*
X124757Y151494D01*
X94649Y139700D02*
X87600Y139700D01*
X136551Y139700D02*
X151100Y139700D01*
X106443Y151494D02*
X94649Y139700D01*
X124757Y151494D02*
X136551Y139700D01*
X169943Y127906D02*
X182228Y127906D01*
X208534Y101600D01*
X158149Y139700D02*
X151100Y139700D01*
X158149Y139700D02*
X169943Y127906D01*
X151100Y139700D02*
X123100Y111700D01*
X123100Y111350D01*
X88900Y76200D02*
X87380Y76200D01*
D20*
X88900Y76200D03*
D19*
X88900Y138400D02*
X87600Y139700D01*
X88900Y138400D02*
X88900Y127000D01*
D20*
X88900Y127000D03*
X139700Y165100D03*
X139700Y114300D03*
X203200Y127000D03*
X228600Y63500D03*
X101600Y76200D03*
X63500Y38100D03*
X76200Y12700D03*
X25400Y177800D03*
X12700Y76200D03*
M02*
