G04 EAGLE Gerber RS-274X export*
G75*
%MOMM*%
%FSLAX34Y34*%
%LPD*%
%INTop Copper*%
%IPPOS*%
%AMOC8*
5,1,8,0,0,1.08239X$1,22.5*%
G01*
%ADD10R,1.500000X2.000000*%
%ADD11R,1.600000X1.800000*%
%ADD12R,1.270000X2.540000*%
%ADD13R,2.540000X1.270000*%
%ADD14R,2.032000X0.660400*%
%ADD15R,1.600000X1.803000*%
%ADD16R,1.254900X0.508000*%
%ADD17C,0.152400*%
%ADD18C,0.756400*%
%ADD19C,0.254000*%

G36*
X42821Y69355D02*
X42821Y69355D01*
X42920Y69358D01*
X42978Y69375D01*
X43039Y69383D01*
X43131Y69419D01*
X43226Y69447D01*
X43278Y69477D01*
X43334Y69500D01*
X43414Y69558D01*
X43500Y69608D01*
X43575Y69674D01*
X43592Y69686D01*
X43599Y69696D01*
X43621Y69714D01*
X53301Y79395D01*
X53386Y79504D01*
X53474Y79611D01*
X53483Y79630D01*
X53496Y79646D01*
X53551Y79774D01*
X53610Y79899D01*
X53614Y79919D01*
X53622Y79938D01*
X53644Y80076D01*
X53670Y80212D01*
X53669Y80232D01*
X53672Y80252D01*
X53659Y80391D01*
X53650Y80529D01*
X53644Y80548D01*
X53642Y80568D01*
X53595Y80700D01*
X53552Y80831D01*
X53541Y80849D01*
X53534Y80868D01*
X53456Y80983D01*
X53382Y81100D01*
X53367Y81114D01*
X53356Y81131D01*
X53251Y81223D01*
X53150Y81318D01*
X53133Y81328D01*
X53117Y81341D01*
X52993Y81405D01*
X52872Y81472D01*
X52852Y81477D01*
X52834Y81486D01*
X52698Y81516D01*
X52564Y81551D01*
X52536Y81553D01*
X52524Y81556D01*
X52503Y81555D01*
X52403Y81561D01*
X52284Y81561D01*
X50334Y82369D01*
X48841Y83862D01*
X48033Y85812D01*
X48033Y87924D01*
X48612Y89320D01*
X48625Y89368D01*
X48646Y89413D01*
X48667Y89521D01*
X48696Y89627D01*
X48697Y89677D01*
X48706Y89726D01*
X48699Y89835D01*
X48701Y89945D01*
X48689Y89993D01*
X48686Y90043D01*
X48652Y90147D01*
X48627Y90254D01*
X48603Y90298D01*
X48588Y90345D01*
X48529Y90438D01*
X48478Y90535D01*
X48445Y90572D01*
X48418Y90614D01*
X48338Y90689D01*
X48264Y90771D01*
X48222Y90798D01*
X48186Y90832D01*
X48090Y90885D01*
X47998Y90945D01*
X47951Y90962D01*
X47908Y90986D01*
X47802Y91013D01*
X47697Y91049D01*
X47648Y91053D01*
X47600Y91065D01*
X47439Y91075D01*
X43468Y91075D01*
X42575Y91968D01*
X42575Y111232D01*
X43468Y112125D01*
X60732Y112125D01*
X61625Y111232D01*
X61625Y91968D01*
X60732Y91075D01*
X59241Y91075D01*
X59191Y91069D01*
X59142Y91071D01*
X59034Y91049D01*
X58925Y91035D01*
X58879Y91017D01*
X58830Y91007D01*
X58732Y90959D01*
X58630Y90918D01*
X58589Y90889D01*
X58545Y90867D01*
X58461Y90796D01*
X58372Y90732D01*
X58341Y90693D01*
X58303Y90661D01*
X58240Y90571D01*
X58169Y90487D01*
X58148Y90442D01*
X58120Y90401D01*
X58081Y90298D01*
X58034Y90199D01*
X58025Y90150D01*
X58007Y90104D01*
X57995Y89994D01*
X57974Y89887D01*
X57977Y89837D01*
X57972Y89788D01*
X57987Y89679D01*
X57994Y89569D01*
X58009Y89522D01*
X58016Y89473D01*
X58068Y89320D01*
X58647Y87924D01*
X58647Y87805D01*
X58664Y87667D01*
X58677Y87529D01*
X58684Y87509D01*
X58687Y87489D01*
X58738Y87360D01*
X58785Y87229D01*
X58796Y87212D01*
X58804Y87194D01*
X58885Y87081D01*
X58963Y86966D01*
X58979Y86953D01*
X58990Y86936D01*
X59098Y86847D01*
X59202Y86756D01*
X59220Y86746D01*
X59235Y86734D01*
X59361Y86674D01*
X59485Y86611D01*
X59505Y86607D01*
X59523Y86598D01*
X59659Y86572D01*
X59795Y86541D01*
X59816Y86542D01*
X59835Y86538D01*
X59974Y86547D01*
X60113Y86551D01*
X60133Y86557D01*
X60153Y86558D01*
X60285Y86601D01*
X60419Y86639D01*
X60436Y86650D01*
X60455Y86656D01*
X60573Y86731D01*
X60693Y86801D01*
X60714Y86820D01*
X60724Y86826D01*
X60738Y86841D01*
X60813Y86907D01*
X64585Y90679D01*
X69479Y90679D01*
X69577Y90691D01*
X69676Y90694D01*
X69734Y90711D01*
X69794Y90719D01*
X69886Y90755D01*
X69981Y90783D01*
X70034Y90813D01*
X70090Y90836D01*
X70170Y90894D01*
X70255Y90944D01*
X70331Y91010D01*
X70347Y91022D01*
X70355Y91032D01*
X70376Y91050D01*
X71020Y91695D01*
X84833Y91695D01*
X85726Y90802D01*
X85726Y88976D01*
X85743Y88838D01*
X85756Y88700D01*
X85763Y88680D01*
X85766Y88660D01*
X85817Y88531D01*
X85864Y88400D01*
X85875Y88383D01*
X85883Y88365D01*
X85964Y88253D01*
X86042Y88137D01*
X86058Y88124D01*
X86069Y88107D01*
X86177Y88019D01*
X86281Y87927D01*
X86299Y87917D01*
X86314Y87905D01*
X86440Y87845D01*
X86564Y87782D01*
X86584Y87778D01*
X86602Y87769D01*
X86738Y87743D01*
X86874Y87712D01*
X86895Y87713D01*
X86914Y87709D01*
X87053Y87718D01*
X87192Y87722D01*
X87212Y87728D01*
X87232Y87729D01*
X87364Y87772D01*
X87498Y87810D01*
X87515Y87821D01*
X87534Y87827D01*
X87652Y87902D01*
X87772Y87972D01*
X87793Y87991D01*
X87803Y87997D01*
X87817Y88012D01*
X87892Y88078D01*
X99501Y99687D01*
X99574Y99781D01*
X99652Y99870D01*
X99671Y99906D01*
X99696Y99938D01*
X99743Y100047D01*
X99797Y100153D01*
X99806Y100192D01*
X99822Y100230D01*
X99841Y100347D01*
X99867Y100463D01*
X99865Y100504D01*
X99872Y100544D01*
X99861Y100662D01*
X99857Y100781D01*
X99846Y100820D01*
X99842Y100860D01*
X99802Y100973D01*
X99769Y101087D01*
X99748Y101122D01*
X99734Y101160D01*
X99667Y101258D01*
X99607Y101361D01*
X99567Y101406D01*
X99556Y101423D01*
X99540Y101436D01*
X99501Y101482D01*
X90677Y110305D01*
X90677Y127906D01*
X90662Y128024D01*
X90655Y128143D01*
X90642Y128181D01*
X90637Y128222D01*
X90594Y128332D01*
X90557Y128445D01*
X90535Y128480D01*
X90520Y128517D01*
X90451Y128613D01*
X90387Y128714D01*
X90357Y128742D01*
X90334Y128775D01*
X90242Y128851D01*
X90155Y128932D01*
X90120Y128952D01*
X90089Y128977D01*
X89981Y129028D01*
X89877Y129086D01*
X89837Y129096D01*
X89801Y129113D01*
X89684Y129135D01*
X89569Y129165D01*
X89509Y129169D01*
X89489Y129173D01*
X89468Y129171D01*
X89408Y129175D01*
X78968Y129175D01*
X78075Y130068D01*
X78075Y139145D01*
X78063Y139243D01*
X78060Y139342D01*
X78043Y139400D01*
X78035Y139461D01*
X77999Y139553D01*
X77971Y139648D01*
X77941Y139700D01*
X77918Y139756D01*
X77860Y139836D01*
X77810Y139922D01*
X77744Y139997D01*
X77732Y140014D01*
X77722Y140021D01*
X77704Y140043D01*
X61909Y155838D01*
X61908Y155838D01*
X60893Y156853D01*
X60814Y156914D01*
X60742Y156982D01*
X60689Y157011D01*
X60641Y157048D01*
X60550Y157088D01*
X60464Y157136D01*
X60405Y157151D01*
X60349Y157175D01*
X60251Y157190D01*
X60156Y157215D01*
X60056Y157221D01*
X60035Y157225D01*
X60023Y157223D01*
X59995Y157225D01*
X50168Y157225D01*
X49275Y158118D01*
X49275Y172082D01*
X50168Y172975D01*
X76832Y172975D01*
X77725Y172082D01*
X77725Y158118D01*
X76832Y157225D01*
X70053Y157225D01*
X69915Y157208D01*
X69777Y157195D01*
X69757Y157188D01*
X69737Y157185D01*
X69608Y157134D01*
X69477Y157087D01*
X69460Y157076D01*
X69442Y157068D01*
X69329Y156987D01*
X69214Y156909D01*
X69201Y156893D01*
X69184Y156882D01*
X69095Y156774D01*
X69004Y156670D01*
X68994Y156652D01*
X68982Y156637D01*
X68922Y156511D01*
X68859Y156387D01*
X68855Y156367D01*
X68846Y156349D01*
X68820Y156213D01*
X68789Y156077D01*
X68790Y156056D01*
X68786Y156037D01*
X68795Y155898D01*
X68799Y155759D01*
X68805Y155739D01*
X68806Y155719D01*
X68849Y155587D01*
X68887Y155453D01*
X68898Y155436D01*
X68904Y155417D01*
X68978Y155299D01*
X69049Y155179D01*
X69068Y155158D01*
X69074Y155148D01*
X69089Y155134D01*
X69155Y155059D01*
X75909Y148305D01*
X76018Y148220D01*
X76125Y148132D01*
X76144Y148123D01*
X76160Y148110D01*
X76288Y148055D01*
X76413Y147996D01*
X76433Y147992D01*
X76452Y147984D01*
X76590Y147962D01*
X76726Y147936D01*
X76746Y147937D01*
X76766Y147934D01*
X76905Y147947D01*
X77043Y147956D01*
X77062Y147962D01*
X77082Y147964D01*
X77214Y148011D01*
X77345Y148054D01*
X77363Y148065D01*
X77382Y148072D01*
X77497Y148150D01*
X77614Y148224D01*
X77628Y148239D01*
X77645Y148250D01*
X77737Y148354D01*
X77832Y148456D01*
X77842Y148474D01*
X77855Y148489D01*
X77919Y148613D01*
X77986Y148734D01*
X77991Y148754D01*
X78000Y148772D01*
X78030Y148908D01*
X78065Y149042D01*
X78067Y149070D01*
X78070Y149082D01*
X78069Y149103D01*
X78075Y149203D01*
X78075Y149332D01*
X78968Y150225D01*
X96232Y150225D01*
X97125Y149332D01*
X97125Y141702D01*
X97137Y141604D01*
X97140Y141505D01*
X97157Y141447D01*
X97165Y141387D01*
X97201Y141294D01*
X97229Y141199D01*
X97259Y141147D01*
X97282Y141091D01*
X97340Y141011D01*
X97390Y140925D01*
X97443Y140865D01*
X97443Y138527D01*
X97436Y138517D01*
X97368Y138445D01*
X97339Y138392D01*
X97302Y138344D01*
X97262Y138253D01*
X97214Y138167D01*
X97199Y138108D01*
X97175Y138052D01*
X97160Y137954D01*
X97135Y137859D01*
X97129Y137759D01*
X97125Y137738D01*
X97127Y137726D01*
X97125Y137698D01*
X97125Y130068D01*
X96183Y129127D01*
X96094Y129092D01*
X95981Y129055D01*
X95946Y129033D01*
X95909Y129018D01*
X95813Y128949D01*
X95712Y128885D01*
X95684Y128855D01*
X95651Y128832D01*
X95575Y128740D01*
X95494Y128653D01*
X95474Y128618D01*
X95449Y128587D01*
X95398Y128479D01*
X95340Y128375D01*
X95330Y128335D01*
X95313Y128299D01*
X95291Y128182D01*
X95261Y128067D01*
X95257Y128007D01*
X95253Y127987D01*
X95255Y127966D01*
X95251Y127906D01*
X95251Y112725D01*
X95263Y112627D01*
X95266Y112528D01*
X95283Y112470D01*
X95291Y112409D01*
X95327Y112317D01*
X95355Y112222D01*
X95385Y112170D01*
X95408Y112114D01*
X95466Y112034D01*
X95516Y111948D01*
X95582Y111873D01*
X95594Y111856D01*
X95604Y111849D01*
X95622Y111827D01*
X104207Y103242D01*
X104286Y103182D01*
X104358Y103114D01*
X104411Y103085D01*
X104459Y103048D01*
X104550Y103008D01*
X104636Y102960D01*
X104695Y102945D01*
X104751Y102921D01*
X104849Y102906D01*
X104944Y102881D01*
X105044Y102875D01*
X105065Y102871D01*
X105077Y102873D01*
X105105Y102871D01*
X121398Y102871D01*
X121496Y102883D01*
X121595Y102886D01*
X121653Y102903D01*
X121713Y102911D01*
X121805Y102947D01*
X121900Y102975D01*
X121953Y103005D01*
X122009Y103028D01*
X122089Y103086D01*
X122174Y103136D01*
X122250Y103202D01*
X122266Y103214D01*
X122274Y103224D01*
X122295Y103242D01*
X123447Y104395D01*
X127508Y104395D01*
X127626Y104410D01*
X127745Y104417D01*
X127783Y104430D01*
X127824Y104435D01*
X127934Y104478D01*
X128047Y104515D01*
X128082Y104537D01*
X128119Y104552D01*
X128215Y104621D01*
X128316Y104685D01*
X128344Y104715D01*
X128377Y104738D01*
X128453Y104830D01*
X128534Y104917D01*
X128554Y104952D01*
X128579Y104983D01*
X128630Y105091D01*
X128688Y105195D01*
X128698Y105235D01*
X128715Y105271D01*
X128737Y105388D01*
X128767Y105503D01*
X128771Y105563D01*
X128775Y105583D01*
X128773Y105604D01*
X128777Y105664D01*
X128777Y112199D01*
X143587Y127009D01*
X143672Y127118D01*
X143760Y127225D01*
X143769Y127244D01*
X143782Y127260D01*
X143837Y127387D01*
X143896Y127513D01*
X143900Y127533D01*
X143908Y127552D01*
X143930Y127690D01*
X143956Y127826D01*
X143955Y127846D01*
X143958Y127866D01*
X143945Y128005D01*
X143936Y128143D01*
X143930Y128162D01*
X143928Y128182D01*
X143881Y128313D01*
X143838Y128445D01*
X143827Y128463D01*
X143820Y128482D01*
X143742Y128597D01*
X143668Y128714D01*
X143653Y128728D01*
X143642Y128745D01*
X143538Y128837D01*
X143436Y128932D01*
X143418Y128942D01*
X143403Y128955D01*
X143280Y129018D01*
X143158Y129086D01*
X143138Y129091D01*
X143120Y129100D01*
X142984Y129130D01*
X142850Y129165D01*
X142822Y129167D01*
X142810Y129170D01*
X142789Y129169D01*
X142689Y129175D01*
X142468Y129175D01*
X141575Y130068D01*
X141575Y149332D01*
X142468Y150225D01*
X159732Y150225D01*
X160625Y149332D01*
X160625Y130068D01*
X159732Y129175D01*
X159063Y129175D01*
X158925Y129158D01*
X158787Y129145D01*
X158767Y129138D01*
X158747Y129135D01*
X158618Y129084D01*
X158487Y129037D01*
X158470Y129026D01*
X158452Y129018D01*
X158340Y128937D01*
X158224Y128859D01*
X158211Y128843D01*
X158194Y128832D01*
X158106Y128724D01*
X158014Y128620D01*
X158004Y128602D01*
X157992Y128587D01*
X157932Y128461D01*
X157869Y128337D01*
X157865Y128317D01*
X157856Y128299D01*
X157830Y128163D01*
X157799Y128027D01*
X157800Y128006D01*
X157796Y127987D01*
X157805Y127848D01*
X157809Y127709D01*
X157815Y127689D01*
X157816Y127669D01*
X157859Y127537D01*
X157897Y127403D01*
X157908Y127386D01*
X157914Y127367D01*
X157988Y127249D01*
X158059Y127129D01*
X158078Y127108D01*
X158084Y127098D01*
X158099Y127084D01*
X158165Y127009D01*
X180407Y104766D01*
X180486Y104706D01*
X180558Y104638D01*
X180611Y104609D01*
X180659Y104572D01*
X180750Y104532D01*
X180836Y104484D01*
X180895Y104469D01*
X180951Y104445D01*
X181049Y104430D01*
X181144Y104405D01*
X181244Y104399D01*
X181265Y104395D01*
X181277Y104397D01*
X181305Y104395D01*
X205740Y104395D01*
X205858Y104410D01*
X205977Y104417D01*
X206015Y104430D01*
X206056Y104435D01*
X206166Y104478D01*
X206279Y104515D01*
X206314Y104537D01*
X206351Y104552D01*
X206447Y104621D01*
X206548Y104685D01*
X206576Y104715D01*
X206609Y104738D01*
X206685Y104830D01*
X206766Y104917D01*
X206786Y104952D01*
X206811Y104983D01*
X206862Y105091D01*
X206920Y105195D01*
X206930Y105235D01*
X206947Y105271D01*
X206969Y105388D01*
X206999Y105503D01*
X207000Y105525D01*
X207902Y106427D01*
X229670Y106427D01*
X229788Y106442D01*
X229907Y106449D01*
X229945Y106462D01*
X229986Y106467D01*
X230096Y106510D01*
X230209Y106547D01*
X230244Y106569D01*
X230281Y106584D01*
X230377Y106653D01*
X230478Y106717D01*
X230506Y106747D01*
X230539Y106770D01*
X230615Y106862D01*
X230696Y106949D01*
X230716Y106984D01*
X230741Y107015D01*
X230792Y107123D01*
X230850Y107227D01*
X230860Y107267D01*
X230877Y107303D01*
X230899Y107420D01*
X230929Y107535D01*
X230933Y107595D01*
X230937Y107615D01*
X230935Y107636D01*
X230939Y107696D01*
X230939Y175770D01*
X230924Y175888D01*
X230917Y176007D01*
X230904Y176045D01*
X230899Y176086D01*
X230856Y176196D01*
X230819Y176309D01*
X230797Y176344D01*
X230782Y176381D01*
X230713Y176477D01*
X230649Y176578D01*
X230619Y176606D01*
X230596Y176639D01*
X230504Y176715D01*
X230417Y176796D01*
X230382Y176816D01*
X230351Y176841D01*
X230243Y176892D01*
X230139Y176950D01*
X230099Y176960D01*
X230063Y176977D01*
X229946Y176999D01*
X229831Y177029D01*
X229771Y177033D01*
X229751Y177037D01*
X229730Y177035D01*
X229670Y177039D01*
X11430Y177039D01*
X11312Y177024D01*
X11193Y177017D01*
X11155Y177004D01*
X11114Y176999D01*
X11004Y176956D01*
X10891Y176919D01*
X10856Y176897D01*
X10819Y176882D01*
X10723Y176813D01*
X10622Y176749D01*
X10594Y176719D01*
X10561Y176696D01*
X10485Y176604D01*
X10404Y176517D01*
X10384Y176482D01*
X10359Y176451D01*
X10308Y176343D01*
X10250Y176239D01*
X10240Y176199D01*
X10223Y176163D01*
X10201Y176046D01*
X10171Y175931D01*
X10167Y175871D01*
X10163Y175851D01*
X10165Y175830D01*
X10161Y175770D01*
X10161Y175054D01*
X10177Y174929D01*
X10186Y174804D01*
X10196Y174772D01*
X10201Y174739D01*
X10247Y174621D01*
X10287Y174502D01*
X10305Y174474D01*
X10318Y174443D01*
X10392Y174341D01*
X10460Y174236D01*
X10485Y174213D01*
X10504Y174185D01*
X10601Y174105D01*
X10694Y174020D01*
X10723Y174004D01*
X10749Y173983D01*
X10863Y173929D01*
X10974Y173870D01*
X11007Y173861D01*
X11037Y173847D01*
X11160Y173824D01*
X11283Y173793D01*
X11316Y173794D01*
X11349Y173787D01*
X11475Y173795D01*
X11601Y173796D01*
X11649Y173806D01*
X11667Y173807D01*
X11687Y173814D01*
X11759Y173828D01*
X12365Y173991D01*
X22861Y173991D01*
X22861Y166370D01*
X22876Y166252D01*
X22883Y166133D01*
X22896Y166095D01*
X22901Y166055D01*
X22944Y165944D01*
X22981Y165831D01*
X23003Y165796D01*
X23018Y165759D01*
X23088Y165663D01*
X23151Y165562D01*
X23181Y165534D01*
X23205Y165502D01*
X23296Y165426D01*
X23383Y165344D01*
X23418Y165325D01*
X23449Y165299D01*
X23557Y165248D01*
X23661Y165191D01*
X23701Y165180D01*
X23737Y165163D01*
X23854Y165141D01*
X23969Y165111D01*
X24030Y165107D01*
X24050Y165103D01*
X24070Y165105D01*
X24130Y165101D01*
X25401Y165101D01*
X25401Y165099D01*
X24130Y165099D01*
X24012Y165084D01*
X23893Y165077D01*
X23855Y165064D01*
X23815Y165059D01*
X23704Y165015D01*
X23591Y164979D01*
X23556Y164957D01*
X23519Y164942D01*
X23423Y164872D01*
X23322Y164809D01*
X23294Y164779D01*
X23261Y164755D01*
X23186Y164664D01*
X23104Y164577D01*
X23084Y164542D01*
X23059Y164510D01*
X23008Y164403D01*
X22950Y164299D01*
X22940Y164259D01*
X22923Y164223D01*
X22901Y164106D01*
X22871Y163991D01*
X22867Y163930D01*
X22863Y163910D01*
X22865Y163890D01*
X22861Y163830D01*
X22861Y156209D01*
X12366Y156209D01*
X11759Y156372D01*
X11634Y156389D01*
X11510Y156413D01*
X11477Y156411D01*
X11443Y156415D01*
X11318Y156401D01*
X11193Y156393D01*
X11161Y156382D01*
X11128Y156379D01*
X11010Y156334D01*
X10891Y156295D01*
X10862Y156277D01*
X10831Y156265D01*
X10728Y156192D01*
X10622Y156125D01*
X10599Y156100D01*
X10571Y156081D01*
X10490Y155985D01*
X10404Y155893D01*
X10388Y155864D01*
X10366Y155838D01*
X10311Y155725D01*
X10250Y155615D01*
X10242Y155582D01*
X10227Y155552D01*
X10202Y155428D01*
X10171Y155307D01*
X10168Y155258D01*
X10164Y155240D01*
X10165Y155218D01*
X10161Y155146D01*
X10161Y72531D01*
X10178Y72393D01*
X10191Y72255D01*
X10198Y72236D01*
X10201Y72216D01*
X10252Y72086D01*
X10299Y71955D01*
X10310Y71939D01*
X10318Y71920D01*
X10399Y71808D01*
X10477Y71692D01*
X10493Y71679D01*
X10504Y71663D01*
X10612Y71574D01*
X10716Y71482D01*
X10734Y71473D01*
X10749Y71460D01*
X10875Y71401D01*
X10999Y71337D01*
X11019Y71333D01*
X11037Y71324D01*
X11173Y71298D01*
X11310Y71268D01*
X11330Y71268D01*
X11349Y71265D01*
X11488Y71273D01*
X11627Y71277D01*
X11647Y71283D01*
X11667Y71284D01*
X11799Y71327D01*
X11933Y71366D01*
X11948Y71375D01*
X38732Y71375D01*
X39641Y70465D01*
X39647Y70375D01*
X39660Y70337D01*
X39665Y70296D01*
X39708Y70186D01*
X39745Y70073D01*
X39767Y70038D01*
X39782Y70001D01*
X39851Y69905D01*
X39915Y69804D01*
X39945Y69776D01*
X39968Y69743D01*
X40060Y69667D01*
X40147Y69586D01*
X40182Y69566D01*
X40213Y69541D01*
X40321Y69490D01*
X40425Y69432D01*
X40465Y69422D01*
X40501Y69405D01*
X40618Y69383D01*
X40733Y69353D01*
X40793Y69349D01*
X40813Y69345D01*
X40834Y69347D01*
X40894Y69343D01*
X42723Y69343D01*
X42821Y69355D01*
G37*
G36*
X167789Y16015D02*
X167789Y16015D01*
X167888Y16018D01*
X167946Y16035D01*
X168007Y16043D01*
X168099Y16079D01*
X168194Y16107D01*
X168246Y16137D01*
X168302Y16160D01*
X168382Y16218D01*
X168468Y16268D01*
X168543Y16334D01*
X168560Y16346D01*
X168567Y16356D01*
X168589Y16374D01*
X169741Y17527D01*
X170739Y17527D01*
X170837Y17539D01*
X170936Y17542D01*
X170994Y17559D01*
X171055Y17567D01*
X171147Y17603D01*
X171242Y17631D01*
X171294Y17661D01*
X171350Y17684D01*
X171430Y17742D01*
X171516Y17792D01*
X171591Y17858D01*
X171608Y17870D01*
X171615Y17880D01*
X171637Y17898D01*
X181933Y28195D01*
X205740Y28195D01*
X205858Y28210D01*
X205977Y28217D01*
X206015Y28230D01*
X206056Y28235D01*
X206166Y28278D01*
X206279Y28315D01*
X206314Y28337D01*
X206351Y28352D01*
X206447Y28421D01*
X206548Y28485D01*
X206576Y28515D01*
X206609Y28538D01*
X206685Y28630D01*
X206766Y28717D01*
X206786Y28752D01*
X206811Y28783D01*
X206862Y28891D01*
X206920Y28995D01*
X206930Y29035D01*
X206947Y29071D01*
X206969Y29188D01*
X206999Y29303D01*
X207000Y29325D01*
X207902Y30227D01*
X229670Y30227D01*
X229788Y30242D01*
X229907Y30249D01*
X229945Y30262D01*
X229986Y30267D01*
X230096Y30310D01*
X230209Y30347D01*
X230244Y30369D01*
X230281Y30384D01*
X230377Y30453D01*
X230478Y30517D01*
X230506Y30547D01*
X230539Y30570D01*
X230615Y30662D01*
X230696Y30749D01*
X230716Y30784D01*
X230741Y30815D01*
X230792Y30923D01*
X230850Y31027D01*
X230860Y31067D01*
X230877Y31103D01*
X230899Y31220D01*
X230929Y31335D01*
X230933Y31395D01*
X230937Y31415D01*
X230935Y31436D01*
X230939Y31496D01*
X230939Y32004D01*
X230924Y32122D01*
X230917Y32241D01*
X230904Y32279D01*
X230899Y32320D01*
X230856Y32430D01*
X230819Y32543D01*
X230797Y32578D01*
X230782Y32615D01*
X230713Y32711D01*
X230649Y32812D01*
X230619Y32840D01*
X230596Y32873D01*
X230504Y32949D01*
X230417Y33030D01*
X230382Y33050D01*
X230351Y33075D01*
X230243Y33126D01*
X230139Y33184D01*
X230099Y33194D01*
X230063Y33211D01*
X229946Y33233D01*
X229831Y33263D01*
X229771Y33267D01*
X229751Y33271D01*
X229730Y33269D01*
X229670Y33273D01*
X207902Y33273D01*
X207009Y34166D01*
X207009Y34544D01*
X206994Y34662D01*
X206987Y34781D01*
X206974Y34819D01*
X206969Y34860D01*
X206926Y34970D01*
X206889Y35083D01*
X206867Y35118D01*
X206852Y35155D01*
X206783Y35251D01*
X206719Y35352D01*
X206689Y35380D01*
X206666Y35413D01*
X206574Y35489D01*
X206487Y35570D01*
X206452Y35590D01*
X206421Y35615D01*
X206313Y35666D01*
X206209Y35724D01*
X206169Y35734D01*
X206133Y35751D01*
X206016Y35773D01*
X205901Y35803D01*
X205841Y35807D01*
X205821Y35811D01*
X205800Y35809D01*
X205740Y35813D01*
X186505Y35813D01*
X171077Y51241D01*
X170968Y51326D01*
X170861Y51414D01*
X170842Y51423D01*
X170826Y51436D01*
X170698Y51491D01*
X170573Y51550D01*
X170553Y51554D01*
X170534Y51562D01*
X170396Y51584D01*
X170260Y51610D01*
X170240Y51609D01*
X170220Y51612D01*
X170081Y51599D01*
X169943Y51590D01*
X169924Y51584D01*
X169904Y51582D01*
X169772Y51535D01*
X169641Y51492D01*
X169623Y51481D01*
X169604Y51474D01*
X169489Y51396D01*
X169372Y51322D01*
X169358Y51307D01*
X169341Y51296D01*
X169249Y51192D01*
X169154Y51090D01*
X169144Y51072D01*
X169131Y51057D01*
X169067Y50933D01*
X169000Y50812D01*
X168995Y50792D01*
X168986Y50774D01*
X168956Y50638D01*
X168921Y50504D01*
X168919Y50476D01*
X168916Y50464D01*
X168917Y50443D01*
X168911Y50343D01*
X168911Y46866D01*
X168018Y45973D01*
X160528Y45973D01*
X160410Y45958D01*
X160291Y45951D01*
X160253Y45938D01*
X160212Y45933D01*
X160102Y45890D01*
X159989Y45853D01*
X159954Y45831D01*
X159917Y45816D01*
X159821Y45747D01*
X159720Y45683D01*
X159692Y45653D01*
X159659Y45630D01*
X159583Y45538D01*
X159502Y45451D01*
X159482Y45416D01*
X159457Y45385D01*
X159406Y45277D01*
X159348Y45173D01*
X159338Y45133D01*
X159321Y45097D01*
X159299Y44980D01*
X159269Y44865D01*
X159265Y44805D01*
X159261Y44785D01*
X159263Y44764D01*
X159259Y44704D01*
X159259Y44196D01*
X159274Y44078D01*
X159281Y43959D01*
X159294Y43921D01*
X159299Y43880D01*
X159342Y43770D01*
X159379Y43657D01*
X159401Y43622D01*
X159416Y43585D01*
X159485Y43489D01*
X159549Y43388D01*
X159579Y43360D01*
X159602Y43327D01*
X159694Y43251D01*
X159781Y43170D01*
X159816Y43150D01*
X159847Y43125D01*
X159955Y43074D01*
X160059Y43016D01*
X160099Y43006D01*
X160135Y42989D01*
X160252Y42967D01*
X160367Y42937D01*
X160427Y42933D01*
X160447Y42929D01*
X160468Y42931D01*
X160528Y42927D01*
X168018Y42927D01*
X168911Y42034D01*
X168911Y34166D01*
X167908Y33164D01*
X167827Y33059D01*
X167741Y32958D01*
X167729Y32934D01*
X167713Y32912D01*
X167660Y32791D01*
X167603Y32671D01*
X167597Y32645D01*
X167587Y32620D01*
X167566Y32489D01*
X167540Y32360D01*
X167541Y32333D01*
X167537Y32306D01*
X167549Y32174D01*
X167556Y32042D01*
X167564Y32017D01*
X167567Y31990D01*
X167612Y31865D01*
X167651Y31738D01*
X167665Y31716D01*
X167674Y31690D01*
X167749Y31581D01*
X167818Y31468D01*
X167838Y31450D01*
X167853Y31427D01*
X167952Y31340D01*
X168048Y31248D01*
X168071Y31235D01*
X168091Y31217D01*
X168209Y31156D01*
X168325Y31091D01*
X168335Y31088D01*
X168946Y30735D01*
X169419Y30262D01*
X169754Y29683D01*
X169927Y29036D01*
X169927Y27050D01*
X157607Y27050D01*
X157489Y27035D01*
X157370Y27028D01*
X157332Y27015D01*
X157292Y27010D01*
X157236Y26988D01*
X157121Y27010D01*
X157005Y27040D01*
X156945Y27044D01*
X156925Y27048D01*
X156905Y27046D01*
X156845Y27050D01*
X144525Y27050D01*
X144525Y29036D01*
X144698Y29683D01*
X145033Y30262D01*
X145506Y30735D01*
X146159Y31112D01*
X146222Y31135D01*
X146245Y31150D01*
X146269Y31160D01*
X146376Y31239D01*
X146485Y31313D01*
X146503Y31334D01*
X146525Y31350D01*
X146608Y31453D01*
X146696Y31552D01*
X146708Y31576D01*
X146725Y31597D01*
X146780Y31717D01*
X146840Y31835D01*
X146846Y31861D01*
X146858Y31886D01*
X146881Y32016D01*
X146910Y32145D01*
X146909Y32172D01*
X146914Y32199D01*
X146905Y32331D01*
X146900Y32463D01*
X146893Y32489D01*
X146891Y32516D01*
X146849Y32642D01*
X146812Y32769D01*
X146798Y32792D01*
X146790Y32817D01*
X146718Y32929D01*
X146651Y33043D01*
X146625Y33071D01*
X146617Y33084D01*
X146601Y33099D01*
X146544Y33164D01*
X145541Y34166D01*
X145541Y34544D01*
X145526Y34662D01*
X145519Y34781D01*
X145506Y34819D01*
X145501Y34860D01*
X145458Y34970D01*
X145421Y35083D01*
X145399Y35118D01*
X145384Y35155D01*
X145315Y35251D01*
X145251Y35352D01*
X145221Y35380D01*
X145198Y35413D01*
X145106Y35489D01*
X145019Y35570D01*
X144984Y35590D01*
X144953Y35615D01*
X144845Y35666D01*
X144741Y35724D01*
X144701Y35734D01*
X144665Y35751D01*
X144548Y35773D01*
X144433Y35803D01*
X144373Y35807D01*
X144353Y35811D01*
X144332Y35809D01*
X144272Y35813D01*
X141681Y35813D01*
X141583Y35801D01*
X141484Y35798D01*
X141426Y35781D01*
X141365Y35773D01*
X141273Y35737D01*
X141178Y35709D01*
X141126Y35679D01*
X141070Y35656D01*
X140990Y35598D01*
X140904Y35548D01*
X140829Y35482D01*
X140812Y35470D01*
X140805Y35460D01*
X140783Y35442D01*
X127439Y22097D01*
X75253Y22097D01*
X43433Y53917D01*
X43433Y63500D01*
X43418Y63618D01*
X43411Y63737D01*
X43398Y63775D01*
X43393Y63816D01*
X43350Y63926D01*
X43313Y64039D01*
X43291Y64074D01*
X43276Y64111D01*
X43207Y64207D01*
X43143Y64308D01*
X43113Y64336D01*
X43090Y64369D01*
X42998Y64445D01*
X42911Y64526D01*
X42876Y64546D01*
X42845Y64571D01*
X42737Y64622D01*
X42633Y64680D01*
X42593Y64690D01*
X42557Y64707D01*
X42440Y64729D01*
X42325Y64759D01*
X42265Y64763D01*
X42245Y64767D01*
X42224Y64765D01*
X42164Y64769D01*
X40894Y64769D01*
X40776Y64754D01*
X40657Y64747D01*
X40619Y64734D01*
X40578Y64729D01*
X40468Y64686D01*
X40355Y64649D01*
X40320Y64627D01*
X40283Y64612D01*
X40187Y64543D01*
X40086Y64479D01*
X40058Y64449D01*
X40025Y64426D01*
X39949Y64334D01*
X39868Y64247D01*
X39848Y64212D01*
X39823Y64181D01*
X39772Y64073D01*
X39714Y63969D01*
X39704Y63929D01*
X39687Y63893D01*
X39665Y63776D01*
X39635Y63661D01*
X39631Y63601D01*
X39627Y63581D01*
X39629Y63560D01*
X39628Y63554D01*
X39627Y63550D01*
X39628Y63545D01*
X39625Y63500D01*
X39625Y56518D01*
X38732Y55625D01*
X11930Y55625D01*
X11823Y55676D01*
X11803Y55679D01*
X11785Y55687D01*
X11647Y55709D01*
X11510Y55735D01*
X11490Y55734D01*
X11470Y55737D01*
X11332Y55724D01*
X11193Y55716D01*
X11174Y55709D01*
X11154Y55708D01*
X11023Y55660D01*
X10891Y55618D01*
X10873Y55607D01*
X10855Y55600D01*
X10740Y55522D01*
X10622Y55447D01*
X10608Y55433D01*
X10591Y55421D01*
X10499Y55317D01*
X10404Y55216D01*
X10394Y55198D01*
X10381Y55183D01*
X10317Y55059D01*
X10250Y54937D01*
X10245Y54918D01*
X10236Y54900D01*
X10206Y54764D01*
X10171Y54629D01*
X10169Y54602D01*
X10166Y54590D01*
X10167Y54569D01*
X10161Y54469D01*
X10161Y34431D01*
X10178Y34293D01*
X10191Y34155D01*
X10198Y34136D01*
X10201Y34116D01*
X10252Y33986D01*
X10299Y33855D01*
X10310Y33839D01*
X10318Y33820D01*
X10399Y33708D01*
X10477Y33592D01*
X10493Y33579D01*
X10504Y33563D01*
X10612Y33474D01*
X10716Y33382D01*
X10734Y33373D01*
X10749Y33360D01*
X10875Y33301D01*
X10999Y33237D01*
X11019Y33233D01*
X11037Y33224D01*
X11173Y33198D01*
X11310Y33168D01*
X11330Y33168D01*
X11349Y33165D01*
X11488Y33173D01*
X11627Y33177D01*
X11647Y33183D01*
X11667Y33184D01*
X11799Y33227D01*
X11933Y33266D01*
X11948Y33275D01*
X38732Y33275D01*
X39625Y32382D01*
X39625Y28143D01*
X39637Y28045D01*
X39640Y27946D01*
X39657Y27888D01*
X39665Y27827D01*
X39701Y27735D01*
X39729Y27640D01*
X39759Y27588D01*
X39782Y27532D01*
X39840Y27452D01*
X39890Y27366D01*
X39956Y27291D01*
X39968Y27274D01*
X39978Y27267D01*
X39996Y27245D01*
X49343Y17898D01*
X49422Y17838D01*
X49494Y17770D01*
X49547Y17741D01*
X49595Y17704D01*
X49686Y17664D01*
X49772Y17616D01*
X49831Y17601D01*
X49887Y17577D01*
X49985Y17562D01*
X50080Y17537D01*
X50180Y17531D01*
X50201Y17527D01*
X50213Y17529D01*
X50241Y17527D01*
X144203Y17527D01*
X145355Y16374D01*
X145434Y16314D01*
X145506Y16246D01*
X145559Y16217D01*
X145607Y16180D01*
X145698Y16140D01*
X145784Y16092D01*
X145843Y16077D01*
X145899Y16053D01*
X145997Y16038D01*
X146092Y16013D01*
X146192Y16007D01*
X146213Y16003D01*
X146225Y16005D01*
X146253Y16003D01*
X167691Y16003D01*
X167789Y16015D01*
G37*
G36*
X125117Y26683D02*
X125117Y26683D01*
X125216Y26686D01*
X125274Y26703D01*
X125335Y26711D01*
X125427Y26747D01*
X125522Y26775D01*
X125574Y26805D01*
X125630Y26828D01*
X125710Y26886D01*
X125796Y26936D01*
X125871Y27002D01*
X125888Y27014D01*
X125895Y27024D01*
X125917Y27042D01*
X139261Y40387D01*
X144272Y40387D01*
X144390Y40402D01*
X144509Y40409D01*
X144547Y40422D01*
X144588Y40427D01*
X144698Y40470D01*
X144811Y40507D01*
X144846Y40529D01*
X144883Y40544D01*
X144979Y40613D01*
X145080Y40677D01*
X145108Y40707D01*
X145141Y40730D01*
X145217Y40822D01*
X145298Y40909D01*
X145318Y40944D01*
X145343Y40975D01*
X145394Y41083D01*
X145452Y41187D01*
X145462Y41227D01*
X145479Y41263D01*
X145501Y41380D01*
X145531Y41495D01*
X145535Y41555D01*
X145539Y41575D01*
X145537Y41596D01*
X145541Y41656D01*
X145541Y42034D01*
X146434Y42927D01*
X153416Y42927D01*
X153534Y42942D01*
X153653Y42949D01*
X153691Y42962D01*
X153732Y42967D01*
X153842Y43010D01*
X153955Y43047D01*
X153990Y43069D01*
X154027Y43084D01*
X154123Y43153D01*
X154224Y43217D01*
X154252Y43247D01*
X154285Y43270D01*
X154361Y43362D01*
X154442Y43449D01*
X154462Y43484D01*
X154487Y43515D01*
X154538Y43623D01*
X154596Y43727D01*
X154606Y43767D01*
X154623Y43803D01*
X154645Y43920D01*
X154675Y44035D01*
X154679Y44095D01*
X154683Y44115D01*
X154681Y44136D01*
X154685Y44196D01*
X154685Y44704D01*
X154670Y44822D01*
X154663Y44941D01*
X154650Y44979D01*
X154645Y45020D01*
X154602Y45130D01*
X154565Y45243D01*
X154543Y45278D01*
X154528Y45315D01*
X154459Y45411D01*
X154395Y45512D01*
X154365Y45540D01*
X154342Y45573D01*
X154250Y45649D01*
X154163Y45730D01*
X154128Y45750D01*
X154097Y45775D01*
X153989Y45826D01*
X153885Y45884D01*
X153845Y45894D01*
X153809Y45911D01*
X153692Y45933D01*
X153577Y45963D01*
X153517Y45967D01*
X153497Y45971D01*
X153476Y45969D01*
X153416Y45973D01*
X146434Y45973D01*
X145541Y46866D01*
X145541Y53391D01*
X145529Y53489D01*
X145526Y53588D01*
X145509Y53647D01*
X145501Y53707D01*
X145465Y53799D01*
X145437Y53894D01*
X145407Y53946D01*
X145384Y54002D01*
X145326Y54082D01*
X145276Y54168D01*
X145210Y54243D01*
X145198Y54260D01*
X145188Y54267D01*
X145170Y54289D01*
X142681Y56778D01*
X140969Y58489D01*
X140969Y60383D01*
X142122Y61535D01*
X142182Y61614D01*
X142250Y61686D01*
X142279Y61739D01*
X142316Y61787D01*
X142356Y61878D01*
X142404Y61964D01*
X142419Y62023D01*
X142443Y62079D01*
X142458Y62177D01*
X142483Y62272D01*
X142489Y62372D01*
X142493Y62393D01*
X142491Y62405D01*
X142493Y62433D01*
X142493Y69527D01*
X143646Y70679D01*
X145170Y72203D01*
X145230Y72282D01*
X145298Y72354D01*
X145327Y72407D01*
X145364Y72455D01*
X145404Y72546D01*
X145452Y72632D01*
X145467Y72691D01*
X145491Y72747D01*
X145506Y72845D01*
X145531Y72940D01*
X145537Y73040D01*
X145541Y73061D01*
X145539Y73073D01*
X145541Y73101D01*
X145541Y80134D01*
X146434Y81027D01*
X153416Y81027D01*
X153534Y81042D01*
X153653Y81049D01*
X153691Y81062D01*
X153732Y81067D01*
X153842Y81110D01*
X153955Y81147D01*
X153990Y81169D01*
X154027Y81184D01*
X154123Y81253D01*
X154224Y81317D01*
X154252Y81347D01*
X154285Y81370D01*
X154361Y81462D01*
X154442Y81549D01*
X154462Y81584D01*
X154487Y81615D01*
X154538Y81723D01*
X154596Y81827D01*
X154606Y81867D01*
X154623Y81903D01*
X154645Y82020D01*
X154675Y82135D01*
X154679Y82195D01*
X154683Y82215D01*
X154681Y82236D01*
X154685Y82296D01*
X154685Y82804D01*
X154670Y82922D01*
X154663Y83041D01*
X154650Y83079D01*
X154645Y83120D01*
X154602Y83230D01*
X154565Y83343D01*
X154543Y83378D01*
X154528Y83415D01*
X154459Y83511D01*
X154395Y83612D01*
X154365Y83640D01*
X154342Y83673D01*
X154250Y83749D01*
X154163Y83830D01*
X154128Y83850D01*
X154097Y83875D01*
X153989Y83926D01*
X153885Y83984D01*
X153845Y83994D01*
X153809Y84011D01*
X153692Y84033D01*
X153577Y84063D01*
X153517Y84067D01*
X153497Y84071D01*
X153476Y84069D01*
X153416Y84073D01*
X146434Y84073D01*
X145525Y84983D01*
X145519Y85073D01*
X145506Y85111D01*
X145501Y85152D01*
X145458Y85262D01*
X145421Y85375D01*
X145399Y85410D01*
X145384Y85447D01*
X145315Y85543D01*
X145251Y85644D01*
X145221Y85672D01*
X145198Y85705D01*
X145106Y85781D01*
X145019Y85862D01*
X144984Y85882D01*
X144953Y85907D01*
X144845Y85958D01*
X144741Y86016D01*
X144701Y86026D01*
X144665Y86043D01*
X144548Y86065D01*
X144433Y86095D01*
X144373Y86099D01*
X144353Y86103D01*
X144332Y86101D01*
X144272Y86105D01*
X140785Y86105D01*
X140319Y86571D01*
X140210Y86656D01*
X140103Y86744D01*
X140084Y86753D01*
X140068Y86766D01*
X139940Y86821D01*
X139815Y86880D01*
X139795Y86884D01*
X139776Y86892D01*
X139638Y86914D01*
X139502Y86940D01*
X139482Y86939D01*
X139462Y86942D01*
X139323Y86929D01*
X139185Y86920D01*
X139166Y86914D01*
X139146Y86912D01*
X139015Y86865D01*
X138883Y86822D01*
X138865Y86811D01*
X138846Y86804D01*
X138732Y86726D01*
X138614Y86652D01*
X138600Y86637D01*
X138583Y86626D01*
X138491Y86522D01*
X138396Y86420D01*
X138386Y86402D01*
X138373Y86387D01*
X138310Y86264D01*
X138242Y86142D01*
X138237Y86122D01*
X138228Y86104D01*
X138198Y85968D01*
X138163Y85834D01*
X138161Y85806D01*
X138158Y85794D01*
X138159Y85773D01*
X138153Y85673D01*
X138153Y84458D01*
X137260Y83565D01*
X134620Y83565D01*
X134502Y83550D01*
X134383Y83543D01*
X134345Y83530D01*
X134304Y83525D01*
X134194Y83482D01*
X134081Y83445D01*
X134046Y83423D01*
X134009Y83408D01*
X133913Y83339D01*
X133812Y83275D01*
X133784Y83245D01*
X133751Y83222D01*
X133675Y83130D01*
X133594Y83043D01*
X133574Y83008D01*
X133549Y82977D01*
X133498Y82869D01*
X133440Y82765D01*
X133430Y82725D01*
X133413Y82689D01*
X133391Y82572D01*
X133361Y82457D01*
X133357Y82397D01*
X133353Y82377D01*
X133355Y82356D01*
X133351Y82296D01*
X133351Y80264D01*
X133366Y80146D01*
X133373Y80027D01*
X133386Y79989D01*
X133391Y79948D01*
X133434Y79838D01*
X133471Y79725D01*
X133493Y79690D01*
X133508Y79653D01*
X133577Y79557D01*
X133641Y79456D01*
X133671Y79428D01*
X133694Y79395D01*
X133786Y79319D01*
X133873Y79238D01*
X133908Y79218D01*
X133939Y79193D01*
X134047Y79142D01*
X134151Y79084D01*
X134191Y79074D01*
X134227Y79057D01*
X134344Y79035D01*
X134459Y79005D01*
X134519Y79001D01*
X134539Y78997D01*
X134560Y78999D01*
X134620Y78995D01*
X137260Y78995D01*
X138153Y78102D01*
X138153Y71758D01*
X137260Y70865D01*
X134620Y70865D01*
X134502Y70850D01*
X134383Y70843D01*
X134345Y70830D01*
X134304Y70825D01*
X134194Y70782D01*
X134081Y70745D01*
X134046Y70723D01*
X134009Y70708D01*
X133913Y70639D01*
X133812Y70575D01*
X133784Y70545D01*
X133751Y70522D01*
X133675Y70430D01*
X133594Y70343D01*
X133574Y70308D01*
X133549Y70277D01*
X133498Y70169D01*
X133440Y70065D01*
X133430Y70025D01*
X133413Y69989D01*
X133391Y69872D01*
X133361Y69757D01*
X133357Y69697D01*
X133353Y69677D01*
X133355Y69656D01*
X133351Y69596D01*
X133351Y67564D01*
X133366Y67446D01*
X133373Y67327D01*
X133386Y67289D01*
X133391Y67248D01*
X133434Y67138D01*
X133471Y67025D01*
X133493Y66990D01*
X133508Y66953D01*
X133577Y66857D01*
X133641Y66756D01*
X133671Y66728D01*
X133694Y66695D01*
X133786Y66619D01*
X133873Y66538D01*
X133908Y66518D01*
X133939Y66493D01*
X134047Y66442D01*
X134151Y66384D01*
X134191Y66374D01*
X134227Y66357D01*
X134344Y66335D01*
X134459Y66305D01*
X134519Y66301D01*
X134539Y66297D01*
X134560Y66299D01*
X134620Y66295D01*
X137260Y66295D01*
X138153Y65402D01*
X138153Y59058D01*
X137260Y58165D01*
X134620Y58165D01*
X134502Y58150D01*
X134383Y58143D01*
X134345Y58130D01*
X134304Y58125D01*
X134194Y58082D01*
X134081Y58045D01*
X134046Y58023D01*
X134009Y58008D01*
X133913Y57939D01*
X133812Y57875D01*
X133784Y57845D01*
X133751Y57822D01*
X133675Y57730D01*
X133594Y57643D01*
X133574Y57608D01*
X133549Y57577D01*
X133498Y57469D01*
X133440Y57365D01*
X133430Y57325D01*
X133413Y57289D01*
X133391Y57172D01*
X133361Y57057D01*
X133357Y56997D01*
X133353Y56977D01*
X133355Y56956D01*
X133351Y56896D01*
X133351Y49345D01*
X125716Y41711D01*
X125656Y41632D01*
X125588Y41560D01*
X125559Y41507D01*
X125522Y41459D01*
X125482Y41368D01*
X125434Y41282D01*
X125419Y41223D01*
X125395Y41167D01*
X125380Y41069D01*
X125355Y40974D01*
X125349Y40874D01*
X125345Y40853D01*
X125347Y40841D01*
X125345Y40813D01*
X125345Y30993D01*
X124452Y30100D01*
X107188Y30100D01*
X106295Y30993D01*
X106295Y40821D01*
X106283Y40919D01*
X106280Y41018D01*
X106263Y41076D01*
X106255Y41137D01*
X106219Y41229D01*
X106191Y41324D01*
X106161Y41376D01*
X106138Y41432D01*
X106080Y41512D01*
X106030Y41598D01*
X105964Y41673D01*
X105952Y41690D01*
X105942Y41697D01*
X105924Y41719D01*
X104483Y43160D01*
X104459Y43178D01*
X104440Y43200D01*
X104334Y43275D01*
X104231Y43354D01*
X104204Y43366D01*
X104180Y43383D01*
X104059Y43429D01*
X103939Y43481D01*
X103910Y43485D01*
X103883Y43496D01*
X103754Y43510D01*
X103625Y43531D01*
X103596Y43528D01*
X103567Y43531D01*
X103438Y43513D01*
X103309Y43501D01*
X103281Y43491D01*
X103252Y43487D01*
X103177Y43461D01*
X101052Y43461D01*
X99102Y44269D01*
X99072Y44300D01*
X98962Y44385D01*
X98855Y44474D01*
X98836Y44482D01*
X98820Y44495D01*
X98692Y44550D01*
X98567Y44609D01*
X98547Y44613D01*
X98528Y44621D01*
X98391Y44643D01*
X98254Y44669D01*
X98234Y44668D01*
X98214Y44671D01*
X98076Y44658D01*
X97937Y44649D01*
X97918Y44643D01*
X97898Y44641D01*
X97767Y44594D01*
X97635Y44551D01*
X97617Y44540D01*
X97598Y44533D01*
X97484Y44455D01*
X97366Y44381D01*
X97352Y44366D01*
X97335Y44355D01*
X97243Y44251D01*
X97148Y44149D01*
X97138Y44132D01*
X97125Y44116D01*
X97062Y43993D01*
X96994Y43871D01*
X96989Y43851D01*
X96980Y43833D01*
X96950Y43697D01*
X96915Y43563D01*
X96913Y43535D01*
X96910Y43523D01*
X96911Y43502D01*
X96905Y43402D01*
X96905Y30993D01*
X96012Y30100D01*
X78748Y30100D01*
X77855Y30993D01*
X77855Y50287D01*
X78748Y51180D01*
X79682Y51180D01*
X79820Y51197D01*
X79958Y51210D01*
X79978Y51217D01*
X79998Y51220D01*
X80127Y51271D01*
X80258Y51318D01*
X80275Y51329D01*
X80293Y51337D01*
X80406Y51418D01*
X80521Y51496D01*
X80534Y51512D01*
X80551Y51523D01*
X80639Y51631D01*
X80731Y51735D01*
X80741Y51753D01*
X80753Y51768D01*
X80813Y51894D01*
X80876Y52018D01*
X80880Y52038D01*
X80889Y52056D01*
X80915Y52192D01*
X80946Y52328D01*
X80945Y52349D01*
X80949Y52368D01*
X80940Y52507D01*
X80936Y52646D01*
X80930Y52666D01*
X80929Y52686D01*
X80886Y52818D01*
X80848Y52952D01*
X80837Y52969D01*
X80831Y52988D01*
X80756Y53106D01*
X80686Y53226D01*
X80667Y53247D01*
X80661Y53257D01*
X80646Y53271D01*
X80580Y53346D01*
X76951Y56975D01*
X76946Y57014D01*
X76939Y57133D01*
X76926Y57171D01*
X76921Y57212D01*
X76878Y57322D01*
X76841Y57435D01*
X76819Y57470D01*
X76804Y57507D01*
X76735Y57603D01*
X76671Y57704D01*
X76641Y57732D01*
X76618Y57765D01*
X76526Y57841D01*
X76439Y57922D01*
X76404Y57942D01*
X76373Y57967D01*
X76265Y58018D01*
X76161Y58076D01*
X76121Y58086D01*
X76085Y58103D01*
X75968Y58125D01*
X75853Y58155D01*
X75793Y58159D01*
X75773Y58163D01*
X75752Y58161D01*
X75692Y58165D01*
X71020Y58165D01*
X70111Y59075D01*
X70105Y59165D01*
X70092Y59203D01*
X70087Y59244D01*
X70044Y59354D01*
X70007Y59467D01*
X69985Y59502D01*
X69970Y59539D01*
X69901Y59635D01*
X69837Y59736D01*
X69807Y59764D01*
X69784Y59797D01*
X69692Y59873D01*
X69605Y59954D01*
X69570Y59974D01*
X69539Y59999D01*
X69431Y60050D01*
X69327Y60108D01*
X69287Y60118D01*
X69251Y60135D01*
X69134Y60157D01*
X69019Y60187D01*
X68959Y60191D01*
X68939Y60195D01*
X68918Y60193D01*
X68858Y60197D01*
X66109Y60197D01*
X61721Y64585D01*
X61721Y74099D01*
X70206Y82584D01*
X70279Y82678D01*
X70358Y82768D01*
X70377Y82804D01*
X70401Y82836D01*
X70449Y82945D01*
X70503Y83051D01*
X70512Y83090D01*
X70528Y83127D01*
X70546Y83245D01*
X70572Y83361D01*
X70571Y83402D01*
X70578Y83442D01*
X70566Y83560D01*
X70563Y83679D01*
X70552Y83718D01*
X70548Y83758D01*
X70507Y83870D01*
X70474Y83985D01*
X70454Y84019D01*
X70440Y84057D01*
X70373Y84156D01*
X70313Y84259D01*
X70273Y84304D01*
X70262Y84321D01*
X70246Y84334D01*
X70206Y84379D01*
X70127Y84458D01*
X70127Y84836D01*
X70112Y84954D01*
X70105Y85073D01*
X70092Y85111D01*
X70087Y85152D01*
X70044Y85262D01*
X70007Y85375D01*
X69985Y85410D01*
X69970Y85447D01*
X69901Y85543D01*
X69837Y85644D01*
X69807Y85672D01*
X69784Y85705D01*
X69692Y85781D01*
X69605Y85862D01*
X69570Y85882D01*
X69539Y85907D01*
X69431Y85958D01*
X69327Y86016D01*
X69287Y86026D01*
X69251Y86043D01*
X69134Y86065D01*
X69019Y86095D01*
X68959Y86099D01*
X68939Y86103D01*
X68918Y86101D01*
X68858Y86105D01*
X67005Y86105D01*
X66907Y86093D01*
X66808Y86090D01*
X66750Y86073D01*
X66689Y86065D01*
X66597Y86029D01*
X66502Y86001D01*
X66450Y85971D01*
X66394Y85948D01*
X66314Y85890D01*
X66228Y85840D01*
X66153Y85774D01*
X66136Y85762D01*
X66129Y85752D01*
X66107Y85734D01*
X48327Y67953D01*
X48254Y67859D01*
X48175Y67770D01*
X48157Y67734D01*
X48132Y67702D01*
X48085Y67593D01*
X48031Y67487D01*
X48022Y67447D01*
X48006Y67410D01*
X47987Y67292D01*
X47961Y67176D01*
X47963Y67136D01*
X47956Y67096D01*
X47967Y66977D01*
X47971Y66858D01*
X47982Y66820D01*
X47986Y66780D01*
X48007Y66722D01*
X48007Y56337D01*
X48019Y56239D01*
X48022Y56140D01*
X48039Y56082D01*
X48047Y56021D01*
X48083Y55929D01*
X48111Y55834D01*
X48141Y55782D01*
X48164Y55726D01*
X48222Y55646D01*
X48272Y55560D01*
X48338Y55485D01*
X48350Y55468D01*
X48360Y55461D01*
X48378Y55439D01*
X76775Y27042D01*
X76854Y26982D01*
X76926Y26914D01*
X76979Y26885D01*
X77027Y26848D01*
X77118Y26808D01*
X77204Y26760D01*
X77263Y26745D01*
X77319Y26721D01*
X77417Y26706D01*
X77512Y26681D01*
X77612Y26675D01*
X77633Y26671D01*
X77645Y26673D01*
X77673Y26671D01*
X125019Y26671D01*
X125117Y26683D01*
G37*
G36*
X126663Y49584D02*
X126663Y49584D01*
X126782Y49588D01*
X126821Y49599D01*
X126861Y49603D01*
X126973Y49643D01*
X127087Y49676D01*
X127122Y49697D01*
X127160Y49710D01*
X127259Y49777D01*
X127361Y49838D01*
X127407Y49878D01*
X127423Y49889D01*
X127437Y49904D01*
X127482Y49944D01*
X128406Y50867D01*
X128466Y50946D01*
X128534Y51018D01*
X128563Y51071D01*
X128600Y51119D01*
X128640Y51210D01*
X128688Y51296D01*
X128703Y51355D01*
X128727Y51411D01*
X128742Y51509D01*
X128767Y51604D01*
X128773Y51704D01*
X128777Y51725D01*
X128775Y51737D01*
X128777Y51765D01*
X128777Y56896D01*
X128762Y57014D01*
X128755Y57133D01*
X128742Y57171D01*
X128737Y57212D01*
X128694Y57322D01*
X128657Y57435D01*
X128635Y57470D01*
X128620Y57507D01*
X128551Y57603D01*
X128487Y57704D01*
X128457Y57732D01*
X128434Y57765D01*
X128342Y57841D01*
X128255Y57922D01*
X128220Y57942D01*
X128189Y57967D01*
X128081Y58018D01*
X127977Y58076D01*
X127937Y58086D01*
X127901Y58103D01*
X127784Y58125D01*
X127669Y58155D01*
X127609Y58159D01*
X127589Y58163D01*
X127568Y58161D01*
X127508Y58165D01*
X123447Y58165D01*
X122554Y59058D01*
X122554Y65402D01*
X123447Y66295D01*
X127508Y66295D01*
X127626Y66310D01*
X127745Y66317D01*
X127783Y66330D01*
X127824Y66335D01*
X127934Y66378D01*
X128047Y66415D01*
X128082Y66437D01*
X128119Y66452D01*
X128215Y66521D01*
X128316Y66585D01*
X128344Y66615D01*
X128377Y66638D01*
X128453Y66730D01*
X128534Y66817D01*
X128554Y66852D01*
X128579Y66883D01*
X128630Y66991D01*
X128688Y67095D01*
X128698Y67135D01*
X128715Y67171D01*
X128737Y67288D01*
X128767Y67403D01*
X128771Y67463D01*
X128775Y67483D01*
X128773Y67504D01*
X128777Y67564D01*
X128777Y69596D01*
X128762Y69714D01*
X128755Y69833D01*
X128742Y69871D01*
X128737Y69912D01*
X128694Y70022D01*
X128657Y70135D01*
X128635Y70170D01*
X128620Y70207D01*
X128551Y70303D01*
X128487Y70404D01*
X128457Y70432D01*
X128434Y70465D01*
X128342Y70541D01*
X128255Y70622D01*
X128220Y70642D01*
X128189Y70667D01*
X128081Y70718D01*
X127977Y70776D01*
X127937Y70786D01*
X127901Y70803D01*
X127784Y70825D01*
X127669Y70855D01*
X127609Y70859D01*
X127589Y70863D01*
X127568Y70861D01*
X127508Y70865D01*
X123447Y70865D01*
X122554Y71758D01*
X122554Y78102D01*
X123447Y78995D01*
X127508Y78995D01*
X127626Y79010D01*
X127745Y79017D01*
X127783Y79030D01*
X127824Y79035D01*
X127934Y79078D01*
X128047Y79115D01*
X128082Y79137D01*
X128119Y79152D01*
X128215Y79221D01*
X128316Y79285D01*
X128344Y79315D01*
X128377Y79338D01*
X128453Y79430D01*
X128534Y79517D01*
X128554Y79552D01*
X128579Y79583D01*
X128630Y79691D01*
X128688Y79795D01*
X128698Y79835D01*
X128715Y79871D01*
X128737Y79988D01*
X128767Y80103D01*
X128771Y80163D01*
X128775Y80183D01*
X128773Y80204D01*
X128777Y80264D01*
X128777Y82296D01*
X128762Y82414D01*
X128755Y82533D01*
X128742Y82571D01*
X128737Y82612D01*
X128694Y82722D01*
X128657Y82835D01*
X128635Y82870D01*
X128620Y82907D01*
X128551Y83003D01*
X128487Y83104D01*
X128457Y83132D01*
X128434Y83165D01*
X128342Y83241D01*
X128255Y83322D01*
X128220Y83342D01*
X128189Y83367D01*
X128081Y83418D01*
X127977Y83476D01*
X127937Y83486D01*
X127901Y83503D01*
X127784Y83525D01*
X127669Y83555D01*
X127609Y83559D01*
X127589Y83563D01*
X127568Y83561D01*
X127508Y83565D01*
X123447Y83565D01*
X122554Y84458D01*
X122554Y85776D01*
X122537Y85914D01*
X122524Y86052D01*
X122517Y86072D01*
X122514Y86092D01*
X122463Y86221D01*
X122416Y86352D01*
X122405Y86369D01*
X122397Y86387D01*
X122316Y86499D01*
X122238Y86615D01*
X122222Y86628D01*
X122211Y86645D01*
X122103Y86733D01*
X121999Y86825D01*
X121981Y86835D01*
X121966Y86847D01*
X121840Y86907D01*
X121716Y86970D01*
X121696Y86974D01*
X121678Y86983D01*
X121542Y87009D01*
X121406Y87040D01*
X121385Y87039D01*
X121366Y87043D01*
X121227Y87034D01*
X121088Y87030D01*
X121068Y87024D01*
X121048Y87023D01*
X120916Y86980D01*
X120782Y86942D01*
X120765Y86931D01*
X120746Y86925D01*
X120628Y86850D01*
X120508Y86780D01*
X120487Y86761D01*
X120477Y86755D01*
X120463Y86740D01*
X120388Y86674D01*
X106103Y72389D01*
X86882Y72389D01*
X86784Y72377D01*
X86685Y72374D01*
X86627Y72357D01*
X86567Y72349D01*
X86475Y72313D01*
X86380Y72285D01*
X86327Y72255D01*
X86271Y72232D01*
X86191Y72174D01*
X86106Y72124D01*
X86030Y72058D01*
X86014Y72046D01*
X86006Y72036D01*
X85985Y72018D01*
X84833Y70865D01*
X71020Y70865D01*
X70127Y71758D01*
X70127Y72973D01*
X70110Y73111D01*
X70097Y73249D01*
X70090Y73268D01*
X70087Y73289D01*
X70036Y73418D01*
X69989Y73549D01*
X69978Y73566D01*
X69970Y73584D01*
X69889Y73697D01*
X69811Y73812D01*
X69795Y73825D01*
X69784Y73842D01*
X69676Y73930D01*
X69572Y74022D01*
X69554Y74032D01*
X69539Y74044D01*
X69413Y74104D01*
X69289Y74167D01*
X69269Y74171D01*
X69251Y74180D01*
X69114Y74206D01*
X68979Y74237D01*
X68958Y74236D01*
X68939Y74240D01*
X68800Y74231D01*
X68661Y74227D01*
X68641Y74221D01*
X68621Y74220D01*
X68489Y74177D01*
X68355Y74139D01*
X68338Y74128D01*
X68319Y74122D01*
X68201Y74048D01*
X68081Y73977D01*
X68060Y73958D01*
X68050Y73952D01*
X68036Y73937D01*
X67961Y73871D01*
X66666Y72577D01*
X66606Y72498D01*
X66538Y72426D01*
X66509Y72373D01*
X66472Y72325D01*
X66432Y72234D01*
X66384Y72148D01*
X66369Y72089D01*
X66345Y72033D01*
X66330Y71936D01*
X66305Y71840D01*
X66299Y71740D01*
X66295Y71719D01*
X66297Y71707D01*
X66295Y71679D01*
X66295Y67005D01*
X66307Y66907D01*
X66310Y66808D01*
X66327Y66750D01*
X66335Y66689D01*
X66371Y66597D01*
X66399Y66502D01*
X66429Y66450D01*
X66452Y66394D01*
X66510Y66314D01*
X66560Y66228D01*
X66626Y66153D01*
X66638Y66136D01*
X66648Y66129D01*
X66666Y66107D01*
X67631Y65142D01*
X67710Y65082D01*
X67782Y65014D01*
X67835Y64985D01*
X67883Y64948D01*
X67974Y64908D01*
X68060Y64860D01*
X68119Y64845D01*
X68175Y64821D01*
X68273Y64806D01*
X68368Y64781D01*
X68468Y64775D01*
X68489Y64771D01*
X68501Y64773D01*
X68529Y64771D01*
X68971Y64771D01*
X69069Y64783D01*
X69168Y64786D01*
X69226Y64803D01*
X69286Y64811D01*
X69378Y64847D01*
X69473Y64875D01*
X69526Y64905D01*
X69582Y64928D01*
X69662Y64986D01*
X69747Y65036D01*
X69823Y65102D01*
X69839Y65114D01*
X69847Y65124D01*
X69868Y65142D01*
X71020Y66295D01*
X84833Y66295D01*
X85726Y65402D01*
X85726Y59058D01*
X84660Y57993D01*
X84569Y57927D01*
X84454Y57849D01*
X84441Y57833D01*
X84424Y57822D01*
X84336Y57714D01*
X84244Y57610D01*
X84234Y57592D01*
X84222Y57577D01*
X84162Y57451D01*
X84099Y57327D01*
X84095Y57307D01*
X84086Y57289D01*
X84060Y57153D01*
X84029Y57017D01*
X84030Y56996D01*
X84026Y56977D01*
X84035Y56838D01*
X84039Y56699D01*
X84045Y56679D01*
X84046Y56659D01*
X84089Y56527D01*
X84127Y56393D01*
X84138Y56376D01*
X84144Y56357D01*
X84219Y56239D01*
X84289Y56119D01*
X84308Y56098D01*
X84314Y56088D01*
X84329Y56074D01*
X84395Y55999D01*
X87443Y52950D01*
X88842Y51551D01*
X88921Y51491D01*
X88993Y51423D01*
X89046Y51394D01*
X89094Y51357D01*
X89185Y51317D01*
X89271Y51269D01*
X89330Y51254D01*
X89386Y51230D01*
X89484Y51215D01*
X89579Y51190D01*
X89679Y51184D01*
X89700Y51180D01*
X89712Y51182D01*
X89740Y51180D01*
X96515Y51180D01*
X96544Y51183D01*
X96574Y51181D01*
X96702Y51203D01*
X96830Y51220D01*
X96858Y51231D01*
X96887Y51236D01*
X97006Y51289D01*
X97126Y51337D01*
X97150Y51354D01*
X97177Y51366D01*
X97278Y51447D01*
X97383Y51523D01*
X97403Y51546D01*
X97426Y51565D01*
X97503Y51668D01*
X99102Y53267D01*
X101052Y54075D01*
X103164Y54075D01*
X105114Y53267D01*
X106675Y51705D01*
X106686Y51687D01*
X106706Y51666D01*
X106722Y51641D01*
X106817Y51552D01*
X106907Y51459D01*
X106932Y51443D01*
X106954Y51423D01*
X107067Y51360D01*
X107178Y51293D01*
X107206Y51284D01*
X107232Y51269D01*
X107358Y51237D01*
X107482Y51199D01*
X107512Y51197D01*
X107540Y51190D01*
X107701Y51180D01*
X124452Y51180D01*
X125687Y49944D01*
X125781Y49871D01*
X125870Y49792D01*
X125906Y49774D01*
X125938Y49749D01*
X126048Y49702D01*
X126154Y49648D01*
X126193Y49639D01*
X126230Y49623D01*
X126348Y49604D01*
X126464Y49578D01*
X126504Y49579D01*
X126544Y49573D01*
X126663Y49584D01*
G37*
G36*
X190649Y66307D02*
X190649Y66307D01*
X190748Y66310D01*
X190806Y66327D01*
X190867Y66335D01*
X190959Y66371D01*
X191054Y66399D01*
X191106Y66429D01*
X191162Y66452D01*
X191242Y66510D01*
X191328Y66560D01*
X191403Y66626D01*
X191420Y66638D01*
X191427Y66648D01*
X191449Y66666D01*
X203269Y78487D01*
X205740Y78487D01*
X205858Y78502D01*
X205977Y78509D01*
X206015Y78522D01*
X206056Y78527D01*
X206166Y78570D01*
X206279Y78607D01*
X206314Y78629D01*
X206351Y78644D01*
X206447Y78713D01*
X206548Y78777D01*
X206576Y78807D01*
X206609Y78830D01*
X206685Y78922D01*
X206766Y79009D01*
X206786Y79044D01*
X206811Y79075D01*
X206862Y79183D01*
X206920Y79287D01*
X206930Y79327D01*
X206947Y79363D01*
X206969Y79480D01*
X206999Y79595D01*
X207003Y79655D01*
X207007Y79675D01*
X207005Y79696D01*
X207009Y79756D01*
X207009Y80134D01*
X207902Y81027D01*
X229670Y81027D01*
X229788Y81042D01*
X229907Y81049D01*
X229945Y81062D01*
X229986Y81067D01*
X230096Y81110D01*
X230209Y81147D01*
X230244Y81169D01*
X230281Y81184D01*
X230377Y81253D01*
X230478Y81317D01*
X230506Y81347D01*
X230539Y81370D01*
X230615Y81462D01*
X230696Y81549D01*
X230716Y81584D01*
X230741Y81615D01*
X230792Y81723D01*
X230850Y81827D01*
X230860Y81867D01*
X230877Y81903D01*
X230899Y82020D01*
X230929Y82135D01*
X230933Y82195D01*
X230937Y82215D01*
X230935Y82236D01*
X230939Y82296D01*
X230939Y82804D01*
X230924Y82922D01*
X230917Y83041D01*
X230904Y83079D01*
X230899Y83120D01*
X230856Y83230D01*
X230819Y83343D01*
X230797Y83378D01*
X230782Y83415D01*
X230713Y83511D01*
X230649Y83612D01*
X230619Y83640D01*
X230596Y83673D01*
X230504Y83749D01*
X230417Y83830D01*
X230382Y83850D01*
X230351Y83875D01*
X230243Y83926D01*
X230139Y83984D01*
X230099Y83994D01*
X230063Y84011D01*
X229946Y84033D01*
X229831Y84063D01*
X229771Y84067D01*
X229751Y84071D01*
X229730Y84069D01*
X229670Y84073D01*
X207902Y84073D01*
X207788Y84188D01*
X207694Y84261D01*
X207604Y84340D01*
X207568Y84358D01*
X207536Y84383D01*
X207427Y84430D01*
X207321Y84484D01*
X207282Y84493D01*
X207245Y84509D01*
X207127Y84528D01*
X207011Y84554D01*
X206971Y84553D01*
X206931Y84559D01*
X206812Y84548D01*
X206693Y84544D01*
X206654Y84533D01*
X206614Y84529D01*
X206502Y84489D01*
X206388Y84456D01*
X206353Y84435D01*
X206315Y84422D01*
X206216Y84355D01*
X206114Y84294D01*
X206068Y84254D01*
X206052Y84243D01*
X206038Y84228D01*
X205993Y84188D01*
X205698Y83893D01*
X203748Y83085D01*
X201636Y83085D01*
X199686Y83893D01*
X198193Y85386D01*
X197385Y87336D01*
X197385Y89448D01*
X198193Y91398D01*
X199686Y92891D01*
X201636Y93699D01*
X203748Y93699D01*
X205882Y92815D01*
X205911Y92807D01*
X205937Y92793D01*
X206064Y92765D01*
X206189Y92731D01*
X206218Y92730D01*
X206247Y92724D01*
X206377Y92728D01*
X206507Y92726D01*
X206536Y92732D01*
X206565Y92733D01*
X206690Y92769D01*
X206816Y92800D01*
X206842Y92814D01*
X206871Y92822D01*
X206983Y92888D01*
X207097Y92948D01*
X207119Y92968D01*
X207145Y92983D01*
X207265Y93090D01*
X207902Y93727D01*
X229670Y93727D01*
X229788Y93742D01*
X229907Y93749D01*
X229945Y93762D01*
X229986Y93767D01*
X230096Y93810D01*
X230209Y93847D01*
X230244Y93869D01*
X230281Y93884D01*
X230377Y93953D01*
X230478Y94017D01*
X230506Y94047D01*
X230539Y94070D01*
X230615Y94162D01*
X230696Y94249D01*
X230716Y94284D01*
X230741Y94315D01*
X230792Y94423D01*
X230850Y94527D01*
X230860Y94567D01*
X230877Y94603D01*
X230899Y94720D01*
X230929Y94835D01*
X230933Y94895D01*
X230937Y94915D01*
X230935Y94936D01*
X230939Y94996D01*
X230939Y95504D01*
X230924Y95622D01*
X230917Y95741D01*
X230904Y95779D01*
X230899Y95820D01*
X230856Y95930D01*
X230819Y96043D01*
X230797Y96078D01*
X230782Y96115D01*
X230713Y96211D01*
X230649Y96312D01*
X230619Y96340D01*
X230596Y96373D01*
X230504Y96449D01*
X230417Y96530D01*
X230382Y96550D01*
X230351Y96575D01*
X230243Y96626D01*
X230139Y96684D01*
X230099Y96694D01*
X230063Y96711D01*
X229946Y96733D01*
X229831Y96763D01*
X229771Y96767D01*
X229751Y96771D01*
X229730Y96769D01*
X229670Y96773D01*
X207902Y96773D01*
X207009Y97666D01*
X207009Y98552D01*
X206994Y98670D01*
X206987Y98789D01*
X206974Y98827D01*
X206969Y98868D01*
X206926Y98978D01*
X206889Y99091D01*
X206867Y99126D01*
X206852Y99163D01*
X206783Y99259D01*
X206719Y99360D01*
X206689Y99388D01*
X206666Y99421D01*
X206574Y99497D01*
X206487Y99578D01*
X206452Y99598D01*
X206421Y99623D01*
X206313Y99674D01*
X206209Y99732D01*
X206169Y99742D01*
X206133Y99759D01*
X206016Y99781D01*
X205901Y99811D01*
X205841Y99815D01*
X205821Y99819D01*
X205800Y99817D01*
X205740Y99821D01*
X178885Y99821D01*
X178189Y100517D01*
X178080Y100601D01*
X177973Y100690D01*
X177954Y100699D01*
X177938Y100712D01*
X177811Y100767D01*
X177685Y100826D01*
X177665Y100830D01*
X177646Y100838D01*
X177508Y100860D01*
X177372Y100886D01*
X177352Y100885D01*
X177332Y100888D01*
X177193Y100875D01*
X177055Y100866D01*
X177036Y100860D01*
X177016Y100858D01*
X176884Y100811D01*
X176753Y100768D01*
X176735Y100757D01*
X176716Y100750D01*
X176601Y100672D01*
X176484Y100598D01*
X176470Y100583D01*
X176453Y100572D01*
X176361Y100468D01*
X176266Y100366D01*
X176256Y100348D01*
X176243Y100333D01*
X176180Y100210D01*
X176112Y100088D01*
X176107Y100068D01*
X176098Y100050D01*
X176068Y99914D01*
X176033Y99780D01*
X176031Y99752D01*
X176028Y99740D01*
X176029Y99719D01*
X176023Y99619D01*
X176023Y67564D01*
X176038Y67446D01*
X176045Y67327D01*
X176058Y67289D01*
X176063Y67248D01*
X176106Y67138D01*
X176143Y67025D01*
X176165Y66990D01*
X176180Y66953D01*
X176249Y66857D01*
X176313Y66756D01*
X176343Y66728D01*
X176366Y66695D01*
X176458Y66619D01*
X176545Y66538D01*
X176580Y66518D01*
X176611Y66493D01*
X176719Y66442D01*
X176823Y66384D01*
X176863Y66374D01*
X176899Y66357D01*
X177016Y66335D01*
X177131Y66305D01*
X177191Y66301D01*
X177211Y66297D01*
X177232Y66299D01*
X177292Y66295D01*
X190551Y66295D01*
X190649Y66307D01*
G37*
G36*
X205858Y40402D02*
X205858Y40402D01*
X205977Y40409D01*
X206015Y40422D01*
X206056Y40427D01*
X206166Y40470D01*
X206279Y40507D01*
X206314Y40529D01*
X206351Y40544D01*
X206447Y40613D01*
X206548Y40677D01*
X206576Y40707D01*
X206609Y40730D01*
X206685Y40822D01*
X206766Y40909D01*
X206786Y40944D01*
X206811Y40975D01*
X206862Y41083D01*
X206920Y41187D01*
X206930Y41227D01*
X206947Y41263D01*
X206969Y41380D01*
X206999Y41495D01*
X207003Y41555D01*
X207007Y41575D01*
X207005Y41596D01*
X207009Y41656D01*
X207009Y42034D01*
X207902Y42927D01*
X229670Y42927D01*
X229788Y42942D01*
X229907Y42949D01*
X229945Y42962D01*
X229986Y42967D01*
X230096Y43010D01*
X230209Y43047D01*
X230244Y43069D01*
X230281Y43084D01*
X230377Y43153D01*
X230478Y43217D01*
X230506Y43247D01*
X230539Y43270D01*
X230615Y43362D01*
X230696Y43449D01*
X230716Y43484D01*
X230741Y43515D01*
X230792Y43623D01*
X230850Y43727D01*
X230860Y43767D01*
X230877Y43803D01*
X230899Y43920D01*
X230929Y44035D01*
X230933Y44095D01*
X230937Y44115D01*
X230935Y44136D01*
X230939Y44196D01*
X230939Y44704D01*
X230924Y44822D01*
X230917Y44941D01*
X230904Y44979D01*
X230899Y45020D01*
X230856Y45130D01*
X230819Y45243D01*
X230797Y45278D01*
X230782Y45315D01*
X230713Y45411D01*
X230649Y45512D01*
X230619Y45540D01*
X230596Y45573D01*
X230504Y45649D01*
X230417Y45730D01*
X230382Y45750D01*
X230351Y45775D01*
X230243Y45826D01*
X230139Y45884D01*
X230099Y45894D01*
X230063Y45911D01*
X229946Y45933D01*
X229831Y45963D01*
X229771Y45967D01*
X229751Y45971D01*
X229730Y45969D01*
X229670Y45973D01*
X207902Y45973D01*
X207009Y46866D01*
X207009Y54734D01*
X207902Y55627D01*
X215900Y55627D01*
X216018Y55642D01*
X216137Y55649D01*
X216175Y55662D01*
X216216Y55667D01*
X216326Y55710D01*
X216439Y55747D01*
X216474Y55769D01*
X216511Y55784D01*
X216607Y55853D01*
X216708Y55917D01*
X216736Y55947D01*
X216769Y55970D01*
X216845Y56062D01*
X216926Y56149D01*
X216946Y56184D01*
X216971Y56215D01*
X217022Y56323D01*
X217080Y56427D01*
X217090Y56467D01*
X217107Y56503D01*
X217129Y56620D01*
X217159Y56735D01*
X217163Y56795D01*
X217167Y56815D01*
X217165Y56836D01*
X217169Y56896D01*
X217169Y57404D01*
X217154Y57522D01*
X217147Y57641D01*
X217134Y57679D01*
X217129Y57720D01*
X217086Y57830D01*
X217049Y57943D01*
X217027Y57978D01*
X217012Y58015D01*
X216943Y58111D01*
X216879Y58212D01*
X216849Y58240D01*
X216826Y58273D01*
X216734Y58349D01*
X216647Y58430D01*
X216612Y58450D01*
X216581Y58475D01*
X216473Y58526D01*
X216369Y58584D01*
X216329Y58594D01*
X216293Y58611D01*
X216176Y58633D01*
X216061Y58663D01*
X216001Y58667D01*
X215981Y58671D01*
X215960Y58669D01*
X215900Y58673D01*
X207902Y58673D01*
X207009Y59566D01*
X207009Y67434D01*
X207902Y68327D01*
X229670Y68327D01*
X229788Y68342D01*
X229907Y68349D01*
X229945Y68362D01*
X229986Y68367D01*
X230096Y68410D01*
X230209Y68447D01*
X230244Y68469D01*
X230281Y68484D01*
X230377Y68553D01*
X230478Y68617D01*
X230506Y68647D01*
X230539Y68670D01*
X230615Y68762D01*
X230696Y68849D01*
X230716Y68884D01*
X230741Y68915D01*
X230792Y69023D01*
X230850Y69127D01*
X230860Y69167D01*
X230877Y69203D01*
X230899Y69320D01*
X230929Y69435D01*
X230933Y69495D01*
X230937Y69515D01*
X230935Y69536D01*
X230939Y69596D01*
X230939Y70104D01*
X230924Y70222D01*
X230917Y70341D01*
X230904Y70379D01*
X230899Y70420D01*
X230856Y70530D01*
X230819Y70643D01*
X230797Y70678D01*
X230782Y70715D01*
X230713Y70811D01*
X230649Y70912D01*
X230619Y70940D01*
X230596Y70973D01*
X230504Y71049D01*
X230417Y71130D01*
X230382Y71150D01*
X230351Y71175D01*
X230243Y71226D01*
X230139Y71284D01*
X230099Y71294D01*
X230063Y71311D01*
X229946Y71333D01*
X229831Y71363D01*
X229771Y71367D01*
X229751Y71371D01*
X229730Y71369D01*
X229670Y71373D01*
X207902Y71373D01*
X207009Y72266D01*
X207009Y72644D01*
X206994Y72762D01*
X206987Y72881D01*
X206974Y72919D01*
X206969Y72960D01*
X206926Y73070D01*
X206889Y73183D01*
X206867Y73218D01*
X206852Y73255D01*
X206783Y73351D01*
X206719Y73452D01*
X206689Y73480D01*
X206666Y73513D01*
X206574Y73589D01*
X206487Y73670D01*
X206452Y73690D01*
X206421Y73715D01*
X206313Y73766D01*
X206209Y73824D01*
X206169Y73834D01*
X206133Y73851D01*
X206016Y73873D01*
X205901Y73903D01*
X205841Y73907D01*
X205821Y73911D01*
X205800Y73909D01*
X205740Y73913D01*
X205689Y73913D01*
X205591Y73901D01*
X205492Y73898D01*
X205434Y73881D01*
X205373Y73873D01*
X205281Y73837D01*
X205186Y73809D01*
X205134Y73779D01*
X205078Y73756D01*
X204998Y73698D01*
X204912Y73648D01*
X204837Y73582D01*
X204820Y73570D01*
X204813Y73560D01*
X204791Y73542D01*
X192971Y61721D01*
X170180Y61721D01*
X170062Y61706D01*
X169943Y61699D01*
X169905Y61686D01*
X169864Y61681D01*
X169754Y61638D01*
X169641Y61601D01*
X169606Y61579D01*
X169569Y61564D01*
X169473Y61495D01*
X169372Y61431D01*
X169344Y61401D01*
X169311Y61378D01*
X169235Y61286D01*
X169154Y61199D01*
X169134Y61164D01*
X169109Y61133D01*
X169058Y61025D01*
X169000Y60921D01*
X168990Y60881D01*
X168973Y60845D01*
X168951Y60728D01*
X168921Y60613D01*
X168917Y60553D01*
X168913Y60533D01*
X168915Y60512D01*
X168911Y60452D01*
X168911Y59944D01*
X168926Y59826D01*
X168933Y59707D01*
X168946Y59669D01*
X168951Y59628D01*
X168994Y59518D01*
X169031Y59405D01*
X169053Y59370D01*
X169068Y59333D01*
X169137Y59237D01*
X169201Y59136D01*
X169231Y59108D01*
X169254Y59075D01*
X169346Y58999D01*
X169433Y58918D01*
X169468Y58898D01*
X169499Y58873D01*
X169607Y58822D01*
X169711Y58764D01*
X169751Y58754D01*
X169787Y58737D01*
X169904Y58715D01*
X170019Y58685D01*
X170079Y58681D01*
X170099Y58677D01*
X170108Y58678D01*
X188027Y40758D01*
X188106Y40698D01*
X188178Y40630D01*
X188231Y40601D01*
X188279Y40564D01*
X188370Y40524D01*
X188456Y40476D01*
X188515Y40461D01*
X188571Y40437D01*
X188669Y40422D01*
X188764Y40397D01*
X188864Y40391D01*
X188885Y40387D01*
X188897Y40389D01*
X188925Y40387D01*
X205740Y40387D01*
X205858Y40402D01*
G37*
G36*
X229788Y10176D02*
X229788Y10176D01*
X229907Y10183D01*
X229945Y10196D01*
X229986Y10201D01*
X230096Y10244D01*
X230209Y10281D01*
X230244Y10303D01*
X230281Y10318D01*
X230377Y10387D01*
X230478Y10451D01*
X230506Y10481D01*
X230539Y10504D01*
X230615Y10596D01*
X230696Y10683D01*
X230716Y10718D01*
X230741Y10749D01*
X230792Y10857D01*
X230850Y10961D01*
X230860Y11001D01*
X230877Y11037D01*
X230899Y11154D01*
X230929Y11269D01*
X230933Y11329D01*
X230937Y11349D01*
X230935Y11370D01*
X230939Y11430D01*
X230939Y19304D01*
X230924Y19422D01*
X230917Y19541D01*
X230904Y19579D01*
X230899Y19620D01*
X230856Y19730D01*
X230819Y19843D01*
X230797Y19878D01*
X230782Y19915D01*
X230713Y20011D01*
X230649Y20112D01*
X230619Y20140D01*
X230596Y20173D01*
X230504Y20249D01*
X230417Y20330D01*
X230382Y20350D01*
X230351Y20375D01*
X230243Y20426D01*
X230139Y20484D01*
X230099Y20494D01*
X230063Y20511D01*
X229946Y20533D01*
X229831Y20563D01*
X229771Y20567D01*
X229751Y20571D01*
X229730Y20569D01*
X229670Y20573D01*
X207902Y20573D01*
X207009Y21466D01*
X207009Y22352D01*
X206994Y22470D01*
X206987Y22589D01*
X206974Y22627D01*
X206969Y22668D01*
X206926Y22778D01*
X206889Y22891D01*
X206867Y22926D01*
X206852Y22963D01*
X206783Y23059D01*
X206719Y23160D01*
X206689Y23188D01*
X206666Y23221D01*
X206574Y23297D01*
X206487Y23378D01*
X206452Y23398D01*
X206421Y23423D01*
X206313Y23474D01*
X206209Y23532D01*
X206169Y23542D01*
X206133Y23559D01*
X206016Y23581D01*
X205901Y23611D01*
X205841Y23615D01*
X205821Y23619D01*
X205800Y23617D01*
X205740Y23621D01*
X184353Y23621D01*
X184255Y23609D01*
X184156Y23606D01*
X184098Y23589D01*
X184037Y23581D01*
X183945Y23545D01*
X183850Y23517D01*
X183798Y23487D01*
X183742Y23464D01*
X183662Y23406D01*
X183576Y23356D01*
X183501Y23290D01*
X183484Y23278D01*
X183477Y23268D01*
X183455Y23250D01*
X173159Y12953D01*
X172161Y12953D01*
X172063Y12941D01*
X171964Y12938D01*
X171906Y12921D01*
X171845Y12913D01*
X171753Y12877D01*
X171658Y12849D01*
X171606Y12819D01*
X171550Y12796D01*
X171470Y12738D01*
X171384Y12688D01*
X171309Y12622D01*
X171292Y12610D01*
X171285Y12600D01*
X171264Y12582D01*
X171009Y12328D01*
X170924Y12218D01*
X170836Y12111D01*
X170827Y12092D01*
X170815Y12076D01*
X170759Y11949D01*
X170700Y11823D01*
X170696Y11803D01*
X170688Y11784D01*
X170666Y11647D01*
X170640Y11510D01*
X170641Y11490D01*
X170638Y11470D01*
X170651Y11332D01*
X170660Y11193D01*
X170666Y11174D01*
X170668Y11154D01*
X170715Y11023D01*
X170758Y10891D01*
X170769Y10873D01*
X170776Y10854D01*
X170854Y10739D01*
X170928Y10622D01*
X170943Y10608D01*
X170954Y10591D01*
X171058Y10499D01*
X171160Y10404D01*
X171177Y10394D01*
X171193Y10381D01*
X171316Y10318D01*
X171438Y10250D01*
X171458Y10245D01*
X171476Y10236D01*
X171612Y10206D01*
X171746Y10171D01*
X171774Y10169D01*
X171786Y10166D01*
X171807Y10167D01*
X171907Y10161D01*
X229670Y10161D01*
X229788Y10176D01*
G37*
G36*
X170279Y71337D02*
X170279Y71337D01*
X170417Y71346D01*
X170436Y71352D01*
X170456Y71354D01*
X170588Y71401D01*
X170719Y71444D01*
X170737Y71455D01*
X170756Y71462D01*
X170871Y71540D01*
X170988Y71614D01*
X171002Y71629D01*
X171019Y71640D01*
X171111Y71744D01*
X171206Y71846D01*
X171216Y71864D01*
X171229Y71879D01*
X171293Y72003D01*
X171360Y72124D01*
X171365Y72144D01*
X171374Y72162D01*
X171404Y72298D01*
X171439Y72432D01*
X171441Y72460D01*
X171444Y72472D01*
X171443Y72493D01*
X171449Y72593D01*
X171449Y97587D01*
X171442Y97641D01*
X171445Y97695D01*
X171423Y97798D01*
X171409Y97903D01*
X171389Y97953D01*
X171378Y98006D01*
X171315Y98155D01*
X171301Y98175D01*
X171294Y98193D01*
X171292Y98198D01*
X171213Y98307D01*
X171138Y98419D01*
X171120Y98436D01*
X171106Y98456D01*
X171002Y98541D01*
X170902Y98631D01*
X170880Y98643D01*
X170861Y98658D01*
X170739Y98716D01*
X170619Y98778D01*
X170595Y98784D01*
X170573Y98794D01*
X170441Y98819D01*
X170310Y98850D01*
X170285Y98849D01*
X170260Y98854D01*
X170126Y98845D01*
X169992Y98842D01*
X169968Y98836D01*
X169943Y98834D01*
X169815Y98793D01*
X169686Y98756D01*
X169664Y98744D01*
X169641Y98736D01*
X169527Y98664D01*
X169410Y98596D01*
X169393Y98579D01*
X169372Y98566D01*
X169280Y98468D01*
X169184Y98373D01*
X169171Y98352D01*
X169154Y98334D01*
X169089Y98216D01*
X169019Y98101D01*
X169012Y98077D01*
X169000Y98056D01*
X168967Y97925D01*
X168928Y97796D01*
X168927Y97772D01*
X168921Y97748D01*
X168916Y97672D01*
X168018Y96773D01*
X146434Y96773D01*
X145541Y97666D01*
X145541Y105534D01*
X146434Y106427D01*
X156515Y106427D01*
X156653Y106444D01*
X156792Y106457D01*
X156811Y106464D01*
X156831Y106467D01*
X156960Y106518D01*
X157091Y106565D01*
X157108Y106576D01*
X157126Y106584D01*
X157239Y106665D01*
X157354Y106744D01*
X157367Y106759D01*
X157384Y106770D01*
X157473Y106878D01*
X157565Y106982D01*
X157574Y107000D01*
X157586Y107015D01*
X157646Y107141D01*
X157709Y107265D01*
X157713Y107285D01*
X157722Y107303D01*
X157748Y107440D01*
X157779Y107576D01*
X157778Y107596D01*
X157782Y107615D01*
X157773Y107754D01*
X157769Y107894D01*
X157763Y107913D01*
X157762Y107933D01*
X157719Y108065D01*
X157680Y108199D01*
X157670Y108216D01*
X157664Y108235D01*
X157590Y108353D01*
X157519Y108473D01*
X157500Y108494D01*
X157494Y108504D01*
X157479Y108518D01*
X157412Y108594D01*
X157362Y108645D01*
X155193Y110813D01*
X155193Y112707D01*
X156533Y114047D01*
X161595Y114047D01*
X161733Y114064D01*
X161871Y114077D01*
X161891Y114084D01*
X161911Y114087D01*
X162040Y114138D01*
X162171Y114185D01*
X162188Y114196D01*
X162206Y114204D01*
X162318Y114285D01*
X162434Y114363D01*
X162447Y114379D01*
X162464Y114390D01*
X162552Y114498D01*
X162644Y114602D01*
X162654Y114620D01*
X162666Y114635D01*
X162726Y114761D01*
X162789Y114885D01*
X162793Y114905D01*
X162802Y114923D01*
X162828Y115059D01*
X162859Y115195D01*
X162858Y115216D01*
X162862Y115235D01*
X162853Y115374D01*
X162849Y115513D01*
X162843Y115533D01*
X162842Y115553D01*
X162799Y115685D01*
X162761Y115819D01*
X162750Y115836D01*
X162744Y115855D01*
X162669Y115973D01*
X162599Y116093D01*
X162580Y116114D01*
X162574Y116124D01*
X162559Y116138D01*
X162493Y116213D01*
X151773Y126933D01*
X151679Y127006D01*
X151590Y127084D01*
X151554Y127103D01*
X151522Y127128D01*
X151413Y127175D01*
X151307Y127229D01*
X151268Y127238D01*
X151230Y127254D01*
X151113Y127273D01*
X150997Y127299D01*
X150956Y127297D01*
X150916Y127304D01*
X150798Y127293D01*
X150679Y127289D01*
X150640Y127278D01*
X150600Y127274D01*
X150487Y127234D01*
X150373Y127201D01*
X150338Y127180D01*
X150300Y127166D01*
X150202Y127099D01*
X150099Y127039D01*
X150054Y126999D01*
X150037Y126988D01*
X150024Y126972D01*
X149978Y126933D01*
X133722Y110677D01*
X133662Y110598D01*
X133594Y110526D01*
X133565Y110473D01*
X133528Y110425D01*
X133488Y110334D01*
X133440Y110248D01*
X133425Y110189D01*
X133401Y110133D01*
X133386Y110035D01*
X133361Y109940D01*
X133355Y109840D01*
X133351Y109819D01*
X133353Y109807D01*
X133351Y109779D01*
X133351Y105664D01*
X133366Y105546D01*
X133373Y105427D01*
X133386Y105389D01*
X133391Y105348D01*
X133434Y105238D01*
X133471Y105125D01*
X133493Y105090D01*
X133508Y105053D01*
X133577Y104957D01*
X133641Y104856D01*
X133671Y104828D01*
X133694Y104795D01*
X133786Y104719D01*
X133873Y104638D01*
X133908Y104618D01*
X133939Y104593D01*
X134047Y104542D01*
X134151Y104484D01*
X134191Y104474D01*
X134227Y104457D01*
X134344Y104435D01*
X134459Y104405D01*
X134519Y104401D01*
X134539Y104397D01*
X134560Y104399D01*
X134620Y104395D01*
X137260Y104395D01*
X138153Y103502D01*
X138153Y97158D01*
X138074Y97079D01*
X138001Y96985D01*
X137922Y96896D01*
X137903Y96860D01*
X137879Y96828D01*
X137831Y96719D01*
X137777Y96613D01*
X137768Y96573D01*
X137752Y96536D01*
X137734Y96419D01*
X137708Y96302D01*
X137709Y96262D01*
X137702Y96222D01*
X137714Y96104D01*
X137717Y95985D01*
X137729Y95946D01*
X137732Y95906D01*
X137773Y95793D01*
X137806Y95679D01*
X137826Y95644D01*
X137840Y95606D01*
X137907Y95508D01*
X137967Y95405D01*
X138007Y95360D01*
X138018Y95343D01*
X138034Y95330D01*
X138074Y95284D01*
X142307Y91050D01*
X142386Y90990D01*
X142458Y90922D01*
X142511Y90893D01*
X142559Y90856D01*
X142650Y90816D01*
X142736Y90768D01*
X142795Y90753D01*
X142851Y90729D01*
X142949Y90714D01*
X143044Y90689D01*
X143144Y90683D01*
X143165Y90679D01*
X143177Y90681D01*
X143205Y90679D01*
X144272Y90679D01*
X144390Y90694D01*
X144509Y90701D01*
X144547Y90714D01*
X144588Y90719D01*
X144698Y90762D01*
X144811Y90799D01*
X144846Y90821D01*
X144883Y90836D01*
X144979Y90905D01*
X145080Y90969D01*
X145108Y90999D01*
X145141Y91022D01*
X145217Y91114D01*
X145298Y91201D01*
X145318Y91236D01*
X145343Y91267D01*
X145394Y91375D01*
X145452Y91479D01*
X145462Y91519D01*
X145479Y91555D01*
X145501Y91672D01*
X145531Y91787D01*
X145535Y91847D01*
X145539Y91867D01*
X145537Y91888D01*
X145541Y91948D01*
X145541Y92834D01*
X146434Y93727D01*
X168018Y93727D01*
X168911Y92834D01*
X168911Y84966D01*
X168018Y84073D01*
X160528Y84073D01*
X160410Y84058D01*
X160291Y84051D01*
X160253Y84038D01*
X160212Y84033D01*
X160102Y83990D01*
X159989Y83953D01*
X159954Y83931D01*
X159917Y83916D01*
X159821Y83847D01*
X159720Y83783D01*
X159692Y83753D01*
X159659Y83730D01*
X159583Y83638D01*
X159502Y83551D01*
X159482Y83516D01*
X159457Y83485D01*
X159406Y83377D01*
X159348Y83273D01*
X159338Y83233D01*
X159321Y83197D01*
X159299Y83080D01*
X159269Y82965D01*
X159265Y82905D01*
X159261Y82885D01*
X159263Y82864D01*
X159259Y82804D01*
X159259Y82296D01*
X159274Y82178D01*
X159281Y82059D01*
X159294Y82021D01*
X159299Y81980D01*
X159342Y81870D01*
X159379Y81757D01*
X159401Y81722D01*
X159416Y81685D01*
X159485Y81589D01*
X159549Y81488D01*
X159579Y81460D01*
X159602Y81427D01*
X159694Y81351D01*
X159781Y81270D01*
X159816Y81250D01*
X159847Y81225D01*
X159955Y81174D01*
X160059Y81116D01*
X160099Y81106D01*
X160135Y81089D01*
X160252Y81067D01*
X160367Y81037D01*
X160427Y81033D01*
X160447Y81029D01*
X160468Y81031D01*
X160528Y81027D01*
X168018Y81027D01*
X168911Y80134D01*
X168911Y72593D01*
X168923Y72495D01*
X168926Y72396D01*
X168943Y72337D01*
X168951Y72277D01*
X168987Y72185D01*
X169015Y72090D01*
X169045Y72038D01*
X169068Y71982D01*
X169126Y71902D01*
X169176Y71816D01*
X169242Y71741D01*
X169254Y71724D01*
X169264Y71717D01*
X169282Y71695D01*
X169283Y71695D01*
X169392Y71610D01*
X169499Y71522D01*
X169518Y71513D01*
X169534Y71500D01*
X169662Y71445D01*
X169787Y71386D01*
X169807Y71382D01*
X169826Y71374D01*
X169964Y71352D01*
X170100Y71326D01*
X170120Y71327D01*
X170140Y71324D01*
X170279Y71337D01*
G37*
%LPC*%
G36*
X201636Y128805D02*
X201636Y128805D01*
X199686Y129613D01*
X198193Y131106D01*
X197385Y133056D01*
X197385Y135168D01*
X197904Y136420D01*
X197917Y136468D01*
X197938Y136513D01*
X197959Y136621D01*
X197988Y136727D01*
X197989Y136777D01*
X197998Y136826D01*
X197991Y136935D01*
X197993Y137045D01*
X197982Y137093D01*
X197978Y137143D01*
X197945Y137247D01*
X197919Y137354D01*
X197896Y137398D01*
X197880Y137445D01*
X197822Y137538D01*
X197770Y137635D01*
X197737Y137672D01*
X197710Y137714D01*
X197630Y137789D01*
X197556Y137871D01*
X197515Y137898D01*
X197479Y137932D01*
X197382Y137985D01*
X197291Y138045D01*
X197244Y138062D01*
X197200Y138086D01*
X197094Y138113D01*
X196990Y138149D01*
X196940Y138153D01*
X196892Y138165D01*
X196732Y138175D01*
X196218Y138175D01*
X195325Y139068D01*
X195325Y165732D01*
X196218Y166625D01*
X210182Y166625D01*
X211075Y165732D01*
X211075Y139068D01*
X210182Y138175D01*
X208652Y138175D01*
X208603Y138169D01*
X208554Y138171D01*
X208446Y138149D01*
X208337Y138135D01*
X208291Y138117D01*
X208242Y138107D01*
X208143Y138059D01*
X208041Y138018D01*
X208001Y137989D01*
X207956Y137967D01*
X207873Y137896D01*
X207784Y137832D01*
X207752Y137793D01*
X207714Y137761D01*
X207651Y137671D01*
X207581Y137587D01*
X207560Y137542D01*
X207531Y137501D01*
X207492Y137398D01*
X207446Y137299D01*
X207436Y137250D01*
X207419Y137204D01*
X207406Y137094D01*
X207386Y136987D01*
X207389Y136937D01*
X207383Y136888D01*
X207399Y136779D01*
X207406Y136669D01*
X207421Y136622D01*
X207428Y136573D01*
X207480Y136420D01*
X207999Y135168D01*
X207999Y133056D01*
X207191Y131106D01*
X205698Y129613D01*
X203748Y128805D01*
X201636Y128805D01*
G37*
%LPD*%
G36*
X103781Y76975D02*
X103781Y76975D01*
X103880Y76978D01*
X103938Y76995D01*
X103999Y77003D01*
X104091Y77039D01*
X104186Y77067D01*
X104238Y77097D01*
X104294Y77120D01*
X104374Y77178D01*
X104460Y77228D01*
X104535Y77294D01*
X104552Y77306D01*
X104559Y77316D01*
X104581Y77334D01*
X122310Y95063D01*
X122310Y95064D01*
X122582Y95336D01*
X122655Y95430D01*
X122734Y95519D01*
X122752Y95555D01*
X122777Y95587D01*
X122824Y95696D01*
X122878Y95802D01*
X122887Y95842D01*
X122903Y95879D01*
X122922Y95996D01*
X122948Y96113D01*
X122947Y96153D01*
X122953Y96193D01*
X122942Y96311D01*
X122938Y96431D01*
X122927Y96469D01*
X122923Y96510D01*
X122883Y96622D01*
X122850Y96736D01*
X122829Y96771D01*
X122816Y96809D01*
X122749Y96907D01*
X122688Y97010D01*
X122648Y97055D01*
X122637Y97072D01*
X122622Y97085D01*
X122582Y97131D01*
X122538Y97175D01*
X122532Y97265D01*
X122519Y97303D01*
X122514Y97344D01*
X122471Y97454D01*
X122434Y97567D01*
X122412Y97602D01*
X122397Y97639D01*
X122328Y97735D01*
X122264Y97836D01*
X122234Y97864D01*
X122211Y97897D01*
X122119Y97973D01*
X122032Y98054D01*
X121997Y98074D01*
X121966Y98099D01*
X121858Y98150D01*
X121754Y98208D01*
X121714Y98218D01*
X121678Y98235D01*
X121561Y98257D01*
X121446Y98287D01*
X121386Y98291D01*
X121366Y98295D01*
X121345Y98293D01*
X121285Y98297D01*
X105105Y98297D01*
X105007Y98285D01*
X104908Y98282D01*
X104850Y98265D01*
X104789Y98257D01*
X104697Y98221D01*
X104602Y98193D01*
X104550Y98163D01*
X104494Y98140D01*
X104414Y98082D01*
X104328Y98032D01*
X104253Y97966D01*
X104236Y97954D01*
X104229Y97944D01*
X104207Y97926D01*
X85952Y79670D01*
X85879Y79576D01*
X85800Y79487D01*
X85782Y79451D01*
X85757Y79419D01*
X85710Y79309D01*
X85656Y79203D01*
X85647Y79164D01*
X85631Y79127D01*
X85612Y79009D01*
X85586Y78893D01*
X85587Y78853D01*
X85581Y78813D01*
X85592Y78694D01*
X85596Y78575D01*
X85607Y78537D01*
X85611Y78496D01*
X85651Y78384D01*
X85684Y78270D01*
X85705Y78235D01*
X85718Y78197D01*
X85733Y78176D01*
X85741Y78114D01*
X85748Y77995D01*
X85761Y77957D01*
X85766Y77916D01*
X85809Y77806D01*
X85846Y77693D01*
X85868Y77658D01*
X85883Y77621D01*
X85952Y77525D01*
X86016Y77424D01*
X86046Y77396D01*
X86069Y77363D01*
X86161Y77287D01*
X86248Y77206D01*
X86283Y77186D01*
X86314Y77161D01*
X86422Y77110D01*
X86526Y77052D01*
X86566Y77042D01*
X86602Y77025D01*
X86719Y77003D01*
X86834Y76973D01*
X86894Y76969D01*
X86914Y76965D01*
X86935Y76967D01*
X86995Y76963D01*
X103683Y76963D01*
X103781Y76975D01*
G37*
%LPC*%
G36*
X44968Y128175D02*
X44968Y128175D01*
X44075Y129068D01*
X44075Y150332D01*
X44968Y151225D01*
X61232Y151225D01*
X62125Y150332D01*
X62125Y129068D01*
X61232Y128175D01*
X44968Y128175D01*
G37*
%LPD*%
%LPC*%
G36*
X27939Y167639D02*
X27939Y167639D01*
X27939Y173991D01*
X38434Y173991D01*
X39081Y173818D01*
X39660Y173483D01*
X40133Y173010D01*
X40468Y172431D01*
X40641Y171784D01*
X40641Y167639D01*
X27939Y167639D01*
G37*
%LPD*%
%LPC*%
G36*
X27939Y156209D02*
X27939Y156209D01*
X27939Y162561D01*
X40641Y162561D01*
X40641Y158416D01*
X40468Y157769D01*
X40133Y157190D01*
X39660Y156717D01*
X39081Y156382D01*
X38434Y156209D01*
X27939Y156209D01*
G37*
%LPD*%
%LPC*%
G36*
X25639Y142239D02*
X25639Y142239D01*
X25639Y152241D01*
X30934Y152241D01*
X31581Y152068D01*
X32160Y151733D01*
X32633Y151260D01*
X32968Y150681D01*
X33141Y150034D01*
X33141Y142239D01*
X25639Y142239D01*
G37*
%LPD*%
%LPC*%
G36*
X25639Y127159D02*
X25639Y127159D01*
X25639Y137161D01*
X33141Y137161D01*
X33141Y129366D01*
X32968Y128719D01*
X32633Y128140D01*
X32160Y127667D01*
X31581Y127332D01*
X30934Y127159D01*
X25639Y127159D01*
G37*
%LPD*%
%LPC*%
G36*
X13059Y142239D02*
X13059Y142239D01*
X13059Y150034D01*
X13232Y150681D01*
X13567Y151260D01*
X14040Y151733D01*
X14619Y152068D01*
X15266Y152241D01*
X20561Y152241D01*
X20561Y142239D01*
X13059Y142239D01*
G37*
%LPD*%
%LPC*%
G36*
X15266Y127159D02*
X15266Y127159D01*
X14619Y127332D01*
X14040Y127667D01*
X13567Y128140D01*
X13232Y128719D01*
X13059Y129366D01*
X13059Y137161D01*
X20561Y137161D01*
X20561Y127159D01*
X15266Y127159D01*
G37*
%LPD*%
%LPC*%
G36*
X181639Y142239D02*
X181639Y142239D01*
X181639Y151241D01*
X187434Y151241D01*
X188081Y151068D01*
X188660Y150733D01*
X189133Y150260D01*
X189468Y149681D01*
X189641Y149034D01*
X189641Y142239D01*
X181639Y142239D01*
G37*
%LPD*%
%LPC*%
G36*
X118139Y142239D02*
X118139Y142239D01*
X118139Y151241D01*
X123934Y151241D01*
X124581Y151068D01*
X125160Y150733D01*
X125633Y150260D01*
X125968Y149681D01*
X126141Y149034D01*
X126141Y142239D01*
X118139Y142239D01*
G37*
%LPD*%
%LPC*%
G36*
X26639Y104139D02*
X26639Y104139D01*
X26639Y113141D01*
X32434Y113141D01*
X33081Y112968D01*
X33660Y112633D01*
X34133Y112160D01*
X34468Y111581D01*
X34641Y110934D01*
X34641Y104139D01*
X26639Y104139D01*
G37*
%LPD*%
%LPC*%
G36*
X26639Y90059D02*
X26639Y90059D01*
X26639Y99061D01*
X34641Y99061D01*
X34641Y92266D01*
X34468Y91619D01*
X34133Y91040D01*
X33660Y90567D01*
X33081Y90232D01*
X32434Y90059D01*
X26639Y90059D01*
G37*
%LPD*%
%LPC*%
G36*
X118139Y128159D02*
X118139Y128159D01*
X118139Y137161D01*
X126141Y137161D01*
X126141Y130366D01*
X125968Y129719D01*
X125633Y129140D01*
X125160Y128667D01*
X124581Y128332D01*
X123934Y128159D01*
X118139Y128159D01*
G37*
%LPD*%
%LPC*%
G36*
X181639Y128159D02*
X181639Y128159D01*
X181639Y137161D01*
X189641Y137161D01*
X189641Y130366D01*
X189468Y129719D01*
X189133Y129140D01*
X188660Y128667D01*
X188081Y128332D01*
X187434Y128159D01*
X181639Y128159D01*
G37*
%LPD*%
%LPC*%
G36*
X168559Y142239D02*
X168559Y142239D01*
X168559Y149034D01*
X168732Y149681D01*
X169067Y150260D01*
X169540Y150733D01*
X170119Y151068D01*
X170766Y151241D01*
X176561Y151241D01*
X176561Y142239D01*
X168559Y142239D01*
G37*
%LPD*%
%LPC*%
G36*
X105059Y142239D02*
X105059Y142239D01*
X105059Y149034D01*
X105232Y149681D01*
X105567Y150260D01*
X106040Y150733D01*
X106619Y151068D01*
X107266Y151241D01*
X113061Y151241D01*
X113061Y142239D01*
X105059Y142239D01*
G37*
%LPD*%
%LPC*%
G36*
X13559Y104139D02*
X13559Y104139D01*
X13559Y110934D01*
X13732Y111581D01*
X14067Y112160D01*
X14540Y112633D01*
X15119Y112968D01*
X15766Y113141D01*
X21561Y113141D01*
X21561Y104139D01*
X13559Y104139D01*
G37*
%LPD*%
%LPC*%
G36*
X15766Y90059D02*
X15766Y90059D01*
X15119Y90232D01*
X14540Y90567D01*
X14067Y91040D01*
X13732Y91619D01*
X13559Y92266D01*
X13559Y99061D01*
X21561Y99061D01*
X21561Y90059D01*
X15766Y90059D01*
G37*
%LPD*%
%LPC*%
G36*
X107266Y128159D02*
X107266Y128159D01*
X106619Y128332D01*
X106040Y128667D01*
X105567Y129140D01*
X105232Y129719D01*
X105059Y130366D01*
X105059Y137161D01*
X113061Y137161D01*
X113061Y128159D01*
X107266Y128159D01*
G37*
%LPD*%
%LPC*%
G36*
X170766Y128159D02*
X170766Y128159D01*
X170119Y128332D01*
X169540Y128667D01*
X169067Y129140D01*
X168732Y129719D01*
X168559Y130366D01*
X168559Y137161D01*
X176561Y137161D01*
X176561Y128159D01*
X170766Y128159D01*
G37*
%LPD*%
%LPC*%
G36*
X158876Y19557D02*
X158876Y19557D01*
X158876Y23750D01*
X169927Y23750D01*
X169927Y21764D01*
X169754Y21117D01*
X169419Y20538D01*
X168946Y20065D01*
X168652Y19895D01*
X168599Y19855D01*
X168483Y19797D01*
X168367Y19730D01*
X167720Y19557D01*
X158876Y19557D01*
G37*
%LPD*%
%LPC*%
G36*
X146732Y19557D02*
X146732Y19557D01*
X146085Y19730D01*
X145506Y20065D01*
X145033Y20538D01*
X144698Y21117D01*
X144525Y21764D01*
X144525Y23750D01*
X155576Y23750D01*
X155576Y19557D01*
X146732Y19557D01*
G37*
%LPD*%
%LPC*%
G36*
X79196Y101599D02*
X79196Y101599D01*
X79196Y105411D01*
X84535Y105411D01*
X85182Y105238D01*
X85761Y104903D01*
X86234Y104430D01*
X86569Y103851D01*
X86742Y103204D01*
X86742Y101599D01*
X79196Y101599D01*
G37*
%LPD*%
%LPC*%
G36*
X69111Y101599D02*
X69111Y101599D01*
X69111Y103204D01*
X69284Y103851D01*
X69619Y104430D01*
X70092Y104903D01*
X70671Y105238D01*
X71318Y105411D01*
X76657Y105411D01*
X76657Y101599D01*
X69111Y101599D01*
G37*
%LPD*%
%LPC*%
G36*
X79196Y95249D02*
X79196Y95249D01*
X79196Y99061D01*
X86742Y99061D01*
X86742Y97456D01*
X86569Y96809D01*
X86234Y96230D01*
X85761Y95757D01*
X85182Y95422D01*
X84535Y95249D01*
X79196Y95249D01*
G37*
%LPD*%
%LPC*%
G36*
X71318Y95249D02*
X71318Y95249D01*
X70671Y95422D01*
X70092Y95757D01*
X69619Y96230D01*
X69284Y96809D01*
X69111Y97456D01*
X69111Y99061D01*
X76657Y99061D01*
X76657Y95249D01*
X71318Y95249D01*
G37*
%LPD*%
%LPC*%
G36*
X179099Y139699D02*
X179099Y139699D01*
X179099Y139701D01*
X179101Y139701D01*
X179101Y139699D01*
X179099Y139699D01*
G37*
%LPD*%
%LPC*%
G36*
X115599Y139699D02*
X115599Y139699D01*
X115599Y139701D01*
X115601Y139701D01*
X115601Y139699D01*
X115599Y139699D01*
G37*
%LPD*%
%LPC*%
G36*
X23099Y139699D02*
X23099Y139699D01*
X23099Y139701D01*
X23101Y139701D01*
X23101Y139699D01*
X23099Y139699D01*
G37*
%LPD*%
%LPC*%
G36*
X24099Y101599D02*
X24099Y101599D01*
X24099Y101601D01*
X24101Y101601D01*
X24101Y101599D01*
X24099Y101599D01*
G37*
%LPD*%
D10*
X53100Y139700D03*
X23100Y139700D03*
D11*
X52100Y101600D03*
X24100Y101600D03*
D12*
X203200Y152400D03*
D13*
X25400Y165100D03*
X25400Y63500D03*
D14*
X157226Y101600D03*
X218694Y101600D03*
X157226Y88900D03*
X157226Y76200D03*
X218694Y88900D03*
X218694Y76200D03*
X157226Y63500D03*
X218694Y63500D03*
X157226Y50800D03*
X157226Y38100D03*
X218694Y50800D03*
X218694Y38100D03*
X157226Y25400D03*
X218694Y25400D03*
D11*
X87600Y139700D03*
X115600Y139700D03*
X151100Y139700D03*
X179100Y139700D03*
D15*
X87380Y40640D03*
X115820Y40640D03*
D13*
X63500Y165100D03*
X25400Y25400D03*
D16*
X77927Y100330D03*
X77927Y87630D03*
X77927Y74930D03*
X77927Y62230D03*
X130354Y62230D03*
X130354Y74930D03*
X130354Y87630D03*
X130354Y100330D03*
D17*
X156972Y50292D02*
X156972Y38100D01*
X156972Y50292D02*
X157226Y50800D01*
X77724Y88392D02*
X65532Y88392D01*
X44196Y67056D01*
X28956Y67056D01*
X25400Y63500D01*
X77927Y87630D02*
X77724Y88392D01*
X140208Y38100D02*
X156972Y38100D01*
X140208Y38100D02*
X126492Y24384D01*
X76200Y24384D01*
X45720Y54864D01*
X45720Y65532D01*
X44196Y67056D01*
X156972Y38100D02*
X157226Y38100D01*
X55350Y104850D02*
X52100Y101600D01*
X131064Y74676D02*
X131064Y62484D01*
X130354Y62230D01*
X131064Y74676D02*
X130354Y74930D01*
X131064Y76200D02*
X131064Y86868D01*
X130354Y87630D01*
X131064Y76200D02*
X130354Y74930D01*
X53340Y86868D02*
X53340Y100584D01*
X102108Y48768D02*
X109728Y41148D01*
X114300Y41148D01*
X53340Y100584D02*
X52100Y101600D01*
X114300Y41148D02*
X115820Y40640D01*
X131064Y50292D02*
X131064Y60960D01*
X131064Y50292D02*
X121920Y41148D01*
X115824Y41148D01*
X131064Y60960D02*
X130354Y62230D01*
X115824Y41148D02*
X115820Y40640D01*
D18*
X53340Y86868D03*
X102108Y48768D03*
D17*
X105156Y74676D02*
X79248Y74676D01*
X105156Y74676D02*
X124968Y94488D01*
X135636Y94488D01*
X141732Y88392D01*
X156972Y88392D01*
X79248Y74676D02*
X77927Y74930D01*
X156972Y76200D02*
X156972Y88392D01*
X156972Y76200D02*
X157226Y76200D01*
X156972Y88392D02*
X157226Y88900D01*
X187452Y38100D02*
X218694Y38100D01*
X187452Y38100D02*
X169164Y56388D01*
X146304Y56388D01*
X143256Y59436D01*
X144780Y60960D01*
X144780Y68580D01*
X146304Y70104D01*
X167640Y70104D01*
X170688Y67056D01*
X172212Y67056D01*
X173736Y68580D01*
X173736Y99060D01*
X170688Y102108D01*
X158496Y102108D01*
X157226Y101600D01*
X182880Y25908D02*
X217932Y25908D01*
X182880Y25908D02*
X172212Y15240D01*
X170688Y15240D01*
X169164Y13716D01*
X144780Y13716D01*
X143256Y15240D01*
X48768Y15240D01*
X38100Y25908D01*
X25908Y25908D01*
X217932Y25908D02*
X218694Y25400D01*
X25908Y25908D02*
X25400Y25400D01*
X158496Y64008D02*
X192024Y64008D01*
X204216Y76200D01*
X218694Y76200D01*
X158496Y64008D02*
X157226Y63500D01*
X219456Y62484D02*
X219456Y51816D01*
X218694Y50800D01*
X219456Y62484D02*
X218694Y63500D01*
X217932Y88392D02*
X202692Y88392D01*
X202692Y134112D02*
X202692Y152400D01*
X218694Y88900D02*
X217932Y88392D01*
X203200Y152400D02*
X202692Y152400D01*
D18*
X202692Y88392D03*
X202692Y134112D03*
D19*
X87600Y139700D02*
X87600Y141000D01*
X87600Y139700D02*
X94649Y139700D01*
X88900Y138400D02*
X87600Y139700D01*
D17*
X86868Y141732D02*
X79248Y141732D01*
X62484Y158496D01*
X62484Y164592D01*
X86868Y141732D02*
X87600Y139700D01*
X63500Y165100D02*
X62484Y164592D01*
X79248Y60960D02*
X79248Y57912D01*
X86868Y50292D01*
X86868Y41148D01*
X79248Y60960D02*
X77927Y62230D01*
X86868Y41148D02*
X87380Y40640D01*
X131064Y100584D02*
X131064Y111252D01*
X150876Y131064D01*
X150876Y138684D01*
X131064Y100584D02*
X130354Y100330D01*
X150876Y138684D02*
X151100Y139700D01*
X179832Y102108D02*
X217932Y102108D01*
X179832Y102108D02*
X150876Y131064D01*
X217932Y102108D02*
X218694Y101600D01*
X150876Y131064D02*
X151100Y139700D01*
X77724Y62484D02*
X67056Y62484D01*
X64008Y65532D01*
X64008Y73152D01*
X73152Y82296D01*
X85344Y82296D01*
X103632Y100584D01*
X129540Y100584D01*
X77927Y62230D02*
X77724Y62484D01*
X129540Y100584D02*
X130354Y100330D01*
X92964Y111252D02*
X92964Y138684D01*
X92964Y111252D02*
X103632Y100584D01*
X92964Y138684D02*
X87600Y139700D01*
D18*
X109220Y63500D03*
X187960Y76200D03*
X68580Y48260D03*
X195580Y17780D03*
X195580Y50800D03*
X149860Y114300D03*
X104140Y88900D03*
D17*
X157480Y111760D02*
X162560Y111760D01*
X160020Y109220D02*
X157480Y111760D01*
X160020Y109220D02*
X162560Y111760D01*
M02*
