G04 EAGLE Gerber RS-274X export*
G75*
%MOMM*%
%FSLAX34Y34*%
%LPD*%
%INBottom Copper*%
%IPPOS*%
%AMOC8*
5,1,8,0,0,1.08239X$1,22.5*%
G01*
%ADD10C,0.152400*%
%ADD11C,0.756400*%

G36*
X229788Y10176D02*
X229788Y10176D01*
X229907Y10183D01*
X229945Y10196D01*
X229986Y10201D01*
X230096Y10244D01*
X230209Y10281D01*
X230244Y10303D01*
X230281Y10318D01*
X230377Y10387D01*
X230478Y10451D01*
X230506Y10481D01*
X230539Y10504D01*
X230615Y10596D01*
X230696Y10683D01*
X230716Y10718D01*
X230741Y10749D01*
X230792Y10857D01*
X230850Y10961D01*
X230860Y11001D01*
X230877Y11037D01*
X230899Y11154D01*
X230929Y11269D01*
X230933Y11329D01*
X230937Y11349D01*
X230935Y11370D01*
X230939Y11430D01*
X230939Y175770D01*
X230924Y175888D01*
X230917Y176007D01*
X230904Y176045D01*
X230899Y176086D01*
X230856Y176196D01*
X230819Y176309D01*
X230797Y176344D01*
X230782Y176381D01*
X230713Y176477D01*
X230649Y176578D01*
X230619Y176606D01*
X230596Y176639D01*
X230504Y176715D01*
X230417Y176796D01*
X230382Y176816D01*
X230351Y176841D01*
X230243Y176892D01*
X230139Y176950D01*
X230099Y176960D01*
X230063Y176977D01*
X229946Y176999D01*
X229831Y177029D01*
X229771Y177033D01*
X229751Y177037D01*
X229730Y177035D01*
X229670Y177039D01*
X11430Y177039D01*
X11312Y177024D01*
X11193Y177017D01*
X11155Y177004D01*
X11114Y176999D01*
X11004Y176956D01*
X10891Y176919D01*
X10856Y176897D01*
X10819Y176882D01*
X10723Y176813D01*
X10622Y176749D01*
X10594Y176719D01*
X10561Y176696D01*
X10485Y176604D01*
X10404Y176517D01*
X10384Y176482D01*
X10359Y176451D01*
X10308Y176343D01*
X10250Y176239D01*
X10240Y176199D01*
X10223Y176163D01*
X10201Y176046D01*
X10171Y175931D01*
X10167Y175871D01*
X10163Y175851D01*
X10165Y175830D01*
X10161Y175770D01*
X10161Y11430D01*
X10176Y11312D01*
X10183Y11193D01*
X10196Y11155D01*
X10201Y11114D01*
X10244Y11004D01*
X10281Y10891D01*
X10303Y10856D01*
X10318Y10819D01*
X10387Y10723D01*
X10451Y10622D01*
X10481Y10594D01*
X10504Y10561D01*
X10596Y10485D01*
X10683Y10404D01*
X10718Y10384D01*
X10749Y10359D01*
X10857Y10308D01*
X10961Y10250D01*
X11001Y10240D01*
X11037Y10223D01*
X11154Y10201D01*
X11269Y10171D01*
X11329Y10167D01*
X11349Y10163D01*
X11370Y10165D01*
X11430Y10161D01*
X229670Y10161D01*
X229788Y10176D01*
G37*
%LPC*%
G36*
X101052Y43461D02*
X101052Y43461D01*
X99102Y44269D01*
X97609Y45762D01*
X96801Y47712D01*
X96801Y49838D01*
X96824Y49941D01*
X96859Y50066D01*
X96859Y50095D01*
X96866Y50124D01*
X96862Y50254D01*
X96864Y50384D01*
X96857Y50413D01*
X96856Y50442D01*
X96820Y50567D01*
X96790Y50693D01*
X96776Y50719D01*
X96767Y50748D01*
X96702Y50860D01*
X96641Y50974D01*
X96621Y50996D01*
X96606Y51022D01*
X96500Y51143D01*
X63433Y84210D01*
X63354Y84270D01*
X63282Y84338D01*
X63229Y84367D01*
X63181Y84404D01*
X63090Y84444D01*
X63004Y84492D01*
X62945Y84507D01*
X62889Y84531D01*
X62791Y84546D01*
X62696Y84571D01*
X62596Y84577D01*
X62575Y84581D01*
X62563Y84579D01*
X62535Y84581D01*
X58985Y84581D01*
X58955Y84578D01*
X58926Y84580D01*
X58798Y84558D01*
X58669Y84541D01*
X58642Y84531D01*
X58613Y84525D01*
X58494Y84472D01*
X58374Y84424D01*
X58350Y84407D01*
X58323Y84395D01*
X58221Y84314D01*
X58116Y84238D01*
X58097Y84215D01*
X58074Y84196D01*
X57996Y84093D01*
X57913Y83993D01*
X57901Y83966D01*
X57883Y83942D01*
X57848Y83872D01*
X56346Y82369D01*
X54396Y81561D01*
X52284Y81561D01*
X50334Y82369D01*
X48841Y83862D01*
X48033Y85812D01*
X48033Y87924D01*
X48841Y89874D01*
X50334Y91367D01*
X52284Y92175D01*
X54396Y92175D01*
X56346Y91367D01*
X57849Y89864D01*
X57906Y89775D01*
X57970Y89662D01*
X57990Y89641D01*
X58006Y89616D01*
X58101Y89527D01*
X58191Y89434D01*
X58216Y89418D01*
X58238Y89398D01*
X58351Y89335D01*
X58462Y89267D01*
X58490Y89259D01*
X58516Y89244D01*
X58642Y89212D01*
X58766Y89174D01*
X58796Y89172D01*
X58824Y89165D01*
X58985Y89155D01*
X64955Y89155D01*
X99733Y54376D01*
X99757Y54358D01*
X99776Y54336D01*
X99882Y54261D01*
X99985Y54182D01*
X100012Y54170D01*
X100036Y54153D01*
X100157Y54107D01*
X100277Y54055D01*
X100306Y54051D01*
X100334Y54040D01*
X100462Y54026D01*
X100591Y54005D01*
X100620Y54008D01*
X100650Y54005D01*
X100778Y54023D01*
X100907Y54035D01*
X100935Y54045D01*
X100964Y54049D01*
X101039Y54075D01*
X103164Y54075D01*
X105114Y53267D01*
X106607Y51774D01*
X107415Y49824D01*
X107415Y47712D01*
X106607Y45762D01*
X105114Y44269D01*
X103164Y43461D01*
X101052Y43461D01*
G37*
%LPD*%
%LPC*%
G36*
X201636Y83085D02*
X201636Y83085D01*
X199686Y83893D01*
X198193Y85386D01*
X197385Y87336D01*
X197385Y89448D01*
X198193Y91398D01*
X199696Y92901D01*
X199785Y92958D01*
X199898Y93022D01*
X199919Y93042D01*
X199944Y93058D01*
X200033Y93153D01*
X200126Y93243D01*
X200142Y93268D01*
X200162Y93290D01*
X200225Y93403D01*
X200293Y93514D01*
X200301Y93542D01*
X200316Y93568D01*
X200348Y93694D01*
X200386Y93818D01*
X200388Y93848D01*
X200395Y93876D01*
X200405Y94037D01*
X200405Y128467D01*
X200402Y128497D01*
X200404Y128526D01*
X200382Y128654D01*
X200365Y128783D01*
X200355Y128810D01*
X200349Y128839D01*
X200296Y128958D01*
X200248Y129078D01*
X200231Y129102D01*
X200219Y129129D01*
X200138Y129231D01*
X200062Y129336D01*
X200039Y129355D01*
X200020Y129378D01*
X199917Y129456D01*
X199817Y129539D01*
X199790Y129551D01*
X199766Y129569D01*
X199696Y129604D01*
X198193Y131106D01*
X197385Y133056D01*
X197385Y135168D01*
X198193Y137118D01*
X199686Y138611D01*
X201636Y139419D01*
X203748Y139419D01*
X205698Y138611D01*
X207191Y137118D01*
X207999Y135168D01*
X207999Y133056D01*
X207191Y131106D01*
X205688Y129603D01*
X205599Y129546D01*
X205486Y129482D01*
X205465Y129462D01*
X205440Y129446D01*
X205351Y129351D01*
X205258Y129261D01*
X205242Y129236D01*
X205222Y129214D01*
X205159Y129101D01*
X205091Y128990D01*
X205083Y128962D01*
X205068Y128936D01*
X205036Y128810D01*
X204998Y128686D01*
X204996Y128656D01*
X204989Y128628D01*
X204979Y128467D01*
X204979Y94037D01*
X204982Y94007D01*
X204980Y93978D01*
X205002Y93850D01*
X205019Y93721D01*
X205029Y93694D01*
X205035Y93665D01*
X205088Y93546D01*
X205136Y93426D01*
X205153Y93402D01*
X205165Y93375D01*
X205246Y93273D01*
X205322Y93168D01*
X205345Y93149D01*
X205364Y93126D01*
X205467Y93048D01*
X205567Y92965D01*
X205594Y92953D01*
X205618Y92935D01*
X205688Y92900D01*
X207191Y91398D01*
X207999Y89448D01*
X207999Y87336D01*
X207191Y85386D01*
X205698Y83893D01*
X203748Y83085D01*
X201636Y83085D01*
G37*
%LPD*%
D10*
X64008Y86868D02*
X53340Y86868D01*
X64008Y86868D02*
X102108Y48768D01*
D11*
X53340Y86868D03*
X102108Y48768D03*
D10*
X202692Y88392D02*
X202692Y134112D01*
D11*
X202692Y88392D03*
X202692Y134112D03*
X109220Y63500D03*
X187960Y76200D03*
X68580Y48260D03*
X195580Y17780D03*
X195580Y50800D03*
X149860Y114300D03*
X104140Y88900D03*
M02*
